<?xml version="1.0" encoding="utf-8"?>
<!-- Generator: Adobe Illustrator 27.5.0, SVG Export Plug-In . SVG Version: 6.00 Build 0)  -->
<svg version="1.1" xmlns="http://www.w3.org/2000/svg" xmlns:xlink="http://www.w3.org/1999/xlink" x="0px" y="0px"
	 viewBox="0 0 500 500" style="enable-background:new 0 0 500 500;" xml:space="preserve">
<g id="BACKGROUND">
	<rect style="fill:#FFFFFF;" width="500" height="500"/>
</g>
<g id="OBJECTS">
	<g>
		<g>
			<g>
				
					<ellipse transform="matrix(0.9257 -0.3782 0.3782 0.9257 -60.8876 192.127)" style="fill:#EBD6E6;" cx="458.707" cy="251.082" rx="19.423" ry="19.423"/>
				
					<ellipse transform="matrix(0.9214 -0.3887 0.3887 0.9214 -50.8533 27.1003)" style="fill:#EBD6E6;" cx="41.555" cy="139.239" rx="12.555" ry="12.555"/>
				
					<ellipse transform="matrix(0.9924 -0.1233 0.1233 0.9924 -8.9655 52.478)" style="fill:#EBD6E6;" cx="419.359" cy="98.649" rx="38.92" ry="38.92"/>
				<path style="fill:#EBD6E6;" d="M65.55,446.074h354.692c15.976-10.664,38.703-22.93,47.212-47.786
					c20.15-58.857-27.298-79.804-53.137-108.975c-25.838-29.171,27.63-41.252,20.479-104.063
					c-3.678-32.309-46.857-61.837-91.02-46.308c-44.163,15.529-50.571-2.952-71.041-40.618
					C248.94,54.538,147.289,30.788,88.362,109.479c-58.927,78.692-2.083,138.316-8.748,166.458
					c-6.664,28.142-54.146,42.649-57.535,96.81C20.115,404.129,31.714,432.22,65.55,446.074z"/>
			</g>
			<g>
				<g>
					<g>
						
							<rect x="366.322" y="276.704" transform="matrix(-1 -1.224647e-16 1.224647e-16 -1 803.4839 721.8956)" style="fill:none;stroke:#D4A5CF;stroke-miterlimit:10;" width="70.839" height="168.487"/>
					</g>
					<g>
						
							<rect x="163.177" y="214.394" transform="matrix(-1 -1.224647e-16 1.224647e-16 -1 397.1925 659.5853)" style="fill:none;stroke:#D4A5CF;stroke-miterlimit:10;" width="70.839" height="230.798"/>
					</g>
					<g>
						
							<rect x="61.604" y="279.446" transform="matrix(-1 -1.224647e-16 1.224647e-16 -1 194.0469 724.6375)" style="fill:none;stroke:#D4A5CF;stroke-miterlimit:10;" width="70.839" height="165.745"/>
					</g>
					<g>
						
							<rect x="264.75" y="326.427" transform="matrix(-1 -1.224647e-16 1.224647e-16 -1 600.3381 771.6189)" style="fill:none;stroke:#D4A5CF;stroke-miterlimit:10;" width="70.839" height="118.764"/>
					</g>
				</g>
				<g>
					<g>
						<g>
							<g>
								<path style="fill-rule:evenodd;clip-rule:evenodd;fill:none;stroke:#D4A5CF;stroke-miterlimit:10;" d="M427.186,198.541
									l0.007-3.136l5.065-1.136l1.345,2.833c1.146,0.045,2.266,0.243,3.335,0.581l2.224-2.214l4.385,2.778l-1.052,2.956
									c0.761,0.822,1.42,1.75,1.949,2.767l3.136,0.007l1.136,5.066l-2.833,1.345c-0.045,1.146-0.244,2.266-0.581,3.334
									l2.214,2.224l-2.778,4.385l-2.957-1.052c-0.822,0.761-1.749,1.42-2.767,1.949l-0.007,3.137l-5.066,1.136l-1.345-2.833
									c-1.146-0.044-2.266-0.243-3.335-0.58l-2.224,2.214l-4.385-2.778l1.052-2.956c-0.761-0.822-1.42-1.749-1.949-2.767
									l-3.136-0.007l-1.137-5.065l2.833-1.345c0.044-1.146,0.244-2.266,0.581-3.334l-2.214-2.223l2.778-4.385l2.956,1.052
									C425.242,199.729,426.17,199.071,427.186,198.541L427.186,198.541z M427.437,211.155c0.673,3.001,3.651,4.888,6.653,4.215
									c3.001-0.673,4.888-3.652,4.215-6.653c-0.673-3.001-3.652-4.888-6.653-4.215
									C428.651,205.175,426.764,208.153,427.437,211.155z"/>
							</g>
						</g>
					</g>
					<g>
						<g>
							<g>
								<path style="fill-rule:evenodd;clip-rule:evenodd;fill:none;stroke:#D4A5CF;stroke-miterlimit:10;" d="M257.535,251.16
									l0.009-3.652l5.897-1.323l1.566,3.298c1.335,0.052,2.638,0.284,3.882,0.676l2.589-2.578l5.105,3.235l-1.225,3.442
									c0.886,0.957,1.653,2.037,2.269,3.222l3.652,0.008l1.323,5.898l-3.298,1.567c-0.053,1.334-0.284,2.638-0.676,3.882
									l2.578,2.589l-3.235,5.106l-3.442-1.225c-0.957,0.886-2.037,1.653-3.221,2.269l-0.008,3.652l-5.898,1.323l-1.566-3.299
									c-1.335-0.052-2.639-0.283-3.882-0.675l-2.589,2.577l-5.105-3.235l1.225-3.442c-0.886-0.957-1.653-2.037-2.27-3.221
									l-3.652-0.008l-1.324-5.898l3.299-1.567c0.052-1.334,0.284-2.638,0.676-3.882l-2.577-2.589l3.235-5.106l3.442,1.225
									C255.271,252.543,256.352,251.777,257.535,251.16L257.535,251.16z M257.827,265.846c0.784,3.494,4.251,5.691,7.746,4.908
									c3.494-0.784,5.691-4.252,4.908-7.746c-0.784-3.495-4.252-5.691-7.746-4.908
									C259.241,258.884,257.044,262.351,257.827,265.846z"/>
							</g>
						</g>
					</g>
					<g>
						<g>
							<g>
								<path style="fill-rule:evenodd;clip-rule:evenodd;fill:#D4A5CF;" d="M91.438,135.268l0.007-2.899l4.682-1.05l1.243,2.618
									c1.06,0.041,2.095,0.225,3.082,0.537l2.055-2.047l4.053,2.568l-0.973,2.732c0.704,0.76,1.313,1.617,1.802,2.557l2.899,0.006
									l1.05,4.682l-2.618,1.244c-0.042,1.059-0.225,2.094-0.537,3.082l2.047,2.055l-2.568,4.053l-2.733-0.973
									c-0.76,0.703-1.617,1.312-2.557,1.801l-0.006,2.899l-4.682,1.05l-1.243-2.619c-1.06-0.041-2.095-0.225-3.082-0.536
									l-2.055,2.046l-4.053-2.568l0.973-2.732c-0.704-0.76-1.313-1.617-1.802-2.557l-2.899-0.006l-1.051-4.682l2.619-1.244
									c0.041-1.059,0.225-2.095,0.537-3.082l-2.046-2.055l2.568-4.053l2.732,0.973C89.641,136.365,90.498,135.757,91.438,135.268
									L91.438,135.268z M91.67,146.926c0.622,2.774,3.375,4.518,6.149,3.896c2.773-0.622,4.518-3.375,3.896-6.149
									c-0.622-2.774-3.376-4.518-6.149-3.896C92.792,141.399,91.048,144.152,91.67,146.926z"/>
							</g>
						</g>
					</g>
					<g>
						<g>
							<g>
								<path style="fill-rule:evenodd;clip-rule:evenodd;fill:none;stroke:#D4A5CF;stroke-miterlimit:10;" d="M67.816,172.795
									l-0.209-6.011l9.626-2.537l2.779,5.333c2.2,0.004,4.36,0.306,6.432,0.876l4.104-4.401l8.6,5.013l-1.807,5.74
									c1.517,1.521,2.846,3.253,3.932,5.164l6.011-0.21l2.537,9.627l-5.333,2.78c-0.005,2.2-0.306,4.359-0.876,6.431l4.402,4.104
									l-5.013,8.602l-5.741-1.807c-1.522,1.517-3.252,2.845-5.163,3.932l0.21,6.012l-9.628,2.537l-2.779-5.335
									c-2.2-0.004-4.36-0.305-6.432-0.875l-4.104,4.4l-8.6-5.012l1.806-5.74c-1.517-1.521-2.846-3.252-3.932-5.163l-6.011,0.21
									l-2.538-9.627l5.334-2.78c0.004-2.199,0.306-4.36,0.876-6.431l-4.4-4.104l5.013-8.601l5.74,1.807
									C64.174,175.21,65.906,173.882,67.816,172.795L67.816,172.795z M69.193,196.95c1.503,5.703,7.345,9.108,13.049,7.605
									c5.703-1.503,9.108-7.345,7.605-13.049c-1.503-5.704-7.346-9.108-13.049-7.605C71.094,185.404,67.69,191.246,69.193,196.95z
									"/>
							</g>
						</g>
					</g>
				</g>
				<g>
					<g>
						<g>
							<g>
								<g>
									<path style="fill:#D4A5CF;" d="M471.102,253.678c-11.636-1.344-22.35,2.337-29.537,11.817
										c-3.638,4.8-5.647,10.156-7.92,15.652c-1.075,2.598-2.359,5.129-3.534,7.683c-3.374,7.335-6.776,14.657-10.122,22.005
										c-1.839,4.038-3.294,7.972-6.111,11.492c-3.296,4.119-7.641,7.322-12.539,9.277c-21.486,8.573-47.526-4.686-59.882-22.524
										c-6.486-9.364-15.551-16.219-26.813-18.875c-10.625-2.506-22.039-1.088-31.716,3.969
										c-9.166,4.79-16.137,12.653-20.32,22.057c-3.216,7.231-6.412,14.47-9.617,21.705c-3.129,7.062-5.89,14.426-10.9,20.424
										c-6.904,8.266-16.816,13.586-27.483,14.965c-10.383,1.342-21.161-0.997-29.952-6.711
										c-8.304-5.398-14.207-13.567-17.369-22.895c-5.058-14.922-10.04-29.87-15.059-44.805c-2.058-6.124-3.894-12.42-6.81-18.203
										c-4.978-9.874-13.259-18.179-24.551-19.916c-11.867-1.826-23.745,3.24-33.524,9.538
										c-6.715,4.325-12.872,9.504-18.575,15.083c-4.191,4.1-7.727,8.27-13.625,9.806c-7.298,1.901-14.82-0.579-21.27-3.975
										c-0.853-0.449-1.612,0.845-0.757,1.295c10.48,5.519,23.151,7.388,32.278-1.569c11.025-10.82,22.604-21.653,37.548-26.726
										c10.944-3.715,22.952-3.163,31.921,4.761c6.998,6.183,10.703,14.79,13.615,23.454c5.297,15.759,10.593,31.517,15.89,47.276
										c2.198,6.54,4.56,12.839,8.862,18.37c6.324,8.13,15.462,13.774,25.508,15.986c9.834,2.165,20.29,1.093,29.428-3.16
										c9.813-4.567,17.402-12.708,21.816-22.534c2.913-6.482,5.758-12.995,8.637-19.492c3.036-6.852,5.69-14.307,10.074-20.438
										c14.041-19.64,42.963-23.763,62.011-8.982c2.424,1.881,4.639,4.027,6.617,6.37c1.824,2.16,3.198,4.377,4.935,6.605
										c3.654,4.686,7.998,8.801,12.837,12.246c9.019,6.421,19.955,10.614,31.086,10.917c9.921,0.27,19.941-2.878,26.922-10.152
										c5.423-5.65,7.882-13.24,11.098-20.231c3.464-7.531,6.929-15.063,10.393-22.594c2.046-4.448,3.48-9.038,6.092-13.237
										c3.156-5.073,7.427-9.477,12.9-12.014c5.479-2.54,11.587-2.905,17.512-2.221
										C472.059,255.288,472.051,253.787,471.102,253.678L471.102,253.678z"/>
								</g>
							</g>
						</g>
					</g>
					<g>
						<path style="fill:#D4A5CF;" d="M311.018,289.963c0,3.059-2.48,5.538-5.539,5.538s-5.538-2.48-5.538-5.538
							s2.48-5.538,5.538-5.538S311.018,286.904,311.018,289.963z"/>
						<path style="fill:#D4A5CF;" d="M371.468,329.193c0,3.059-2.48,5.538-5.539,5.538s-5.538-2.48-5.538-5.538
							s2.48-5.538,5.538-5.538S371.468,326.134,371.468,329.193z"/>
						<path style="fill:#D4A5CF;" d="M424.898,314.704c0,3.059-2.48,5.539-5.538,5.539s-5.538-2.48-5.538-5.539
							s2.48-5.538,5.538-5.538S424.898,311.645,424.898,314.704z"/>
						<path style="fill:#D4A5CF;" d="M441.971,276.704c0,3.059-2.48,5.539-5.539,5.539s-5.538-2.48-5.538-5.539
							s2.48-5.538,5.538-5.538S441.971,273.645,441.971,276.704z"/>
						<path style="fill:#D4A5CF;" d="M238.443,366.74c0,3.059-2.48,5.539-5.538,5.539c-3.059,0-5.538-2.48-5.538-5.539
							c0-3.059,2.48-5.538,5.538-5.538C235.964,361.202,238.443,363.682,238.443,366.74z"/>
						<path style="fill:#D4A5CF;" d="M270.191,314.704c0,3.059-2.48,5.539-5.538,5.539c-3.059,0-5.539-2.48-5.539-5.539
							s2.48-5.538,5.539-5.538C267.712,309.166,270.191,311.645,270.191,314.704z"/>
						<path style="fill:#D4A5CF;" d="M81.746,278.886c0,3.059-2.48,5.539-5.538,5.539s-5.538-2.48-5.538-5.539
							s2.48-5.538,5.538-5.538S81.746,275.827,81.746,278.886z"/>
					</g>
				</g>
				<g>
					
						<ellipse transform="matrix(0.2145 -0.9767 0.9767 0.2145 -289.1678 391.6664)" style="fill:#D4A5CF;" cx="98.925" cy="375.616" rx="19.605" ry="11.738"/>
					<path style="fill:#D4A5CF;" d="M45.206,416.867c-1.349,5.374,5.855,11.815,16.092,14.385
						c10.237,2.57,19.629,0.297,20.978-5.078c1.349-5.374-5.855-11.815-16.092-14.385C55.947,409.219,46.555,411.492,45.206,416.867
						z"/>
					<path style="fill:#D4A5CF;" d="M28.18,375.07c-2.599,5.954,3.482,14.355,13.583,18.765c10.101,4.41,20.397,3.158,22.996-2.796
						c2.599-5.954-3.482-14.356-13.583-18.765C41.075,367.865,30.78,369.116,28.18,375.07z"/>
					
						<ellipse transform="matrix(0.9039 -0.4277 0.4277 0.9039 -137.7274 54.3619)" style="fill:#D4A5CF;" cx="52.138" cy="333.743" rx="17.325" ry="30.664"/>
					<g>
						<line style="fill:none;stroke:#FFFFFF;stroke-miterlimit:10;" x1="104.151" y1="446.147" x2="41.171" y2="305.168"/>
						<line style="fill:none;stroke:#FFFFFF;stroke-miterlimit:10;" x1="102.791" y1="356.261" x2="90.025" y2="414.526"/>
						<line style="fill:none;stroke:#FFFFFF;stroke-miterlimit:10;" x1="96.932" y1="429.988" x2="45.427" y2="417.778"/>
						<line style="fill:none;stroke:#FFFFFF;stroke-miterlimit:10;" x1="82.701" y1="398.132" x2="28.092" y2="375.349"/>
						<g>
							<line style="fill:none;stroke:#FFFFFF;stroke-miterlimit:10;" x1="62.807" y1="353.6" x2="40.433" y2="348.121"/>
							<line style="fill:none;stroke:#FFFFFF;stroke-miterlimit:10;" x1="56.52" y1="338.967" x2="33.497" y2="333.329"/>
							<line style="fill:none;stroke:#FFFFFF;stroke-miterlimit:10;" x1="49.265" y1="323.403" x2="31.813" y2="319.129"/>
						</g>
					</g>
				</g>
			</g>
		</g>
		<g>
			<g>
				<g>
					<path style="fill:#FFFFFF;stroke:#010001;stroke-miterlimit:10;" d="M413.493,264.427H171.301
						c-6.558,0-11.875-5.317-11.875-11.875V87.009c0-6.559,5.317-11.875,11.875-11.875h242.193c6.558,0,11.875,5.317,11.875,11.875
						v165.542C425.369,259.11,420.052,264.427,413.493,264.427z"/>
					<path style="fill:#BFBCC0;stroke:#010001;stroke-miterlimit:10;" d="M416.074,75.134H168.72c-5.133,0-9.294,4.692-9.294,10.48
						v5.238h265.943v-5.238C425.369,79.826,421.207,75.134,416.074,75.134z"/>
					<g>
						<ellipse style="fill:none;stroke:#010001;stroke-miterlimit:10;" cx="169.427" cy="82.993" rx="3.283" ry="3.303"/>
						<ellipse style="fill:none;stroke:#010001;stroke-miterlimit:10;" cx="181.81" cy="82.993" rx="3.283" ry="3.303"/>
						<ellipse style="fill:none;stroke:#010001;stroke-miterlimit:10;" cx="194.193" cy="82.993" rx="3.283" ry="3.303"/>
					</g>
				</g>
				<g>
					<g>
						<path style="fill:#958F99;" d="M180.883,107.098h126.402c1.328,0,2.404-1.076,2.404-2.404l0,0
							c0-1.328-1.077-2.404-2.404-2.404H180.883c-1.328,0-2.404,1.076-2.404,2.404l0,0
							C178.479,106.021,179.555,107.098,180.883,107.098z"/>
						<g>
							<path style="fill:#BFBCC0;" d="M184.373,113.928H273.8c0.629,0,1.139-0.51,1.139-1.138l0,0c0-0.629-0.51-1.139-1.139-1.139
								h-89.428c-0.629,0-1.138,0.51-1.138,1.139l0,0C183.234,113.419,183.744,113.928,184.373,113.928z"/>
							<path style="fill:#BFBCC0;" d="M184.373,119.546h104.596c0.629,0,1.138-0.51,1.138-1.138l0,0c0-0.629-0.51-1.139-1.138-1.139
								H184.373c-0.629,0-1.138,0.51-1.138,1.139l0,0C183.234,119.036,183.744,119.546,184.373,119.546z"/>
							<path style="fill:#BFBCC0;" d="M184.373,125.163h58.573c0.629,0,1.139-0.51,1.139-1.138l0,0c0-0.629-0.51-1.139-1.139-1.139
								h-58.573c-0.629,0-1.138,0.51-1.138,1.139l0,0C183.234,124.654,183.744,125.163,184.373,125.163z"/>
						</g>
					</g>
					<g>
						<g>
							<path style="fill:#6348ED;stroke:#010001;stroke-linecap:round;stroke-miterlimit:10;" d="M381.541,122.957
								c-13.248,0-24.005,10.64-24.208,23.84l11.078,1.688c-0.043-0.431-0.066-0.868-0.066-1.311
								c0-7.288,5.908-13.195,13.196-13.195c3.801,0,7.217,1.617,9.625,4.189l6.427-9.119
								C393.32,125.261,387.701,122.957,381.541,122.957z"/>
							<path style="fill:#F19101;stroke:#010001;stroke-linecap:round;stroke-miterlimit:10;" d="M381.541,171.392
								c13.375,0,24.217-10.842,24.217-24.217c0-5.768-2.02-11.063-5.387-15.222l-7.355,8.722c1.09,1.92,1.72,4.135,1.72,6.5
								c0,7.288-5.908,13.196-13.195,13.196c-5.74,0-10.61-3.671-12.425-8.788c-3.148-0.264-8.01-0.678-11.549-1.004
								C359.221,162.34,369.322,171.392,381.541,171.392z"/>
						</g>
						<g>
							<path style="fill:#F19101;stroke:#010001;stroke-linecap:round;stroke-miterlimit:10;" d="M405.747,208.774
								c0.005-0.2,0.015-0.398,0.015-0.599c0-11.691-8.285-21.447-19.305-23.718l-2.351,10.775
								c6.061,1.193,10.634,6.532,10.634,12.942c0,0.058-0.008,0.113-0.009,0.171L405.747,208.774z"/>
							<path style="fill:#6348ED;stroke:#010001;stroke-linecap:round;stroke-miterlimit:10;" d="M405.369,212.506h-11.37
								c-1.794,5.157-6.685,8.864-12.453,8.864c-7.288,0-13.195-5.908-13.195-13.196c0-7.125,5.651-12.916,12.714-13.171
								l2.097-10.986c-0.535-0.035-1.072-0.059-1.615-0.059c-13.375,0-24.217,10.842-24.217,24.217
								c0,13.375,10.842,24.217,24.217,24.217C393.441,232.392,403.326,223.813,405.369,212.506z"/>
						</g>
					</g>
					<g>
						
							<line style="fill:none;stroke:#010001;stroke-linecap:round;stroke-miterlimit:10;" x1="163.505" y1="240.812" x2="360.391" y2="240.812"/>
						<g>
							
								<rect x="322.009" y="122.957" style="fill:#958F99;stroke:#010001;stroke-linecap:round;stroke-miterlimit:10;" width="21.719" height="117.855"/>
							
								<rect x="262.819" y="180.523" style="fill:#958F99;stroke:#010001;stroke-linecap:round;stroke-miterlimit:10;" width="21.719" height="60.289"/>
							
								<rect x="292.414" y="159.494" style="fill:#BFBCC0;stroke:#010001;stroke-linecap:round;stroke-miterlimit:10;" width="21.719" height="81.318"/>
							
								<rect x="203.629" y="144.157" style="fill:#958F99;stroke:#010001;stroke-linecap:round;stroke-miterlimit:10;" width="21.719" height="96.656"/>
							
								<rect x="174.034" y="215.969" style="fill:#BFBCC0;stroke:#010001;stroke-linecap:round;stroke-miterlimit:10;" width="21.719" height="24.843"/>
							
								<rect x="233.224" y="195.264" style="fill:#BFBCC0;stroke:#010001;stroke-linecap:round;stroke-miterlimit:10;" width="21.719" height="45.548"/>
						</g>
					</g>
					<g>
						<polyline style="fill:none;stroke:#010001;stroke-miterlimit:10;" points="178.527,179.447 200.684,137.405 227.583,137.405 
							246.004,184.288 263.878,149.806 273.679,163.966 310.584,125.619 						"/>
						<g>
							<path style="fill:#010001;" d="M266.605,149.806c0,1.506-1.221,2.727-2.727,2.727c-1.506,0-2.727-1.221-2.727-2.727
								c0-1.506,1.221-2.727,2.727-2.727C265.384,147.079,266.605,148.3,266.605,149.806z"/>
							<path style="fill:#010001;" d="M276.406,164.304c0,1.506-1.221,2.727-2.727,2.727c-1.506,0-2.727-1.221-2.727-2.727
								s1.221-2.727,2.727-2.727C275.185,161.577,276.406,162.798,276.406,164.304z"/>
							<path style="fill:#010001;" d="M248.551,184.288c0,1.506-1.221,2.727-2.727,2.727c-1.506,0-2.727-1.221-2.727-2.727
								c0-1.506,1.221-2.727,2.727-2.727C247.33,181.561,248.551,182.781,248.551,184.288z"/>
							<path style="fill:#010001;" d="M230.429,137.405c0,1.506-1.221,2.727-2.727,2.727c-1.506,0-2.727-1.221-2.727-2.727
								c0-1.506,1.221-2.727,2.727-2.727C229.208,134.678,230.429,135.899,230.429,137.405z"/>
							<path style="fill:#010001;" d="M203.629,137.036c0,1.506-1.221,2.727-2.727,2.727c-1.506,0-2.727-1.221-2.727-2.727
								c0-1.506,1.221-2.727,2.727-2.727C202.408,134.309,203.629,135.529,203.629,137.036z"/>
						</g>
						<polygon style="fill:#010001;" points="307.109,123.522 313.136,128.265 320.792,114.668 						"/>
					</g>
				</g>
			</g>
			<g>
				<g>
					<g>
						<path style="fill:#FFFFFF;" d="M241.852,150.332l-14.107-7.587l8.658-13.502c0,0,2.403-6.054,3.487-7.853
							c1.084-1.798,2.632-3.013,3.364-2.7c0.732,0.313,1.329,0.88,1.248,2.65c-0.081,1.769-0.256,2.494-0.256,2.494
							s5.11-7.293,6.443-8.436c1.333-1.143,2.649-1.481,3.157-1.239c0.508,0.242-0.554,2.631-0.554,2.631s1.983-2.05,2.877-2.129
							c0.895-0.079,1.567,0.949,1.429,1.661c0,0,1.814-1.315,2.14-0.162c0.326,1.154-0.609,3.79-0.609,3.79s2.051-1.895,2.718-0.051
							c0.666,1.845-6.575,10.478-7.621,11.808c-1.046,1.33-9.712,13.779-9.712,13.779L241.852,150.332z"/>
						<g>
							<path style="fill:none;stroke:#010001;stroke-linecap:round;stroke-miterlimit:10;" d="M254.035,125.397
								c4.07-5.391,7.651-7.837,7.813-5.497c0.162,2.339-8.572,12.993-11.402,16.577c-2.83,3.584-8.862,13.899-8.862,13.899
								l-13.882-7.899l1.086-2.044c0,0,6.17-8.566,8.86-14.377c2.69-5.811,4.809-8.337,6.338-7.053
								c1.529,1.284-1.693,6.684-1.108,9.54c0.585,2.857,0.379,4.98-0.164,6.388"/>
							<path style="fill:none;stroke:#010001;stroke-linecap:round;stroke-miterlimit:10;" d="M258.812,120.198
								c0,0,2.463-4.662-0.124-4.547c-1.37,0.061-5.224,5.979-6.684,7.871"/>
							<path style="fill:none;stroke:#010001;stroke-linecap:round;stroke-miterlimit:10;" d="M257.256,116.656
								c0,0,0.241-1.68-0.624-1.936c-0.963-0.284-2.536,0.586-3.834,2.847c-2.464,4.293-2.758,4.737-2.758,4.737"/>
							<path style="fill:none;stroke:#010001;stroke-linecap:round;stroke-miterlimit:10;" d="M254.067,115.852
								c0,0,0.674-2.338-1.443-1.885c-2.117,0.453-9.228,10.569-9.228,10.569"/>
						</g>
					</g>
					<g>
						<path style="fill:#6348ED;" d="M167.074,155.556c0,0,16.729,12.87,29.762,7.268c13.034-5.602,29.189-28.166,29.189-28.166
							l20.539,14.009c0,0-5.871,46.187-33.49,54.638c-27.619,8.451-34.5,1.528-34.5,1.528l-12.12-4.14L167.074,155.556z"/>
						<g>
							<path style="fill:#6348ED;stroke:#010001;stroke-linecap:round;stroke-miterlimit:10;" d="M226.025,134.659l20.539,14.009
								c0,0-0.399,3.131-1.474,7.908l-23.491-16.164C224.328,137.027,226.025,134.659,226.025,134.659z"/>
							<path style="fill:#010001;" d="M227.729,138.735c0.038,0.771-0.556,1.428-1.328,1.466c-0.772,0.038-1.428-0.556-1.466-1.328
								c-0.038-0.772,0.556-1.428,1.328-1.466C227.034,137.369,227.69,137.963,227.729,138.735z"/>
						</g>
						<path style="fill:none;stroke:#010001;stroke-linecap:round;stroke-miterlimit:10;" d="M226.025,134.659l20.539,14.009
							c0,0-5.871,46.187-33.49,54.638c-27.619,8.451-34.5,1.528-34.5,1.528l-12.12-4.14l0.62-45.139c0,0,9.234,7.104,19.325,8.459"
							/>
					</g>
				</g>
				<g>
					<g>
						<g>
							<g>
								<path style="fill:#6348ED;" d="M126.258,201.642l-0.981,0.495l0.671-0.338l-0.131-1.148l-1.237-10.839l15.925-34.051
									c0,0-18.88,4.703-26.725,18.968c-7.845,14.265-19.9,43.047-7.436,58.999c7.852,10.049,23.213,10.612,35.646,1.146
									L126.258,201.642z"/>
							</g>
							<g>
								<path style="fill:none;stroke:#010001;stroke-linecap:round;stroke-miterlimit:10;" d="M118.337,168.524
									c8.912-9.462,22.167-12.763,22.167-12.763"/>
								<path style="fill:none;stroke:#010001;stroke-linecap:round;stroke-miterlimit:10;" d="M124.579,189.812l1.368,11.986
									l16.042,33.076c-12.578,10.049-27.647,9.092-35.646-1.146c-3.535-4.524-5.097-10.079-5.343-16.042"/>
							</g>
						</g>
					</g>
					<g>
						<g>
							<g>
								<polygon style="fill:#FFFFFF;stroke:#010001;stroke-miterlimit:10;" points="199.337,391.389 207.741,425.645 
									185.452,427.689 177.633,393.975 								"/>
								<g>
									<polygon style="fill:#FFFFFF;stroke:#010001;stroke-miterlimit:10;" points="212.298,418.892 177.104,421.002 
										181.38,446.08 241.378,445.785 218.52,432.893 									"/>
									<g>
										
											<line style="fill:none;stroke:#010001;stroke-linecap:round;stroke-miterlimit:10;" x1="228.62" y1="436.743" x2="223.388" y2="440.129"/>
										
											<line style="fill:none;stroke:#010001;stroke-linecap:round;stroke-miterlimit:10;" x1="224.498" y1="433.358" x2="219.266" y2="436.743"/>
									</g>
									<path style="fill:#6348ED;stroke:#010001;stroke-miterlimit:10;" d="M181.38,446.08l-2.273-13.33
										c0.967-0.166,1.96-0.264,2.979-0.264c8.414,0,15.338,5.907,16.28,13.511L181.38,446.08z"/>
								</g>
							</g>
							<g>
								<polygon style="fill:#FFFFFF;stroke:#010001;stroke-miterlimit:10;" points="137.041,392.062 137.379,427.332 
									115.215,424.218 115.322,389.61 								"/>
								<g>
									<polygon style="fill:#FFFFFF;stroke:#010001;stroke-miterlimit:10;" points="144.24,420.087 109.963,420.85 107.38,446.08 
										167.378,445.785 144.52,432.893 									"/>
									<g>
										
											<line style="fill:none;stroke:#010001;stroke-linecap:round;stroke-miterlimit:10;" x1="154.62" y1="436.743" x2="149.388" y2="440.129"/>
										
											<line style="fill:none;stroke:#010001;stroke-linecap:round;stroke-miterlimit:10;" x1="150.498" y1="433.358" x2="145.266" y2="436.743"/>
									</g>
									<path style="fill:#6348ED;stroke:#010001;stroke-miterlimit:10;" d="M107.38,446.08l1.338-13.069
										c0,0,13.965-0.525,15.648,12.986L107.38,446.08z"/>
								</g>
							</g>
						</g>
						<g>
							<path style="fill:#FFFFFF;" d="M119.813,254.132c0,0,44.776,0.811,57.995,2.24c13.218,1.429-2.692-31.689-2.692-31.689
								h-42.656L119.813,254.132z"/>
							<g>
								<g>
									<polygon style="fill:#F19101;" points="148.096,275.709 170.567,411.887 217.619,408.098 185.224,245.594 141.989,245.594 
																			"/>
									<polyline style="fill:none;stroke:#010001;stroke-linecap:round;stroke-miterlimit:10;" points="148.277,276.704 
										170.567,411.887 217.619,408.098 									"/>
								</g>
								<g>
									<polyline style="fill:none;stroke:#3A4A36;stroke-width:0.25;stroke-miterlimit:10;" points="162.357,271.176 
										155.029,271.811 150.679,330.322 									"/>
									<polygon style="fill:#F19101;" points="162.357,271.176 155.029,271.811 148.277,409.621 99.478,408.951 119.874,257.199 
										122.064,242.85 172.246,229.14 									"/>
									<polyline style="fill:none;stroke:#010001;stroke-linecap:round;stroke-miterlimit:10;" points="162.357,271.176 
										155.029,271.811 148.277,409.621 99.478,408.951 									"/>
								</g>
							</g>
						</g>
					</g>
					<g>
						<g>
							<path style="fill:#FFFFFF;" d="M142.248,177.454c0,0-1.715-14.378-1-18.55c0.715-4.172,3.001-9.03,6.645-9.245
								c3.644-0.214,12.79,0.071,14.505,2.429s5.073,5.573,3.858,14.004c-1.215,8.431-6.431,39.275-6.431,39.275l-3.734,9.026
								h-6.622L142.248,177.454z"/>
							<g>
								<g>
									
										<line style="fill:none;stroke:#010001;stroke-linecap:round;stroke-miterlimit:10;" x1="153.763" y1="152.913" x2="153.222" y2="235.312"/>
								</g>
								<g>
									<path style="fill:#010001;" d="M151.807,168.987c0,0.691-0.56,1.25-1.25,1.25c-0.691,0-1.25-0.56-1.25-1.25
										s0.56-1.25,1.25-1.25C151.247,167.737,151.807,168.296,151.807,168.987z"/>
									<path style="fill:#010001;" d="M151.347,180.697c0,0.691-0.56,1.25-1.25,1.25c-0.691,0-1.25-0.56-1.25-1.25
										c0-0.691,0.56-1.25,1.25-1.25C150.787,179.447,151.347,180.007,151.347,180.697z"/>
									<path style="fill:#010001;" d="M151.807,192.407c0,0.691-0.56,1.25-1.25,1.25c-0.691,0-1.25-0.56-1.25-1.25
										c0-0.691,0.56-1.25,1.25-1.25C151.247,191.157,151.807,191.717,151.807,192.407z"/>
									<path style="fill:#010001;" d="M151.807,204.118c0,0.691-0.56,1.25-1.25,1.25c-0.691,0-1.25-0.56-1.25-1.25
										c0-0.691,0.56-1.25,1.25-1.25C151.247,202.867,151.807,203.427,151.807,204.118z"/>
								</g>
							</g>
						</g>
						<g>
							<path style="fill:#6348ED;" d="M149.47,220.569l2.166,0.469c0,0-5.556-34.404-6.257-38.583
								c-0.702-4.18-2.611-28.823,0.916-30.22c3.527-1.397,12.964-0.647,12.964-0.647s3.638,1.271,4.067,9.906
								c0.429,8.635-10.199,60.455-10.199,60.455l3.426-0.706l20.55-48.22l-5.502-4.644l3.674-1.26c0,0-1.163-6.398-4.434-9.738
								c-3.271-3.34-9.119-8.042-12.339-9.008c-3.22-0.965-11.004-1.883-16.943,3.493c-5.939,5.376-10.234,9.242-10.713,15.253
								l3.898,1.26l-5.502,4.644l11.554,27.539L149.47,220.569z"/>
							<path style="fill:none;stroke:#010001;stroke-linecap:round;stroke-miterlimit:10;" d="M150.128,221.95
								c-4.195-8.735-20.884-48.926-20.884-48.926l5.502-4.644l-3.898-1.26c2.247-12.549,16.045-18.317,16.045-18.317h12.563
								c0,0,13.799,5.768,16.045,18.317l-3.898,1.26l5.502,4.644c0,0-16.689,40.191-20.884,48.926"/>
						</g>
					</g>
					<g>
						<g>
							<g>
								<path style="fill:#6348ED;" d="M104.635,269.983c21.287,3.009,30.827-0.143,35.838-4.231
									c5.011-4.088,16.045-42.532,16.045-42.532l-37.456,7.036c0,0-5.771,12.861-8.658,21.493
									C108.807,256.523,104.635,269.983,104.635,269.983z"/>
							</g>
							<path style="fill:none;stroke:#010001;stroke-linecap:round;stroke-miterlimit:10;" d="M156.518,223.22
								c0,0-11.034,38.444-16.045,42.532c-5.011,4.088-14.551,7.24-35.838,4.231"/>
						</g>
						<g>
							<path style="fill:#6348ED;" d="M193.763,251.749c-2.79-8.632-10.817-30.751-10.817-30.751l-0.023,0.001L179.24,211
								l5.974-18.94l-5.716-2.76l-27.692,15.361l-2.269,17.514l-0.691,0.024c0,0,11.014,39.466,15.857,43.554
								c4.843,4.088,14.062,7.24,34.634,4.231C199.337,269.983,195.306,256.523,193.763,251.749z"/>
							<path style="fill:none;stroke:#010001;stroke-linecap:round;stroke-miterlimit:10;" d="M148.846,222.198
								c0,0,11.014,39.466,15.857,43.554c4.843,4.088,14.062,7.24,34.634,4.231l-4.929-16.197l-12.055-34.483L179.24,211
								l5.838-17.84"/>
						</g>
					</g>
					<g>
						<g>
							<path style="fill:#010001;" d="M170.374,221.384l-29.073,10.715c-2.811,1.036-5.93-0.403-6.966-3.214l-15.397-41.775
								c-1.036-2.811,0.403-5.93,3.214-6.966l29.073-10.715c2.811-1.036,5.93,0.403,6.966,3.214l15.397,41.775
								C174.624,217.229,173.185,220.348,170.374,221.384z"/>
							<g>
								<path style="fill:#BFBCC0;" d="M145.123,176.369l-13.824,5.095c-1.543,0.569-3.255-0.221-3.823-1.764l0,0
									c-0.569-1.543,0.221-3.255,1.764-3.823l13.825-5.095c1.543-0.569,3.255,0.221,3.823,1.764l0,0
									C147.456,174.089,146.666,175.801,145.123,176.369z"/>
								<path style="fill:#BFBCC0;" d="M134.68,169.338c-2.383,0.878-3.604,3.523-2.725,5.906c0.878,2.383,3.523,3.604,5.906,2.725
									c2.383-0.878,3.604-3.523,2.725-5.906C139.708,169.68,137.064,168.46,134.68,169.338z M137.14,176.01
									c-1.301,0.48-2.745-0.186-3.225-1.488c-0.48-1.302,0.186-2.745,1.488-3.225c1.302-0.48,2.745,0.186,3.225,1.488
									C139.107,174.087,138.441,175.531,137.14,176.01z"/>
							</g>
						</g>
						<g>
							<g>
								<path style="fill:#FFFFFF;" d="M147.576,215.707c0,0,22.628-22.178,23.959-28.596c1.117-5.382-8.38,6.672-8.38,6.672
									s7.584-7.927,6.288-9.886c-1.296-1.959-8.881,7.867-8.881,7.867s8.172-9.651,6.642-10.905
									c-1.53-1.254-9.223,9.029-9.223,9.029s8.416-9.727,6.656-11.234c-1.759-1.507-9.55,9.025-9.55,9.025s4.057-7.12,2.294-7.648
									c-1.762-0.529-9.076,14.554-19.227,23.528C132.341,208.697,147.576,215.707,147.576,215.707z"/>
								<g>
									<g>
										<g>
											<path style="fill:#0F110E;" d="M158.828,189.464c2.266-2.556,4.809-5.464,6.047-8.697
												c0.258-0.673,0.603-1.715-0.011-2.312c-0.483-0.469-1.205-0.33-1.755-0.087c-2.058,0.909-3.704,3.123-5.096,4.803
												c-1.068,1.29-2.099,2.619-3.067,3.986c0.216,0.126,0.432,0.252,0.648,0.379c0.52-0.933,1.009-1.886,1.467-2.851
												c0.533-1.124,1.303-2.495,1.323-3.772c0.019-1.268-0.934-1.597-1.885-0.914c-1.198,0.861-2.052,2.368-2.903,3.555
												c-2.051,2.863-4.002,5.789-5.993,8.692c-1.704,2.484-3.819,4.734-5.809,6.986c-1.953,2.21-3.888,4.48-5.997,6.546
												c-0.345,0.338,0.185,0.869,0.53,0.53c3.626-3.554,6.982-7.513,10.192-11.44c1.517-1.856,2.781-3.865,4.14-5.837
												c1.01-1.467,2.034-2.924,3.068-4.375c0.853-1.198,1.671-2.578,2.723-3.613c0.46-0.453,1.102-0.915,1.173-0.02
												c0.022,0.275-0.139,0.652-0.222,0.909c-0.261,0.816-0.621,1.601-0.987,2.374c-0.458,0.965-0.947,1.918-1.467,2.851
												c-0.239,0.428,0.372,0.767,0.648,0.379c1.88-2.654,3.938-5.398,6.42-7.517c0.444-0.379,1.319-1.207,1.981-1.131
												c1.007,0.116,0.102,1.841-0.131,2.32c-1.378,2.837-3.488,5.381-5.566,7.726
												C157.979,189.294,158.507,189.827,158.828,189.464L158.828,189.464z"/>
										</g>
									</g>
									<g>
										<g>
											<path style="fill:#0F110E;" d="M161.248,191.495c1.59-1.833,3.13-3.719,4.573-5.67c0.786-1.063,1.682-2.192,2.143-3.446
												c0.328-0.892,0.151-2.136-0.993-2.225c-0.714-0.055-1.42,0.348-1.973,0.755c-1.068,0.786-1.916,1.831-2.682,2.903
												c-0.281,0.394,0.369,0.769,0.648,0.379c0.656-0.919,1.386-1.822,2.275-2.528c0.427-0.34,0.978-0.73,1.544-0.763
												c0.835-0.049,0.606,0.986,0.353,1.519c-0.541,1.141-1.332,2.18-2.083,3.188c-0.878,1.178-1.798,2.324-2.734,3.457
												c-0.528,0.639-1.06,1.274-1.603,1.9C160.403,191.327,160.931,191.86,161.248,191.495L161.248,191.495z"/>
										</g>
									</g>
									<g>
										<g>
											<path style="fill:#0F110E;" d="M164.374,193.014c0.875-0.981,1.703-2.009,2.507-3.048
												c1.063-1.375,2.223-2.826,2.864-4.459c0.24-0.612,0.479-1.552-0.027-2.103c-0.487-0.53-1.282-0.278-1.83,0
												c-1.442,0.73-2.613,2.066-3.647,3.27c-0.313,0.365,0.215,0.897,0.53,0.53c0.895-1.042,1.857-2.113,3.014-2.871
												c0.3-0.196,0.62-0.385,0.972-0.467c0.107-0.025,0.153-0.037,0.282-0.021c0.025,0.003,0.11,0.05,0.107,0.046
												c0.037,0.048,0.053,0.053,0.074,0.116c0.046,0.138,0.04,0.158,0.038,0.307c-0.005,0.352-0.121,0.715-0.256,1.041
												c-0.61,1.467-1.661,2.792-2.622,4.042c-0.811,1.054-1.652,2.094-2.537,3.087
												C163.523,192.843,164.052,193.375,164.374,193.014L164.374,193.014z"/>
										</g>
									</g>
									<g>
										<g>
											<path style="fill:#0F110E;" d="M167.533,189.104c0.6-0.758,3.055-4.141,3.812-3.164c0.45,0.58,0.004,1.657-0.219,2.234
												c-0.821,2.133-2.245,4.074-3.592,5.895c-1.487,2.01-3.203,3.79-4.899,5.624c-2.654,2.872-5.322,5.732-8.022,8.56
												c-2.284,2.392-4.551,5.157-7.228,7.13c-0.385,0.283-0.011,0.934,0.379,0.648c2.498-1.84,4.614-4.361,6.75-6.589
												c3.039-3.169,6.032-6.382,9.011-9.607c2.092-2.266,4.059-4.448,5.813-7.006c1.103-1.608,2.335-3.402,2.793-5.334
												c0.158-0.668,0.248-1.511-0.244-2.07c-0.239-0.271-0.601-0.451-0.967-0.434c-0.823,0.039-1.622,1-2.143,1.54
												c-0.626,0.649-1.217,1.336-1.776,2.042C166.706,188.948,167.234,189.482,167.533,189.104L167.533,189.104z"/>
										</g>
									</g>
								</g>
							</g>
							<g>
								<g>
									<path style="fill:#6348ED;" d="M159.059,207.465l-15.978-14.305l-27.135,13.68l10.001-5.042l-0.057-0.501l-0.691,0.878
										l-13.952,6.807l-3.118,26.761C121.438,249.027,148.912,241.495,159.059,207.465z"/>
								</g>
								<g>
									<path style="fill:none;stroke:#010001;stroke-linecap:round;stroke-miterlimit:10;" d="M106.343,233.728
										c12.464,15.952,42.09,9.372,52.716-26.263l-15.978-14.305l-27.135,13.68"/>
									
										<line style="fill:none;stroke:#010001;stroke-linecap:round;stroke-miterlimit:10;" x1="135.763" y1="196.85" x2="155.2" y2="217.579"/>
								</g>
								<path style="fill:#010001;" d="M143.302,197.765c0,0.822-0.667,1.489-1.489,1.489c-0.822,0-1.489-0.667-1.489-1.489
									c0-0.822,0.667-1.489,1.489-1.489C142.636,196.276,143.302,196.942,143.302,197.765z"/>
							</g>
						</g>
					</g>
				</g>
				<g>
					<path style="fill:#FFFFFF;stroke:#010001;stroke-linecap:round;stroke-miterlimit:10;" d="M154.08,158.84
						c0,0,5.814,5.015,10.173,2.251c5.965-3.784-1.268-10.991-6.231-14.106c-4.963-3.116-9.061,0-9.061,0s-9.992,6.017-8.688,11.106
						C141.578,163.178,149.902,162.885,154.08,158.84z"/>
				</g>
				<g>
					<g>
						<path style="fill:#010001;" d="M160.516,104.929c0,0-15.917-4.624-24.909,13.731c-6.903,14.091-4.81,23.947-3.465,27.767
							c0.373,1.06,1.312,1.775,2.382,1.805l37.295,1.056c1.196,0.034,2.257-0.793,2.584-2.009
							C176.501,139.47,182.225,111.847,160.516,104.929z"/>
						<g>
							<path style="fill:#FFFFFF;stroke:#010001;stroke-width:0.94;stroke-miterlimit:10;" d="M161.28,113.736l-7.369,0.374
								c-4.899,0.249-8.676,5.016-8.393,10.594l0.58,11.423c0.016,0.322,0.049,0.639,0.091,0.952
								c-0.062,0.341-0.091,0.692-0.073,1.053l0.353,6.954l0.02,0.388l0.353,6.953c0.128,2.523,2.297,4.483,4.82,4.355l2.923-0.148
								c2.523-0.128,4.483-2.297,4.355-4.82l-0.312-6.154l4.261-0.216c4.899-0.249,8.676-5.016,8.393-10.593l-0.58-11.423
								C170.419,117.848,166.179,113.488,161.28,113.736z"/>
							<g>
								<g>
									<path style="fill:#010001;" d="M156.146,127.906c0.047,0.917,0.828,1.623,1.745,1.577c0.917-0.047,1.623-0.828,1.577-1.745
										c-0.047-0.917-0.828-1.623-1.745-1.577C156.805,126.207,156.099,126.989,156.146,127.906z"/>
									<path style="fill:#010001;" d="M167.008,127.111c0.04,0.783,0.707,1.386,1.49,1.346c0.783-0.04,1.386-0.707,1.346-1.49
										c-0.04-0.783-0.707-1.386-1.49-1.346C167.571,125.661,166.968,126.328,167.008,127.111z"/>
								</g>
								<g>
									<path style="fill:#FFFFFF;" d="M165.767,133.988c0,0-0.711,2.475-2.468,2.731c-1.756,0.257-3.239-1.629-3.412-3.15
										L165.767,133.988z"/>
									<g>
										<path style="fill:#010001;" d="M165.261,133.848c-0.018,0.062-0.039,0.123-0.061,0.184
											c-0.022,0.063-0.047,0.126-0.071,0.188c-0.007,0.018-0.015,0.037-0.022,0.055c-0.028,0.07,0.035-0.081,0.004-0.007
											c-0.022,0.05-0.044,0.1-0.067,0.149c-0.207,0.447-0.453,0.862-0.782,1.2c-0.357,0.367-0.783,0.607-1.318,0.599
											c-0.626-0.009-1.181-0.366-1.601-0.806c-0.466-0.49-0.845-1.164-0.931-1.842c-0.175,0.175-0.35,0.35-0.525,0.525
											c1.713,0.122,3.426,0.244,5.139,0.366c0.247,0.018,0.493,0.035,0.74,0.053c0.674,0.048,0.671-1.002,0-1.049
											c-1.713-0.122-3.426-0.244-5.139-0.366c-0.247-0.018-0.493-0.035-0.74-0.053c-0.258-0.018-0.559,0.257-0.525,0.525
											c0.2,1.584,1.35,3.266,2.984,3.626c1.547,0.341,2.781-0.67,3.466-1.968c0.184-0.348,0.35-0.72,0.46-1.099
											C166.462,133.477,165.449,133.2,165.261,133.848z"/>
									</g>
								</g>
								<g>
									<path style="fill:#ED80A5;" d="M150.682,134.307c0.116,2.28,2.058,4.035,4.338,3.919c2.28-0.116,4.035-2.058,3.919-4.338
										c-0.116-2.28-2.058-4.035-4.338-3.919C152.321,130.085,150.567,132.027,150.682,134.307z"/>
									<path style="fill:#ED80A5;" d="M170.032,130.394c0.251-0.013,0.496,0.008,0.733,0.051l0.217,4.282
										c0.033,0.64,0.04,1.26-0.059,1.869c-0.171,0.038-0.392,0.073-0.572,0.082c-1.735,0.088-3.214-1.247-3.302-2.983
										C166.96,131.96,168.296,130.482,170.032,130.394z"/>
								</g>
							</g>
							<path style="fill:#010001;" d="M172.054,123.262c0,0-6.07-1.861-9.65-7.637c0,0-3.262,8.592-13.987,13.423
								c-14.035,6.322-7.014-10.882-3.127-15.328C149.176,109.275,169.018,103.745,172.054,123.262z"/>
							<g>
								<path style="fill:#FFFFFF;" d="M136.638,133.089c0.163,3.214,2.922,5.686,6.162,5.521c3.24-0.165,5.734-2.903,5.571-6.117
									c-0.163-3.214-2.922-5.685-6.162-5.521C138.969,127.137,136.475,129.876,136.638,133.089z"/>
								<g>
									<g>
										<path style="fill:#010001;" d="M146.363,133.399c0.007-0.504-0.095-1.036-0.256-1.511c-0.352-1.04-1.05-1.878-2.087-2.281
											c-0.782-0.305-1.64-0.278-2.455-0.151c-0.335,0.052-0.551,0.49-0.452,0.796c0.118,0.365,0.436,0.508,0.796,0.452
											c0.023-0.004,0.211-0.027,0.05-0.008c0.036-0.004,0.072-0.008,0.108-0.012c0.087-0.009,0.174-0.016,0.261-0.021
											c0.169-0.009,0.338-0.009,0.506,0.001c0.067,0.004,0.134,0.011,0.201,0.017c0.153,0.014-0.15-0.028-0.002,0
											c0.027,0.005,0.055,0.009,0.082,0.014c0.136,0.025,0.271,0.059,0.403,0.103c0.059,0.019,0.116,0.044,0.175,0.064
											c0.082,0.028-0.15-0.075-0.038-0.015c0.021,0.011,0.043,0.02,0.064,0.031c0.113,0.055,0.222,0.119,0.325,0.19
											c0.018,0.012,0.036,0.027,0.054,0.038c0.102,0.065-0.102-0.086-0.04-0.032c0.036,0.032,0.075,0.061,0.111,0.093
											c0.086,0.077,0.167,0.159,0.242,0.246c0.013,0.016,0.026,0.032,0.04,0.047c0.051,0.059,0.032,0.098-0.025-0.035
											c0.016,0.038,0.055,0.075,0.079,0.11c0.059,0.085,0.113,0.173,0.162,0.264c0.046,0.084,0.087,0.17,0.127,0.256
											c0.064,0.138-0.051-0.137-0.006-0.013c0.017,0.047,0.036,0.093,0.053,0.14c0.056,0.159,0.103,0.322,0.14,0.487
											c0.016,0.073,0.031,0.147,0.044,0.221c0.006,0.034,0.011,0.068,0.017,0.103c0.025,0.153-0.015-0.132-0.007-0.057
											c0.017,0.154,0.035,0.309,0.033,0.465c-0.004,0.338,0.301,0.662,0.647,0.647
											C146.071,134.03,146.359,133.762,146.363,133.399L146.363,133.399z"/>
									</g>
								</g>
							</g>
							<g>
								<g>
									<path style="fill:#010001;" d="M169.705,123.577c-0.954-0.306-1.977-0.413-2.973-0.3c-0.272,0.031-0.538,0.219-0.525,0.525
										c0.012,0.258,0.233,0.558,0.525,0.525c0.467-0.053,0.938-0.06,1.405-0.015c0.062,0.006,0.123,0.013,0.185,0.02
										c-0.091-0.011,0.056,0.008,0.071,0.011c0.114,0.018,0.227,0.038,0.34,0.062c0.234,0.049,0.465,0.111,0.693,0.185
										c0.261,0.084,0.584-0.098,0.645-0.367C170.137,123.936,169.985,123.667,169.705,123.577L169.705,123.577z"/>
								</g>
							</g>
							<g>
								<g>
									<path style="fill:#010001;" d="M158.683,123.46c-0.574,0.181-1.135,0.415-1.666,0.698
										c-0.246,0.131-0.486,0.273-0.719,0.427c-0.238,0.157-0.457,0.345-0.698,0.495c-0.232,0.146-0.345,0.475-0.188,0.718
										c0.15,0.233,0.469,0.344,0.718,0.188c0.226-0.142,0.432-0.318,0.654-0.466c0.232-0.155,0.471-0.299,0.717-0.431
										c0.524-0.283,0.899-0.439,1.462-0.617c0.261-0.083,0.456-0.369,0.367-0.646
										C159.244,123.564,158.963,123.371,158.683,123.46L158.683,123.46z"/>
								</g>
							</g>
							<g>
								<g>
									<path style="fill:#010001;" d="M163.051,126.198c0.632,1.371,1.398,2.676,2.287,3.897c0.063-0.239,0.126-0.479,0.188-0.718
										c-0.569,0.295-1.194,0.49-1.832,0.556c-0.282,0.029-0.525,0.22-0.525,0.525c0,0.261,0.241,0.554,0.525,0.525
										c0.832-0.087,1.617-0.314,2.361-0.699c0.234-0.121,0.349-0.497,0.188-0.718c-0.889-1.221-1.655-2.525-2.287-3.897
										c-0.119-0.257-0.49-0.322-0.718-0.188C162.975,125.634,162.932,125.939,163.051,126.198L163.051,126.198z"/>
								</g>
							</g>
						</g>
						
							<ellipse transform="matrix(0.6576 -0.7533 0.7533 0.6576 -27.8142 136.0978)" style="fill:#010001;" cx="135.824" cy="98.649" rx="10.791" ry="10.791"/>
					</g>
				</g>
			</g>
			<g>
				<g>
					<g>
						<line style="fill:none;stroke:#010001;stroke-miterlimit:10;" x1="431.339" y1="377.738" x2="463.134" y2="369.343"/>
						<g>
							<g>
								<path style="fill:#F19101;" d="M468.827,382.205c-4.552,1.149-9.707-3.725-11.515-10.886
									c-1.808-7.161,0.417-13.898,4.968-15.047c4.552-1.149,9.707,3.725,11.515,10.886
									C475.603,374.319,473.378,381.056,468.827,382.205z"/>
							</g>
							<path style="fill:#010001;" d="M465.978,370.92c-0.59,0.149-1.259-0.483-1.494-1.412c-0.234-0.929,0.054-1.803,0.645-1.952
								c0.59-0.149,1.259,0.483,1.493,1.412C466.857,369.897,466.569,370.771,465.978,370.92z"/>
						</g>
					</g>
					<g>
						<line style="fill:none;stroke:#010001;stroke-miterlimit:10;" x1="419.149" y1="406.048" x2="447.141" y2="341.041"/>
						<g>
							<g>
								<path style="fill:#F19101;" d="M471.802,342.904c-4.18,6.526-15.939,6.456-26.265-0.158
									c-10.326-6.614-15.308-17.265-11.128-23.792c4.18-6.526,15.939-6.456,26.265,0.158
									C471,325.726,475.982,336.378,471.802,342.904z"/>
							</g>
							<path style="fill:#010001;" d="M456.496,330.488c-0.389,0.607-1.483,0.601-2.444-0.015c-0.961-0.616-1.424-1.607-1.035-2.214
								c0.389-0.607,1.483-0.601,2.444,0.015C456.421,328.889,456.885,329.88,456.496,330.488z"/>
						</g>
						<line style="fill:none;stroke:#010001;stroke-miterlimit:10;" x1="432.204" y1="345.763" x2="437.671" y2="362.604"/>
					</g>
					<g>
						<line style="fill:none;stroke:#010001;stroke-miterlimit:10;" x1="418.046" y1="404.375" x2="407.711" y2="313.765"/>
						<g>
							<g>
								<path style="fill:#F19101;" d="M426.423,310.292c1.054,6.635-6.456,13.343-16.775,14.983
									c-10.319,1.64-19.539-2.41-20.594-9.045c-1.055-6.635,6.456-13.343,16.775-14.983
									C416.148,299.608,425.368,303.657,426.423,310.292z"/>
							</g>
							<path style="fill:#010001;" d="M410.164,312.876c0.137,0.862-0.838,1.733-2.178,1.946c-1.34,0.213-2.537-0.313-2.674-1.175
								c-0.137-0.862,0.839-1.733,2.178-1.946C408.83,311.488,410.027,312.014,410.164,312.876z"/>
						</g>
					</g>
					<g>
						<g>
							<line style="fill:none;stroke:#010001;stroke-miterlimit:10;" x1="405.299" y1="410.098" x2="370.319" y2="354.904"/>
							<line style="fill:none;stroke:#010001;stroke-miterlimit:10;" x1="363.308" y1="374.442" x2="382.961" y2="374.852"/>
							<line style="fill:none;stroke:#010001;stroke-miterlimit:10;" x1="388.669" y1="383.858" x2="394.014" y2="371.468"/>
						</g>
						<g>
							<g>
								<path style="fill:#F19101;" d="M386.047,343.404c3.248,4.317-1.114,13.079-9.743,19.571
									c-8.629,6.492-18.256,8.256-21.504,3.939c-3.248-4.316,1.114-13.079,9.743-19.571
									C373.172,340.851,382.8,339.087,386.047,343.404z"/>
							</g>
							<path style="fill:#010001;" d="M372.348,353.711c0.4,0.531-0.137,1.61-1.2,2.41c-1.062,0.799-2.248,1.017-2.648,0.485
								c-0.4-0.531,0.137-1.61,1.2-2.41C370.762,353.397,371.948,353.18,372.348,353.711z"/>
						</g>
					</g>
				</g>
				<g>
					<rect x="386.244" y="388.545" style="fill:#6348ED;" width="59.865" height="57.574"/>
					<path style="fill:#FFFFFF;" d="M446.109,445.633h-7.456v-14.086h7.456v-1h-7.456v-14.085h7.456v-1h-7.456v-14.086h7.456v-1
						h-7.456v-11.831h-1v11.831h-14.086v-11.831h-1v11.831h-14.086v-11.831h-1v11.831h-14.086v-11.831h-1v11.831h-6.151v1h6.151
						v14.086h-6.151v1h6.151v14.085h-6.151v1h6.151v14.086h-6.151v0.485h59.865V445.633z M407.481,445.633h-14.086v-14.086h14.086
						V445.633z M407.481,430.547h-14.086v-14.085h14.086V430.547z M407.481,415.462h-14.086v-14.086h14.086V415.462z
						 M422.567,445.633h-14.086v-14.086h14.086V445.633z M422.567,430.547h-14.086v-14.085h14.086V430.547z M422.567,415.462
						h-14.086v-14.086h14.086V415.462z M437.653,445.633h-14.086v-14.086h14.086V445.633z M437.653,430.547h-14.086v-14.085h14.086
						V430.547z M437.653,415.462h-14.086v-14.086h14.086V415.462z"/>
				</g>
			</g>
			<line style="fill:none;stroke:#010001;stroke-miterlimit:10;" x1="50.056" y1="446.118" x2="465.555" y2="446.118"/>
		</g>
	</g>
</g>
</svg>
