<?xml version="1.0" encoding="utf-8"?>
<!-- Generator: Adobe Illustrator 27.5.0, SVG Export Plug-In . SVG Version: 6.00 Build 0)  -->
<svg version="1.1" xmlns="http://www.w3.org/2000/svg" xmlns:xlink="http://www.w3.org/1999/xlink" x="0px" y="0px"
	 viewBox="0 0 750 500" style="enable-background:new 0 0 750 500;" xml:space="preserve">
<g id="BACKGROUND">
	<rect style="fill:#9EDBFB;" width="750" height="500"/>
</g>
<g id="OBJECTS">
	<g>
		<g>
			<path style="fill:#9575AD;" d="M280.904,287.288c0,0,15.639-1.953,14.273-20.64C295.176,266.649,280.904,267.246,280.904,287.288
				z"/>
			<g>
				<path style="fill:#FF9700;" d="M290.014,267.246l13.817,12.906c0,0,2.43,1.67,4.1,5.77c1.67,4.1,3.745,9.945,2.885,13.21
					c-0.813,3.087-3.341-0.607-3.341-0.607s2.031,2.97,0.835,4.508c-0.558,0.717-1.442,0.351-1.442,0.351s-0.664,1.002-1.632,0.746
					c-1.806-0.478-3.878-3.545-3.878-3.545s0.234,2.8-1.323,2.192c-1.844-0.72-8.199-14.121-8.199-14.121s-8.351-4.403-11.236-9.87
					C280.6,278.785,280.144,271.194,290.014,267.246z"/>
				<path style="fill:#C4534E;" d="M290.014,267.246c-9.87,3.948-9.414,11.54-9.414,11.54c0.916,1.736,2.384,3.362,3.96,4.777
					c3.082-7.559,6.837-14.399,6.837-14.399l0.454-0.202L290.014,267.246z"/>
				
					<path style="fill:none;stroke:#433959;stroke-width:0.75;stroke-linecap:round;stroke-linejoin:round;stroke-miterlimit:10;" d="
					M288.154,280.911c0,0,2.278,7.516,5.922,8.085c0,0,2.961,7.516,6.15,7.174c3.189-0.342-1.367-8.883-1.367-8.883"/>
				
					<line style="fill:none;stroke:#433959;stroke-width:0.75;stroke-linecap:round;stroke-linejoin:round;stroke-miterlimit:10;" x1="307.475" y1="298.525" x2="302.92" y2="288.378"/>
				
					<line style="fill:none;stroke:#433959;stroke-width:0.75;stroke-linecap:round;stroke-linejoin:round;stroke-miterlimit:10;" x1="299.104" y1="295.985" x2="301.358" y2="300.584"/>
				
					<line style="fill:none;stroke:#433959;stroke-width:0.75;stroke-linecap:round;stroke-linejoin:round;stroke-miterlimit:10;" x1="300.835" y1="291.896" x2="306.868" y2="303.383"/>
			</g>
			<g>
				<path style="fill:#FCFCFC;" d="M251.143,167.65c0,0,6.681,13.88,8.503,32.14c1.822,18.26,4.555,33.14,4.555,33.14l30.975,33.719
					c0,0-11.54,5.456-14.273,20.64c0,0-43.454-14.273-53.462-37.96c-10.007-23.687-1.979-55.573-1.979-55.573L251.143,167.65z"/>
				
					<path style="fill:none;stroke:#433959;stroke-width:0.75;stroke-linecap:round;stroke-linejoin:round;stroke-miterlimit:10;" d="
					M264.201,232.93c0,0-2.733,6.074-10.629,6.074c0,0-3.34-2.278,6.681-4.783"/>
			</g>
		</g>
		<g>
			<path style="fill:#FF9700;" d="M89.445,373.762c0,0-15.99,16.75-31.477,23.102c0,0-2.181,40.235,18.919,56.125
				c0,0,7.368,1.944,5.026-7.352c-2.342-9.296,0.784-26.078,5.645-31.142c4.861-5.064,22.956-17.932,22.956-17.932L89.445,373.762z"
				/>
			<path style="fill:#433959;" d="M80.46,382.129c8.121,12.299,24.814,18.228,24.814,18.228l0,0c3.054-2.239,5.24-3.794,5.24-3.794
				l-21.069-22.801C89.445,373.762,85.867,377.509,80.46,382.129z"/>
			<path style="fill:#FCFCFC;" d="M82.125,406.162c-10.704,0.686-14.424-5.036-12.688-9.393c0.687-1.722,0.769-4.228,0.619-6.628
				c-3.862,2.633-7.991,5.043-12.088,6.724c0,0-2.181,40.235,18.919,56.125c0,0,7.368,1.944,5.026-7.352
				c-2.342-9.296,0.784-26.078,5.645-31.142c1.246-1.298,3.365-3.111,5.823-5.087C92.36,407.968,89.556,405.685,82.125,406.162z"/>
			<path style="fill:none;stroke:#433959;stroke-width:0.75;stroke-linecap:round;stroke-linejoin:round;stroke-miterlimit:10;" d="
				M60.983,395.504c0,0,1.198,39.525,18.893,57.511"/>
			<path style="fill:none;stroke:#433959;stroke-width:0.75;stroke-linecap:round;stroke-linejoin:round;stroke-miterlimit:10;" d="
				M84.223,420.389c0,0-10.013-4.337-10.957-0.96c-0.944,3.377,9.602,5.272,9.602,5.272"/>
			<path style="fill:none;stroke:#433959;stroke-width:0.75;stroke-linecap:round;stroke-linejoin:round;stroke-miterlimit:10;" d="
				M82.041,428.447c0,0-9.087-2.507-8.849,1.136c0.238,3.644,8.226,3.191,8.226,3.191"/>
		</g>
		<g>
			<path style="fill:#FF9700;" d="M239.983,414.378c0,0-7.696,30.292-8.403,44.185h47.805c0,0,15.625-0.954,14.121-5.466
				c-0.683-2.05-2.05-3.416-7.061-3.416c-5.011,0-20.27-2.733-24.826-10.477l5.011-24.826H239.983z"/>
			<path style="fill:#433959;" d="M265.119,421.868L265.119,421.868l1.512-7.491h-26.648c0,0-1.241,4.888-2.772,11.632
				C251.321,426.317,265.119,421.868,265.119,421.868z"/>
			<path style="fill:#FCFCFC;" d="M279.385,458.563c0,0,15.625-0.954,14.121-5.466c-0.683-2.05-2.05-3.416-7.061-3.416
				c-5.011,0-20.27-2.733-24.826-10.477l2.474-12.259h0c0,0-11.19-3.001-12.981,5.199c-1.792,8.199-8.14,11.941-16.468,5.857
				c0,0,0,0,0,0c-1.497,7.511-2.794,15.24-3.065,20.563H279.385z"/>
			<path style="fill:none;stroke:#433959;stroke-width:0.75;stroke-linecap:round;stroke-linejoin:round;stroke-miterlimit:10;" d="
				M261.62,439.203c0,0-9.566,5.694-8.655,8.199c0.911,2.505,11.507-4.917,11.507-4.917"/>
			<path style="fill:none;stroke:#433959;stroke-width:0.75;stroke-linecap:round;stroke-linejoin:round;stroke-miterlimit:10;" d="
				M267.136,444.358c0,0-6.427,5.094-5.516,7.599c0.911,2.505,10.551-5.211,10.551-5.211"/>
			<path style="fill:none;stroke:#433959;stroke-width:0.75;stroke-linecap:round;stroke-linejoin:round;stroke-miterlimit:10;" d="
				M231.927,454.482c0,0,45.256,3.68,60.741-2.97"/>
		</g>
		<g>
			<path style="fill:#FF6F89;" d="M171.428,244.698c-15.336,13.438-14.728,30.706-32.211,71.061c0,0-47.434,51.77-55.248,58.534
				c0,0,6.149,23.231,24.142,29.836c0,0,66.733-53.295,74.477-60.584c7.744-7.288,23.283-49.974,23.283-49.974
				s27.45,48.38,29.073,56.579c1.623,8.199-1.11,70.15-1.11,70.15s25.813,6.833,37.656,0c0,0,15.184-78.349,6.529-98.847
				c-8.655-20.498-33.701-74.705-33.701-74.705L171.428,244.698z"/>
			
				<polyline style="fill:none;stroke:#433959;stroke-width:0.75;stroke-linecap:round;stroke-linejoin:round;stroke-miterlimit:10;" points="
				205.871,293.571 213.487,275.17 219.94,272.94 			"/>
			<path style="fill:none;stroke:#433959;stroke-width:0.75;stroke-linecap:round;stroke-linejoin:round;stroke-miterlimit:10;" d="
				M157.19,267.246c0,0,22.286-6.661,30.485-21.703"/>
			<path style="fill:none;stroke:#433959;stroke-width:0.75;stroke-linecap:round;stroke-linejoin:round;stroke-miterlimit:10;" d="
				M92.357,365.977c0,0,8.769,21.829,24.79,30.921"/>
			<path style="fill:none;stroke:#433959;stroke-width:0.75;stroke-linecap:round;stroke-linejoin:round;stroke-miterlimit:10;" d="
				M234.313,408.474c0,0,21.217,5.679,39.066,1.312"/>
			<polygon style="fill:#433959;" points="205.871,293.571 212.027,278.697 211.101,302.904 			"/>
		</g>
		<path style="fill:#433959;" d="M167.539,248.56c54.971,17.722,76.779-1.812,76.779-1.812l-72.89-2.05
			C170.002,245.947,168.716,247.229,167.539,248.56z"/>
		<g>
			<path style="fill:#00A979;" d="M208.097,145.07c0,0-7.516,2.935-17.765,3.851c-10.249,0.915-26.04,9.001-26.04,9.001
				s-9.414,9.718,0,45.248c0,0,2.354,5.314,2.809,20.119c0,0-1.139,7.516,4.783,13.438c0,0,0,5.011-0.456,7.971
				c0,0,28.641,9.338,48.142,9.794c19.502,0.456,24.747-7.744,24.747-7.744l-1.786-6.833c0,0,7.018-6.15,5.423-16.171
				c-1.594-10.021-4.541-23.459-3.637-35.075c0,0,9.559-10.38,6.826-21.019c0,0-3.644-6.312-9.794-9.273
				c-6.15-2.961-15.409-9.456-15.409-9.456L208.097,145.07z"/>
			<path style="fill:#433959;" d="M162.174,194.114c0.566,2.815,1.262,5.826,2.118,9.055c0,0,1.848,4.182,2.586,15.441
				c9.874-10.712,12.394-26.681,12.394-26.681L162.174,194.114z"/>
			<path style="fill:none;stroke:#433959;stroke-width:0.75;stroke-linecap:round;stroke-linejoin:round;stroke-miterlimit:10;" d="
				M244.318,188.669c0,0,5.408-18.168,2.245-26.621"/>
			<path style="fill:none;stroke:#433959;stroke-width:0.75;stroke-linecap:round;stroke-linejoin:round;stroke-miterlimit:10;" d="
				M173.456,153.77c0,0,19.837,16.679,3.666,44.693"/>
			<path style="fill:none;stroke:#433959;stroke-width:0.75;stroke-linecap:round;stroke-linejoin:round;stroke-miterlimit:10;" d="
				M209.35,159.988c0,0,12.498,13.474,19.744,2.06"/>
			<path style="fill:#FCFCFC;" d="M214.93,141.219c0,0-7.972,0.19-9.908,4.631c-1.936,4.441-1.708,17.082,2.05,19.018
				c3.758,1.936,7.415,0,7.415,0s5.339-4.327,7.503-3.416c2.164,0.911,2.676,7.288,7.431,6.036
				c4.754-1.253,3.15-16.435-1.153-20.498C224.045,143.002,220.737,141.485,214.93,141.219z"/>
			<path style="fill:none;stroke:#433959;stroke-width:0.75;stroke-linecap:round;stroke-linejoin:round;stroke-miterlimit:10;" d="
				M203.825,244.477c5.963,0.857,11.973,1.336,16.799,0.904c15.26-1.367,21.908-5.466,21.908-5.466"/>
			<path style="fill:none;stroke:#433959;stroke-width:0.75;stroke-linecap:round;stroke-linejoin:round;stroke-miterlimit:10;" d="
				M178.261,239.004c0,0,6.222,1.778,14.383,3.48"/>
		</g>
		<path style="fill:#00A979;" d="M155.94,314.164c-1.258,0-2.278-1.02-2.278-2.278v-12.175c0-1.628-1.324-2.952-2.951-2.952h-16.304
			c-1.628,0-2.951,1.324-2.951,2.952v12.175c0,1.258-1.02,2.278-2.278,2.278c-1.258,0-2.278-1.02-2.278-2.278v-12.175
			c0-4.14,3.367-7.507,7.507-7.507h16.304c4.139,0,7.507,3.367,7.507,7.507v12.175C158.218,313.144,157.198,314.164,155.94,314.164z
			"/>
		<g>
			<path style="fill:#9575AD;" d="M123.143,278.065c0,0,6.605,2.961,14.045,2.505c7.44-0.456,11.692-5.011,11.692-5.011
				s-3.089-5.653-14.728-4.555C126.104,271.764,123.143,278.065,123.143,278.065z"/>
			<g>
				<path style="fill:#FF9700;" d="M133.544,272.827c0,0-2.126,9.262-0.911,14.577c0,0,0.588,3.53,2.183,5.352l-0.785,4.028
					c0,0-0.867,0.014-1.514,0.664c0,0,0.989,4.59,2.697,4.76c1.708,0.171,2.961-1.139,2.961-1.139s1.385,1.955,4.289,0.531
					c0,0,1.974,2.031,4.593-0.418c0,0,2.05,1.196,4.043-1.594c1.993-2.79,2.372-6.491,1.651-8.541
					c-0.694-1.972-6.605-18.619-6.605-18.619L133.544,272.827z"/>
				<path style="fill:#C4534E;" d="M146.147,272.428l-12.603,0.399c0,0-0.562,2.451-0.943,5.553
					c6.815-2.817,14.402-3.39,14.403-3.39C146.483,273.44,146.147,272.428,146.147,272.428z"/>
				
					<line style="fill:none;stroke:#433959;stroke-width:0.75;stroke-linecap:round;stroke-linejoin:round;stroke-miterlimit:10;" x1="138.175" y1="301.069" x2="139.803" y2="294.388"/>
				
					<line style="fill:none;stroke:#433959;stroke-width:0.75;stroke-linecap:round;stroke-linejoin:round;stroke-miterlimit:10;" x1="142.464" y1="301.6" x2="144.59" y2="294.388"/>
				
					<line style="fill:none;stroke:#433959;stroke-width:0.75;stroke-linecap:round;stroke-linejoin:round;stroke-miterlimit:10;" x1="147.058" y1="301.182" x2="149.183" y2="294.388"/>
			</g>
			<g>
				<path style="fill:#FCFCFC;" d="M164.291,157.922c0,0-27.938,15.409-40.921,41.868c-12.982,26.459-5.694,63.471-0.228,78.275
					c0,0,12.527-7.061,25.737-2.505l4.783-47.374c0,0,18.904-20.841,23.459-29.723C181.677,189.58,183.803,162.249,164.291,157.922z
					"/>
				
					<path style="fill:none;stroke:#433959;stroke-width:0.75;stroke-linecap:round;stroke-linejoin:round;stroke-miterlimit:10;" d="
					M133.089,224.086c0,0,7.895,5.466,16.702,3.948"/>
			</g>
		</g>
		<g>
			<path style="fill:#433959;" d="M214.588,132.754c0,0-7.858,0.456-10.363-4.783c-2.505-5.238,1.708-6.719,3.53-7.63
				c1.822-0.911-1.253-6.491,2.505-10.818s10.135-0.456,12.982-1.367c2.847-0.911,3.075-3.416,5.808-3.075
				c2.733,0.342,2.961,1.936,6.605,1.253c3.644-0.683,8.427,0.683,8.655,5.011c0.228,4.327-5.125,4.441-5.58,6.149
				c-0.456,1.708,0.114,5.694-5.238,7.63C228.14,127.061,214.588,132.754,214.588,132.754z"/>
			<path style="fill:#FF9700;" d="M240.439,133.438c-2.278-3.075-2.391-5.58-3.416-9.794c-1.025-4.213-6.263-5.466-6.263-5.466
				c-2.847,3.758-8.769,3.302-8.769,3.302c1.253,1.139,1.708,5.125-1.253,6.036c-1.306,0.402-2.213,1.413-2.819,2.418
				c-0.805-1.447-2.274-2.418-3.957-2.418c-2.547,0-4.612,2.218-4.612,4.954c0,2.695,2.005,4.883,4.5,4.948l-3.475,5.7
				c0,0-1.708,7.061,2.847,12.527c2.501,3.001,5.722,4.011,8.12,4.312c1.91,0.24,3.726-0.893,4.408-2.692l4.24-11.185
				c0,0,3.938,1.815,8.741-0.342C244.31,143.231,242.716,136.512,240.439,133.438z"/>
			<path style="fill:#C4534E;" d="M230.759,119.829c0,0,4.495,1.021,6.062,3.178c-1.367-3.701-6.062-4.83-6.062-4.83
				c-2.847,3.758-8.769,3.302-8.769,3.302c0.089,0.081,0.173,0.18,0.254,0.289C224.825,121.977,228.89,121.922,230.759,119.829z"/>
			<path style="fill:none;stroke:#433959;stroke-width:0.75;stroke-linecap:round;stroke-linejoin:round;stroke-miterlimit:10;" d="
				M213.849,137.417c0,0,2.162,0.063,3.301-1.645"/>
			
				<polyline style="fill:none;stroke:#433959;stroke-width:0.75;stroke-linecap:round;stroke-linejoin:round;stroke-miterlimit:10;" points="
				213.134,130.382 215.841,132.764 213.849,133.722 			"/>
			<path style="fill:none;stroke:#514769;stroke-width:0.75;stroke-linecap:round;stroke-linejoin:round;stroke-miterlimit:10;" d="
				M230.759,118.178c0,0,2.012-2.088,1.936-5.656"/>
			<path style="fill:none;stroke:#433959;stroke-width:0.75;stroke-linecap:round;stroke-linejoin:round;stroke-miterlimit:10;" d="
				M233.219,127.769c0,0-0.304,3.302,1.594,5.105c1.898,1.803,3.948,2.98,0.683,3.72"/>
			<path style="fill:none;stroke:#433959;stroke-width:0.75;stroke-linecap:round;stroke-linejoin:round;stroke-miterlimit:10;" d="
				M230.132,138.074c0,0,0.626,2.424,3.191,2.08"/>
			<path style="fill:#433959;" d="M229.093,128.911c0,0.456-0.37,0.826-0.826,0.826c-0.456,0-0.826-0.37-0.826-0.826
				c0-0.456,0.37-0.826,0.826-0.826C228.724,128.085,229.093,128.455,229.093,128.911z"/>
			<path style="fill:#433959;" d="M236.595,128.085c0,0.456-0.37,0.826-0.826,0.826c-0.456,0-0.826-0.37-0.826-0.826
				c0-0.456,0.37-0.826,0.826-0.826C236.225,127.26,236.595,127.629,236.595,128.085z"/>
			<path style="fill:none;stroke:#433959;stroke-linecap:round;stroke-linejoin:round;stroke-miterlimit:10;" d="M225.463,125.068
				c0,0,1.979-1.31,3.957-0.602"/>
			<path style="fill:none;stroke:#433959;stroke-linecap:round;stroke-linejoin:round;stroke-miterlimit:10;" d="M233.834,124.465
				c0,0,1.868-1.058,3.382,0"/>
			<path style="fill:#C4534E;" d="M229.989,146.079c0,0-4.279-1.822-6.48-4.859c0,0,1.013,5.382,5.403,7.702L229.989,146.079z"/>
			<path style="fill:none;stroke:#514769;stroke-width:0.75;stroke-linecap:round;stroke-linejoin:round;stroke-miterlimit:10;" d="
				M221.99,121.48c0,0-0.456-1.993-4.84-2.221"/>
		</g>
		<g>
			<path style="fill:#00A979;" d="M113.413,304.178l58.164-1.59c0,0,7.657,1.345,7.146,15.245c-0.51,13.901-0.49,50.861-0.49,50.861
				l-13.363,1.211c0,0-31.529-0.204-62.066-3.969c0,0-2.895-33.495,4.734-57.333C108.362,306.03,110.713,304.252,113.413,304.178z"
				/>
			<path style="fill:#8CD41F;" d="M178.724,317.833c0.51-13.901-7.146-15.245-7.146-15.245s-5.129,1.159-6.203,13.639
				c-1.074,12.481-0.504,53.678-0.504,53.678l13.363-1.211C178.233,368.694,178.213,331.734,178.724,317.833z"/>
			<path style="fill:none;stroke:#433959;stroke-width:0.75;stroke-linecap:round;stroke-linejoin:round;stroke-miterlimit:10;" d="
				M103.73,324.639c0,0-2.417,16.114,10.091,16.87c6.446,0.39,20.563,1.761,29.264,1.915c10.482,0.186,19.784-7.215,21.404-17.574
				c0.063-0.401,0.117-0.81,0.163-1.228"/>
			<path style="fill:#FCFCFC;" d="M127.826,348.418L127.826,348.418c-1.509-0.031-2.707-1.28-2.676-2.789l0.108-5.237
				c0.031-1.509,1.28-2.707,2.789-2.676l0,0c1.509,0.031,2.707,1.28,2.676,2.789l-0.108,5.237
				C130.584,347.251,129.335,348.449,127.826,348.418z"/>
			
				<line style="fill:none;stroke:#433959;stroke-width:0.75;stroke-linecap:round;stroke-linejoin:round;stroke-miterlimit:10;" x1="171.962" y1="314.051" x2="171.549" y2="369.336"/>
		</g>
	</g>
	<g>
		
			<ellipse transform="matrix(0.7071 -0.7071 0.7071 0.7071 20.6248 276.241)" style="fill:#FF6F89;" cx="343.765" cy="113.224" rx="15.465" ry="15.465"/>
		<polygon style="fill:#FCFCFC;" points="342.079,120.529 333.686,111.996 336.007,109.714 342.098,115.906 352.084,105.919 
			354.386,108.221 		"/>
	</g>
	<path style="fill:none;stroke:#433959;stroke-width:0.75;stroke-linecap:round;stroke-linejoin:round;stroke-miterlimit:10;" d="
		M308.103,129.12h-18.354c-5.032,0-9.11,4.079-9.11,9.11v7.516c0,5.031,4.079,9.11,9.11,9.11h7.023v10.021l8.422-10.021h2.909
		c5.031,0,9.11-4.079,9.11-9.11v-7.516C317.213,133.199,313.134,129.12,308.103,129.12z"/>
	<g>
		<path style="fill:#FCFCFC;" d="M292.615,120.921H264.24c-5.031,0-9.11,4.079-9.11,9.11v7.516c0,5.031,4.079,9.11,9.11,9.11h5.201
			v10.021l8.422-10.021h14.752c5.031,0,9.11-4.079,9.11-9.11v-7.516C301.726,125,297.647,120.921,292.615,120.921z"/>
		<path style="fill:#9EDBFB;" d="M292.631,134.059c0-1.592-1.291-2.883-2.883-2.883c-1.592,0-2.883,1.291-2.883,2.883
			c0,1.592,1.291,2.883,2.883,2.883C291.34,136.942,292.631,135.651,292.631,134.059z"/>
		<path style="fill:#9EDBFB;" d="M281.31,134.059c0-1.592-1.291-2.883-2.883-2.883s-2.883,1.291-2.883,2.883
			c0,1.592,1.291,2.883,2.883,2.883S281.31,135.651,281.31,134.059z"/>
		<path style="fill:#9EDBFB;" d="M269.99,134.059c0-1.592-1.291-2.883-2.883-2.883c-1.592,0-2.883,1.291-2.883,2.883
			c0,1.592,1.291,2.883,2.883,2.883C268.699,136.942,269.99,135.651,269.99,134.059z"/>
	</g>
	<g>
		
			<ellipse transform="matrix(0.2313 -0.9729 0.9729 0.2313 -89.2214 223.8868)" style="fill:#FF6F89;" cx="97.065" cy="168.403" rx="15.465" ry="15.465"/>
		<rect x="90.19" y="166.775" style="fill:#FCFCFC;" width="13.75" height="3.255"/>
	</g>
	<g>
		
			<ellipse transform="matrix(0.9873 -0.1587 0.1587 0.9873 -15.0373 18.6883)" style="fill:none;stroke:#433959;stroke-width:0.75;stroke-linecap:round;stroke-linejoin:round;stroke-miterlimit:10;" cx="109.506" cy="103.506" rx="30.297" ry="30.297"/>
		<circle style="fill:#FCFCFC;" cx="109.506" cy="103.507" r="23.701"/>
		<g>
			<path style="fill:#433959;" d="M120.205,113.447c-0.3,0-0.601-0.098-0.854-0.3l-10.7-8.574c-0.324-0.259-0.512-0.652-0.512-1.066
				V86.885c0-0.755,0.612-1.367,1.367-1.367c0.755,0,1.367,0.612,1.367,1.367v15.965l10.188,8.164
				c0.589,0.472,0.684,1.332,0.212,1.921C121.002,113.272,120.605,113.447,120.205,113.447z"/>
		</g>
	</g>
	<path style="fill:#8CD41F;" d="M239.318,82.785H158.09c-2.761,0-5-2.239-5-5V64.075c0-2.761,2.239-5,5-5h81.228
		c2.761,0,5,2.239,5,5v13.711C244.318,80.547,242.079,82.785,239.318,82.785z"/>
	<path style="fill:#FCFCFC;" d="M239.762,59.075h-69.04v23.711h69.04c2.516,0,4.555-2.039,4.555-4.555v-14.6
		C244.318,61.114,242.278,59.075,239.762,59.075z"/>
	
		<ellipse transform="matrix(0.7071 -0.7071 0.7071 0.7071 33.2876 191.2933)" style="fill:#FF6F89;" cx="247.555" cy="55.465" rx="15.465" ry="15.465"/>
	<g>
		<g>
			<path style="fill:#8CD41F;" d="M534.728,183.665h-99.953c-5.523,0-10-4.477-10-10v-14.001c0-5.523,4.477-10,10-10h99.953
				c5.523,0,10,4.477,10,10v14.001C544.728,179.187,540.25,183.665,534.728,183.665z"/>
			
				<ellipse transform="matrix(0.7071 -0.7071 0.7071 0.7071 12.9686 364.6367)" style="fill:#FCFCFC;" cx="446.64" cy="166.664" rx="12.212" ry="12.212"/>
			<path style="fill:#433959;" d="M433.885,149.663c-5.032,0-9.11,4.079-9.11,9.11v2.956h91.255c5.031,0,9.11-4.079,9.11-9.11
				v-2.956H433.885z"/>
			<line style="fill:none;stroke:#FCFCFC;stroke-miterlimit:10;" x1="468.102" y1="166.664" x2="527.114" y2="166.664"/>
			<line style="fill:none;stroke:#FCFCFC;stroke-miterlimit:10;" x1="511.323" y1="174.593" x2="527.114" y2="174.593"/>
			<line style="fill:none;stroke:#FCFCFC;stroke-miterlimit:10;" x1="468.102" y1="174.593" x2="500.391" y2="174.593"/>
		</g>
		<g>
			<path style="fill:#FCFCFC;" d="M513.318,158.763h-99.953c-5.523,0-10-4.477-10-10v-14.001c0-5.523,4.477-10,10-10h99.953
				c5.523,0,10,4.477,10,10v14.001C523.318,154.286,518.841,158.763,513.318,158.763z"/>
			
				<ellipse transform="matrix(0.1225 -0.9925 0.9925 0.1225 232.427 546.4155)" style="fill:#FF6F89;" cx="425.23" cy="141.762" rx="12.212" ry="12.212"/>
			<line style="fill:none;stroke:#433959;stroke-miterlimit:10;" x1="462.636" y1="133.833" x2="482.929" y2="133.833"/>
			<line style="fill:none;stroke:#433959;stroke-miterlimit:10;" x1="446.693" y1="133.833" x2="456.119" y2="133.833"/>
			<line style="fill:none;stroke:#433959;stroke-miterlimit:10;" x1="446.693" y1="141.762" x2="505.705" y2="141.762"/>
			<line style="fill:none;stroke:#433959;stroke-miterlimit:10;" x1="446.693" y1="149.691" x2="505.705" y2="149.691"/>
		</g>
	</g>
	<g>
		<g>
			<path style="fill:#8CD41F;" d="M453.262,308.409h-99.953c-5.523,0-10-4.477-10-10v-14.001c0-5.523,4.477-10,10-10h99.953
				c5.523,0,10,4.477,10,10v14.001C463.262,303.931,458.785,308.409,453.262,308.409z"/>
			
				<ellipse transform="matrix(0.925 -0.3798 0.3798 0.925 -83.3207 160.5527)" style="fill:#FCFCFC;" cx="365.174" cy="291.408" rx="12.212" ry="12.212"/>
			<path style="fill:#433959;" d="M352.42,274.407c-5.031,0-9.11,4.079-9.11,9.11v2.956h91.255c5.031,0,9.11-4.079,9.11-9.11v-2.956
				H352.42z"/>
			<line style="fill:none;stroke:#FCFCFC;stroke-miterlimit:10;" x1="386.637" y1="291.408" x2="445.649" y2="291.408"/>
			<line style="fill:none;stroke:#FCFCFC;stroke-miterlimit:10;" x1="386.637" y1="299.337" x2="418.318" y2="299.337"/>
		</g>
		<g>
			<path style="fill:#FCFCFC;" d="M431.853,283.507H331.9c-5.523,0-10-4.477-10-10v-14.001c0-5.523,4.477-10,10-10h99.953
				c5.523,0,10,4.477,10,10v14.001C441.853,279.03,437.376,283.507,431.853,283.507z"/>
			<circle style="fill:#FF6F89;" cx="343.765" cy="266.506" r="12.212"/>
			<line style="fill:none;stroke:#433959;stroke-miterlimit:10;" x1="365.227" y1="258.577" x2="386.637" y2="258.577"/>
			<line style="fill:none;stroke:#433959;stroke-miterlimit:10;" x1="365.227" y1="266.506" x2="424.239" y2="266.506"/>
			<line style="fill:none;stroke:#433959;stroke-miterlimit:10;" x1="365.227" y1="274.435" x2="424.239" y2="274.435"/>
		</g>
	</g>
	<g>
		<circle style="fill:#FF6F89;" cx="446.613" cy="246.444" r="15.465"/>
		<path style="fill:#FCFCFC;" d="M449.929,239.343c-1.282,0-2.439,0.502-3.316,1.304c-0.877-0.802-2.034-1.304-3.316-1.304
			c-2.724,0-4.932,2.208-4.932,4.932c0,5.953,8.249,9.269,8.249,9.269s8.249-4.507,8.249-9.269
			C454.862,241.551,452.653,239.343,449.929,239.343z"/>
	</g>
	<g>
		
			<ellipse transform="matrix(0.1588 -0.9873 0.9873 0.1588 86.1483 511.2959)" style="fill:#FF6F89;" cx="343.129" cy="205.092" rx="27.763" ry="27.762"/>
		
			<ellipse transform="matrix(0.2264 -0.974 0.974 0.2264 65.6837 492.8836)" style="fill:none;stroke:#433959;stroke-width:0.75;stroke-linecap:round;stroke-linejoin:round;stroke-miterlimit:10;" cx="343.129" cy="205.092" rx="34.74" ry="34.74"/>
		<path style="fill:#FCFCFC;" d="M343.129,223.744c-10.285,0-18.652-8.367-18.652-18.652s8.367-18.652,18.652-18.652
			c10.285,0,18.653,8.368,18.653,18.652S353.414,223.744,343.129,223.744z"/>
		<path style="fill:#FF6F89;" d="M343.129,214.633c-5.262,0-9.542-4.28-9.542-9.542c0-5.262,4.28-9.542,9.542-9.542
			c5.262,0,9.542,4.28,9.542,9.542C352.671,210.353,348.391,214.633,343.129,214.633z"/>
		<path style="fill:#FCFCFC;" d="M340.311,202.736l-30.525-13.329l-0.407-6.044l-11.59-5.061l0.407,6.044l-0.361-0.158l-1.094,2.505
			l0.361,0.158l-4.71,3.81l11.59,5.061l4.71-3.81l30.525,13.329c0.692,0.302,1.497-0.014,1.799-0.706
			C341.318,203.844,341.002,203.038,340.311,202.736z"/>
	</g>
	<g>
		
			<ellipse transform="matrix(0.9251 -0.3797 0.3797 0.9251 -38.3673 155.3873)" style="fill:#FFFFFF;" cx="374.761" cy="174.964" rx="12.982" ry="12.982"/>
		<polygon style="fill:#FF6F89;" points="373.346,181.096 366.301,173.934 368.249,172.017 373.362,177.216 381.745,168.832 
			383.677,170.765 		"/>
	</g>
	<g>
		<path style="fill:#8CD41F;" d="M403.362,59.884c0,2.767-2.243,5.011-5.011,5.011c-2.767,0-5.011-2.243-5.011-5.011
			s2.243-5.011,5.011-5.011C401.118,54.873,403.362,57.117,403.362,59.884z"/>
		<g>
			<rect x="408.828" y="54.873" style="fill:#FCFCFC;" width="19.891" height="2.733"/>
		</g>
		<g>
			<rect x="408.828" y="61.808" style="fill:#FCFCFC;" width="35.075" height="2.733"/>
		</g>
		<circle style="fill:#FF6F89;" cx="398.351" cy="75.827" r="5.011"/>
		<g>
			<rect x="408.828" y="70.816" style="fill:#FCFCFC;" width="19.891" height="2.733"/>
		</g>
		<g>
			<rect x="408.828" y="77.751" style="fill:#FCFCFC;" width="35.075" height="2.733"/>
		</g>
		<path style="fill:#FF6F89;" d="M403.362,93.558c0,2.767-2.243,5.011-5.011,5.011c-2.767,0-5.011-2.243-5.011-5.011
			c0-2.767,2.243-5.011,5.011-5.011C401.118,88.548,403.362,90.791,403.362,93.558z"/>
		<g>
			<rect x="408.828" y="88.548" style="fill:#FCFCFC;" width="19.891" height="2.733"/>
		</g>
		<g>
			<rect x="408.828" y="95.482" style="fill:#FCFCFC;" width="35.075" height="2.733"/>
		</g>
	</g>
	<g>
		<polygon style="fill:#4AACD1;" points="689.35,288.199 539.941,288.199 539.941,331.284 465.236,331.284 465.236,373.411 
			390.531,373.411 390.531,414.378 315.827,414.378 315.827,458.563 689.35,458.563 		"/>
		<rect x="390.531" y="373.411" style="fill:#39759A;" width="27.786" height="40.967"/>
		<rect x="315.827" y="414.378" style="fill:#39759A;" width="27.786" height="44.185"/>
		<rect x="465.236" y="331.078" style="fill:#39759A;" width="27.786" height="42.333"/>
		<rect x="539.941" y="288.199" style="fill:#39759A;" width="27.786" height="42.878"/>
	</g>
	
		<line style="fill:none;stroke:#433959;stroke-width:0.75;stroke-linecap:round;stroke-linejoin:round;stroke-miterlimit:10;" x1="51.627" y1="458.563" x2="699.355" y2="458.563"/>
	<g>
		<g>
			<path style="fill:#FF9700;" d="M669.884,157.276c-3.125,0-6.173,0.491-9.064,1.422v-4.706h-68.935v4.717
				c-2.901-0.938-5.96-1.432-9.096-1.432c-16.25,0-29.471,13.221-29.471,29.471c0,14.383,10.358,26.392,24.004,28.963v2.358
				c0,3.019,2.448,5.466,5.466,5.466c3.019,0,5.466-2.448,5.466-5.466v-7.316c0-3.019-2.448-5.466-5.466-5.466
				c-10.223,0-18.538-8.316-18.538-18.538c0-10.222,8.316-18.538,18.538-18.538c3.242,0,6.349,0.841,9.096,2.394v29.893
				c0,13.394,10.858,24.253,24.253,24.253h0.345v15.184c0,13.585-11.013,24.598-24.598,24.598v9.075h68.935v-9.075
				c-13.585,0-24.598-11.013-24.598-24.598v-15.184h0.345c13.394,0,24.253-10.858,24.253-24.253v-29.913
				c2.739-1.541,5.835-2.375,9.064-2.375c10.223,0,18.538,8.316,18.538,18.538c0,10.222-8.316,18.538-18.538,18.538
				c-3.019,0-5.466,2.448-5.466,5.466v7.316c0,3.019,2.448,5.466,5.466,5.466c3.019,0,5.466-2.448,5.466-5.466v-2.358
				c13.647-2.571,24.005-14.58,24.005-28.963C699.355,170.497,686.135,157.276,669.884,157.276z"/>
			<polygon style="fill:#433959;" points="636.568,224.749 619.824,224.749 636.222,231.43 			"/>
			<line style="fill:none;stroke:#433959;stroke-miterlimit:10;" x1="591.885" y1="264.53" x2="660.82" y2="264.53"/>
			<line style="fill:none;stroke:#433959;stroke-miterlimit:10;" x1="591.885" y1="158.708" x2="591.885" y2="167.938"/>
			<line style="fill:none;stroke:#433959;stroke-miterlimit:10;" x1="660.82" y1="158.698" x2="660.82" y2="170.583"/>
			<circle style="fill:#C4534E;" cx="626.337" cy="190.433" r="21.734"/>
		</g>
		<path style="fill:#FCFCFC;" d="M660.111,128.894l4.107,2.246l-4.107,2.246c-1.957,1.071-3.567,2.68-4.637,4.637l-2.246,4.107
			l-2.246-4.107c-1.07-1.957-2.68-3.567-4.637-4.637l-4.107-2.246l4.107-2.246c1.957-1.071,3.567-2.68,4.637-4.637l2.246-4.107
			l2.246,4.107C656.545,126.215,658.154,127.824,660.111,128.894z"/>
		<path style="fill:#FCFCFC;" d="M559.44,221.746l3.652,1.997l-3.652,1.997c-1.741,0.952-3.172,2.383-4.124,4.124l-1.997,3.652
			l-1.997-3.652c-0.952-1.741-2.383-3.172-4.124-4.124l-3.652-1.997l3.652-1.997c1.741-0.952,3.172-2.383,4.124-4.124l1.997-3.652
			l1.997,3.652C556.268,219.363,557.699,220.794,559.44,221.746z"/>
		<path style="fill:#FCFCFC;" d="M571.92,245.415l2.501,1.368l-2.501,1.368c-1.192,0.652-2.173,1.632-2.825,2.825l-1.368,2.501
			l-1.368-2.501c-0.652-1.192-1.632-2.173-2.825-2.825l-2.501-1.368l2.501-1.368c1.192-0.652,2.172-1.632,2.825-2.824l1.368-2.501
			l1.368,2.501C569.747,243.783,570.727,244.763,571.92,245.415z"/>
		<path style="fill:#FCFCFC;" d="M684.327,229.891l2.813,1.538l-2.813,1.538c-1.341,0.733-2.443,1.835-3.176,3.176l-1.538,2.813
			l-1.539-2.813c-0.733-1.341-1.835-2.443-3.176-3.176l-2.813-1.538l2.813-1.538c1.341-0.733,2.443-1.835,3.176-3.176l1.539-2.813
			l1.538,2.813C681.884,228.056,682.986,229.158,684.327,229.891z"/>
	</g>
	<path style="fill:none;stroke:#FFFFFF;stroke-width:2;stroke-linecap:round;stroke-linejoin:round;stroke-miterlimit:10;" d="
		M512.178,72.572c6.508,0,6.508,6.51,13.015,6.51c6.51,0,6.51-6.51,13.02-6.51c6.508,0,6.508,6.51,13.016,6.51
		c6.512,0,6.512-6.51,13.024-6.51c6.512,0,6.512,6.51,13.025,6.51"/>
	<path style="fill:none;stroke:#FFFFFF;stroke-width:2;stroke-linecap:round;stroke-linejoin:round;stroke-miterlimit:10;" d="
		M134.989,399.279c6.508,0,6.508,6.51,13.015,6.51c6.51,0,6.51-6.51,13.02-6.51c6.508,0,6.508,6.51,13.016,6.51
		c6.512,0,6.512-6.51,13.025-6.51c6.512,0,6.512,6.51,13.025,6.51"/>
	<path style="fill:none;stroke:#FFFFFF;stroke-width:2;stroke-linecap:round;stroke-linejoin:round;stroke-miterlimit:10;" d="
		M311.486,340.021c6.508,0,6.508,6.51,13.015,6.51c6.51,0,6.51-6.51,13.02-6.51c6.508,0,6.508,6.51,13.016,6.51
		c6.512,0,6.512-6.51,13.025-6.51c6.512,0,6.512,6.51,13.025,6.51"/>
</g>
<g id="TEXTS">
	
		<text transform="matrix(1 0 0 1 354.5981 441.7266)" style="fill:#FCFCFC; font-family:'Montserrat-SemiBold'; font-size:18.2207px;">START</text>
	<text transform="matrix(1 0 0 1 619.8232 204.1494)" style="fill:#FCFCFC; font-family:'Montserrat-Bold'; font-size:38.2634px;">1</text>
	
		<text transform="matrix(1 0 0 1 239.7202 63.5278)" style="fill:#FCFCFC; font-family:'Montserrat-SemiBold'; font-size:18.2207px;">%</text>
</g>
</svg>
