<?xml version="1.0" encoding="utf-8"?>
<!-- Generator: Adobe Illustrator 27.5.0, SVG Export Plug-In . SVG Version: 6.00 Build 0)  -->
<svg version="1.1" xmlns="http://www.w3.org/2000/svg" xmlns:xlink="http://www.w3.org/1999/xlink" x="0px" y="0px"
	 viewBox="0 0 750 500" style="enable-background:new 0 0 750 500;" xml:space="preserve">
<g id="BACKGROUND">
	<rect id="XMLID_2_" y="0.259" style="fill:#FFFFFF;" width="750" height="500"/>
</g>
<g id="OBJECTS">
	<path style="fill:#F2E9DF;" d="M582.391,411.268c13.015-1.753,25.916-4.415,38.578-7.878c30.077-8.226,61.925-24.061,72.094-53.539
		c10.344-29.985-15.364-47.201-26.252-71.684c-10.044-22.587-2.299-50.368-13.506-72.402c-13.496-26.534-49.049-33.633-78.286-28.03
		c-13.548,2.596-26.966,7.221-40.74,6.456c-21.113-1.172-39.526-14.842-53.902-30.349C466,138.336,454.163,120.42,438.24,106.505
		c-18.045-15.77-40.581-25.67-63.696-31.997c-35.335-9.673-75.808-10.615-105.872,10.321c-33.188,23.112-46.34,67.346-79.038,91.146
		c-28.529,20.765-67.792,22.85-95.307,44.941c-18.638,14.964-29.85,38.023-32.967,61.721c-5.258,39.974,14.962,81.227,48.45,103.271
		c26.396,17.376,58.632,24.082,90.228,24.716c31.596,0.634,62.988-4.424,94.284-8.811c42.797-6,86.22-10.772,129.155-5.846
		c34.429,3.95,67.99,14.082,102.529,16.921C544.789,414.43,563.707,413.785,582.391,411.268z"/>
	
		<line style="fill:none;stroke:#F2E9DF;stroke-linecap:round;stroke-linejoin:round;stroke-miterlimit:10;" x1="182.464" y1="392.815" x2="622.327" y2="392.815"/>
	<g>
		<ellipse cx="152.318" cy="353.585" rx="36.784" ry="7.289"/>
		<g>
			<path style="fill:#61BA89;" d="M189.213,252.424c7.656,0.693,15.381-0.814,22.475-3.835c-1.514-1.413-2.869-3.002-3.916-4.792
				c-0.257-0.44,0.057-0.935,0.491-1.068c2.378-0.73,4.816,0.975,6.543,2.413c0.485,0.404,0.954,0.828,1.408,1.269
				c0.997-0.537,1.981-1.097,2.942-1.69c2.881-1.78,5.596-3.8,8.159-6.004c-0.054-0.042-0.111-0.081-0.166-0.124
				c-2.279-1.783-4.523-3.791-5.827-6.423c-0.267-0.538,0.131-1.043,0.68-1.086c2.706-0.212,5.251,1.564,7.207,3.232
				c0.496,0.423,0.978,0.872,1.448,1.337c4.003-3.894,7.6-8.231,10.821-12.796c5.975-8.468-5.418-14.872-13.571-17.235
				c-0.836,1.393-1.701,2.768-2.709,4.047c-1.471,1.867-3.341,3.821-5.795,4.232c-0.362,0.061-0.839-0.141-0.888-0.558
				c-0.318-2.725,1.324-5.102,3.176-6.935c0.605-0.599,1.264-1.154,1.945-1.687c-6.733-0.881-13.54,0.084-20.129,1.522
				c-3.089,0.674-5.985,1.275-8.792,2.107c-0.126,0.261-0.248,0.527-0.372,0.791c-0.186,0.632-0.475,1.22-0.833,1.777
				c-1.07,2.246-2.268,4.41-4.3,5.902c-0.447,0.329-1.35,0.149-1.248-0.565c0.326-2.29,1.381-4.448,2.69-6.335
				c0.043-0.062,0.092-0.123,0.136-0.185c-1.891,0.782-3.763,1.731-5.641,2.999c-7.898,5.328-17.732,14.014-14.415,24.598
				c0.98,3.127,2.109,6.298,4.216,8.807C178.378,250.223,183.902,251.943,189.213,252.424z M189.979,240.82
				c-0.045-0.307,0.087-0.604,0.323-0.77c0.19-0.243,0.509-0.396,0.802-0.285c0.309,0.116,0.61,0.247,0.904,0.389
				c1.081,0.339,2.056,1.027,2.666,1.969c0.719,0.786,1.286,1.711,1.619,2.792c0.177,0.576-0.435,0.98-0.934,0.876
				C192.933,245.286,190.359,243.412,189.979,240.82z"/>
			<path style="fill:#61BA89;" d="M100.371,161.331c1.232,5.473,3.228,10.808,5.924,15.736c2.658-1.303,6.09-1.298,8.662,0.133
				c0.405,0.225,0.588,0.83,0.322,1.228c-1.141,1.705-3.378,2.087-5.29,2.084c-0.561-0.001-1.135-0.04-1.712-0.103
				c3.415,5.342,7.712,10.085,12.841,13.817c2.762,2.01,5.785,3.74,9.094,4.587c4.499,1.152,8.537,0.279,12.35-2.208
				c8.604-5.613,9.547-17.132,6.405-26.203c-0.486,0.659-1.006,1.294-1.582,1.87c-0.805,0.806-1.778,1.586-2.913,1.845
				c-0.508,0.116-1.206-0.254-1.136-0.865c0.307-2.651,2.001-4.819,4.004-6.643c-0.011-0.021-0.021-0.042-0.032-0.063
				c-3.008-5.737-7.506-10.552-12.248-14.966c-7.354-6.844-18.456-8.917-27.995-11.022c-1.183-0.261-2.414-0.522-3.594-0.249
				C96.64,141.896,99.318,156.652,100.371,161.331z M125.224,155.68c0.161-0.671,0.522-1.332,1.061-1.773
				c0.181-0.148,0.388-0.274,0.634-0.263c0.236,0.01,0.466,0.089,0.634,0.263c0.404,0.418,0.58,0.92,0.63,1.489
				c0.036,0.413-0.015,0.831-0.017,1.244c-0.002,0.469-0.411,0.919-0.897,0.897c-0.005,0-0.009-0.003-0.014-0.003
				c-0.154,0.284-0.339,0.549-0.576,0.79c-0.224,0.228-0.566,0.315-0.873,0.231c-0.271-0.075-0.585-0.329-0.627-0.626
				C125.076,157.173,125.044,156.428,125.224,155.68z"/>
			<path style="fill:#61BA89;" d="M90.522,254.604c0.316-0.034,0.632-0.075,0.946-0.133c1.408-0.263,2.898-0.901,3.591-2.235
				c0.277-0.534-0.073-1.089-0.652-1.136c-1.162-0.095-2.335,0.057-3.48,0.359c1.225-8.337,3.884-16.462,7.855-23.894
				c0.282-0.527,0.573-1.052,0.873-1.573c0.278,0.009,0.554,0.014,0.824,0.014c2.43,0,5.307-0.294,7.268-1.877
				c0.358-0.289,0.262-0.995-0.153-1.186c-1.602-0.736-3.348-1.119-5.108-1.237c2.908-3.806,6.421-7.358,11.326-8.247
				c3.844-0.697,7.96,0.263,11.099,2.589c1.359,1.007,2.541,2.261,3.422,3.705c2.187,3.585,2.372,8.11,1.419,12.2
				c-1.095,4.699-4.039,8.879-6.868,12.718c-0.856-0.988-1.946-1.773-3.154-2.272c-0.859-0.354-2.033-0.476-2.548,0.297
				c-0.21,0.316-0.252,0.712-0.257,1.091c-0.023,1.827,0.697,3.652,1.962,4.97c0.305,0.318,0.67,0.693,0.582,1.125
				c-0.047,0.233-0.22,0.417-0.386,0.587c-0.934,0.962-11.082,13.14-11.556,12.277c-0.529-0.965-1.156-1.865-1.99-2.593
				c-0.444-0.388-1.359-0.172-1.289,0.534c0.121,1.217,0.495,2.355,0.972,3.458c-0.024,0.013-0.047,0.028-0.071,0.041
				c-2.935,1.533-8.506,4.179-11.689,2.19c-0.375-0.235-0.717-0.534-1.018-0.906C90.114,262.579,90.168,258.128,90.522,254.604z"/>
			<path style="fill:#61BA89;" d="M179.706,153.102c0.029,0.064,0.059,0.128,0.088,0.191c0.316,0.686,0.721,1.45,1.453,1.637
				c2.164,0.555-0.038-6.308-0.396-7.303c-0.191-0.53-0.423-1.056-0.47-1.617c-0.13-1.538,1.115-2.815,2.293-3.812
				c5.915-5.007,12.719-8.962,19.996-11.626c-1.107,1.512-0.019,3.603,1.058,5.137c0.252,0.358,0.543,0.744,0.972,0.836
				c0.9,0.192,1.445-0.968,1.553-1.881c0.207-1.744-0.83-5.293,0.678-6.632c0.435-0.386,1.05-0.476,1.627-0.549
				c3.813-0.485,7.627-0.969,11.44-1.454c6.712-0.853,7.224,3.906,6.824,9.593c-0.14,1.994-0.618,4.175-1.764,5.851
				c-1.196,1.75-1.834,3.28-2.516,5.361c-1.055,3.221-2.191,6.441-3.506,9.572c-0.086-0.005-0.172-0.012-0.258-0.015
				c-1.508-0.069-3.015-0.026-4.516,0.131c-0.48,0.05-0.842,0.602-0.855,1.048c-0.014,0.484,0.318,0.953,0.784,1.092
				c1.182,0.353,2.384,0.503,3.594,0.552c-1.55,3.292-3.351,6.447-5.584,9.324c-1.382,1.78-2.921,3.432-4.577,4.96
				c-3.496-1.798-7.602-2.972-11.261-1.769c-0.771,0.253-1.163,1.179-0.562,1.832c1.742,1.89,4.383,3.063,6.843,3.895
				c-0.723,0.492-1.455,0.972-2.206,1.42c-7.32,4.374-16.751,6.526-24.352,2.662c-6.17-3.136-7.452-9.919-6.764-16.233
				c0.355-3.255,1.285-6.453,2.739-9.387c0.396-0.799,5.478-7.524,5.506-7.463C178.278,150.003,178.992,151.553,179.706,153.102z"/>
			<path style="fill:none;stroke:#000000;stroke-width:2;stroke-linecap:round;stroke-linejoin:round;stroke-miterlimit:10;" d="
				M204.599,225.68c-11.585,3.664-22.691,8.658-33.61,13.951c-5.234,2.537-11.236,4.759-15.54,8.808
				c-4.072,3.831-6.01,9.969-6.867,15.359c-0.896,5.632-0.7,11.373-0.501,17.072c0.314,9.023,1.65,17.649,1.897,26.633
				c0.291,10.589,0.582,21.179,0.874,31.768"/>
			<path style="fill:none;stroke:#000000;stroke-width:2;stroke-linecap:round;stroke-linejoin:round;stroke-miterlimit:10;" d="
				M149.77,242.429c0.351-7.871,0.369-18.286-0.395-26.128c-1.076-11.042-4.766-22.316-11.335-31.256
				c-6.932-9.434-15.46-17.57-22.329-27.056"/>
			<path style="fill:none;stroke:#000000;stroke-width:2;stroke-linecap:round;stroke-linejoin:round;stroke-miterlimit:10;" d="
				M199.849,152.842c-3.647,10.085-12.496,17.215-20.869,23.916c-10.251,8.203-17.933,16.579-22.285,29.132
				c-7.021,20.247-6.924,34.702-8.236,59.885"/>
			<path style="fill:#E86F7B;" d="M150.699,356.664L150.699,356.664c11.919,0,21.874-9.082,22.965-20.951l2.472-26.885h-50.873
				l2.472,26.885C128.825,347.582,138.78,356.664,150.699,356.664z"/>
			<path d="M125.552,309.017c0,2.968,11.343,5.374,25.336,5.374c13.993,0,25.336-2.406,25.336-5.374
				c0-2.968-11.343-5.374-25.336-5.374C136.896,303.643,125.552,306.049,125.552,309.017z"/>
			<path style="fill:none;stroke:#000000;stroke-width:2;stroke-linecap:round;stroke-linejoin:round;stroke-miterlimit:10;" d="
				M149.437,239.916c-3.535-6.567-6.316-11.796-9.85-18.363c-1.311-2.436-2.65-4.909-4.604-6.867
				c-1.954-1.958-4.647-3.363-7.403-3.127c-3.323,0.284-6.012,2.824-7.942,5.544c-4.433,6.247-6.373,14.07-11.233,19.99"/>
		</g>
	</g>
	<g>
		<g>
			<polygon points="588.191,309.406 595.83,254.77 501.262,253.57 520.776,309.406 			"/>
			<polygon style="fill:#697AD1;" points="520.525,324.614 519.617,379.814 579.322,395.022 586.615,324.614 			"/>
			<polygon style="fill:#697AD1;" points="583.04,355.593 591.151,277.3 509.132,270.611 517.588,355.593 			"/>
			<g>
				<path style="fill:#8196EF;" d="M620.875,391.22l-43.693,3.866l-6.505-115.036c-0.73-12.912,8.459-24.244,20.524-25.311h0
					c12.065-1.068,22.438,8.534,23.168,21.446L620.875,391.22z"/>
				<path style="fill:#FFFFFF;" d="M616.463,391.61l-34.869,3.085l-6.444-113.954c-0.583-10.304,6.75-19.348,16.379-20.2l0,0
					c9.629-0.852,17.907,6.811,18.49,17.115L616.463,391.61z"/>
				<g>
					<defs>
						<path id="SVGID_1_" d="M616.463,391.61l-34.869,3.085l-6.444-113.954c-0.583-10.304,6.75-19.348,16.379-20.2l0,0
							c9.629-0.852,17.907,6.811,18.49,17.115L616.463,391.61z"/>
					</defs>
					<clipPath id="SVGID_00000091715551898174085480000016798596792695314853_">
						<use xlink:href="#SVGID_1_"  style="overflow:visible;"/>
					</clipPath>
					<g style="clip-path:url(#SVGID_00000091715551898174085480000016798596792695314853_);">
						
							<line style="fill:none;stroke:#000000;stroke-linecap:round;stroke-linejoin:round;stroke-miterlimit:10;" x1="577.034" y1="263.883" x2="584.416" y2="394.409"/>
						
							<line style="fill:none;stroke:#000000;stroke-linecap:round;stroke-linejoin:round;stroke-miterlimit:10;" x1="582.889" y1="263.365" x2="590.271" y2="393.891"/>
						
							<line style="fill:none;stroke:#000000;stroke-linecap:round;stroke-linejoin:round;stroke-miterlimit:10;" x1="588.744" y1="262.847" x2="596.125" y2="393.373"/>
						
							<line style="fill:none;stroke:#000000;stroke-linecap:round;stroke-linejoin:round;stroke-miterlimit:10;" x1="594.598" y1="262.329" x2="601.98" y2="392.855"/>
						
							<line style="fill:none;stroke:#000000;stroke-linecap:round;stroke-linejoin:round;stroke-miterlimit:10;" x1="600.453" y1="261.811" x2="607.834" y2="392.337"/>
						
							<line style="fill:none;stroke:#000000;stroke-linecap:round;stroke-linejoin:round;stroke-miterlimit:10;" x1="606.307" y1="261.293" x2="613.689" y2="391.819"/>
					</g>
				</g>
			</g>
		</g>
		<path style="fill:#E6B93E;" d="M320.398,393.279h-68.233V191.136c0-1.475,1.196-2.672,2.672-2.672h65.562V393.279z"/>
		<rect x="312.996" y="188.464" width="68.234" height="204.815"/>
		<polygon points="384.53,393.279 370.735,393.279 370.735,139.13 384.53,143.48 		"/>
		<path style="fill:#61BA89;" d="M426.99,393.279h-46.755V104.094c0-4.17,3.381-7.551,7.551-7.551h31.653
			c4.17,0,7.551,3.381,7.551,7.551V393.279z"/>
		<path style="fill:#E86F7B;" d="M371.575,393.279h-52.995V149.384c0-5.663,4.591-10.254,10.254-10.254h42.741V393.279z"/>
		<polygon points="471.294,393.279 458.971,393.279 458.971,182.704 471.294,189.228 		"/>
		<rect x="425.859" y="182.704" style="fill:#E6B93E;" width="34.733" height="210.575"/>
		<path style="fill:#B1C785;" d="M549.54,393.279h-25.674V213.036h21.336c2.396,0,4.337,1.942,4.337,4.337V393.279z"/>
		<rect x="503.026" y="213.036" width="25.674" height="180.243"/>
		<rect x="324.262" y="358.357" style="fill:#E6B93E;" width="40.555" height="18.587"/>
		<rect x="325.951" y="157.609" style="fill:#E6B93E;" width="40.555" height="5.069"/>
		<rect x="325.951" y="168.766" style="fill:#E6B93E;" width="40.555" height="8.446"/>
		<rect x="394.223" y="117.282" width="19.151" height="42.808"/>
		<path style="fill:#853894;" d="M523.231,393.279h-55.053V185.45c0-4.17,3.381-7.551,7.551-7.551h39.951
			c4.17,0,7.551,3.381,7.551,7.551V393.279z"/>
		<rect x="475.645" y="193.893" style="fill:#F5AD98;" width="39.558" height="10.378"/>
		<rect x="475.645" y="256.731" style="fill:#F5AD98;" width="39.558" height="10.378"/>
		<rect x="467.686" y="314.183" style="fill:#F5AD98;" width="56.126" height="28.874"/>
		<rect x="259.191" y="210.783" style="fill:#BA9632;" width="48.44" height="11.265"/>
		<rect x="259.191" y="229.934" style="fill:#BA9632;" width="48.44" height="11.265"/>
		<path style="fill:none;stroke:#000000;stroke-linecap:round;stroke-linejoin:round;stroke-miterlimit:10;" d="M425.859,362.212
			c0.331,9.963,0.331,20.837,0,31.067"/>
		<path style="fill:none;stroke:#000000;stroke-linecap:round;stroke-linejoin:round;stroke-miterlimit:10;" d="M425.859,182.704
			c0.331,53.546,0.331,107.916,0,161.531"/>
		
			<line style="fill:none;stroke:#000000;stroke-linecap:round;stroke-linejoin:round;stroke-miterlimit:10;" x1="523.867" y1="182.704" x2="523.867" y2="393.279"/>
		<path style="fill:none;stroke:#000000;stroke-linecap:round;stroke-linejoin:round;stroke-miterlimit:10;" d="M548.95,296.288
			c0.117,32.391,0.117,63.925-0.3,96.991"/>
		<path style="fill:none;stroke:#000000;stroke-linecap:round;stroke-linejoin:round;stroke-miterlimit:10;" d="M548.65,232.076
			c0.121,15.404,0.206,30.809,0.257,46.213"/>
		
			<ellipse transform="matrix(0.7071 -0.7071 0.7071 0.7071 -168.6112 306.2714)" style="fill:#BA9632;" cx="285.397" cy="356.667" rx="19.714" ry="19.714"/>
		
			<line style="fill:none;stroke:#000000;stroke-linecap:round;stroke-linejoin:round;stroke-miterlimit:10;" x1="388.746" y1="175.012" x2="388.746" y2="180.258"/>
		
			<line style="fill:none;stroke:#000000;stroke-linecap:round;stroke-linejoin:round;stroke-miterlimit:10;" x1="388.222" y1="185.505" x2="388.222" y2="205.448"/>
		
			<line style="fill:none;stroke:#000000;stroke-linecap:round;stroke-linejoin:round;stroke-miterlimit:10;" x1="417.077" y1="131.991" x2="417.077" y2="149.898"/>
		
			<line style="fill:none;stroke:#000000;stroke-linecap:round;stroke-linejoin:round;stroke-miterlimit:10;" x1="412.355" y1="240.592" x2="412.355" y2="270.497"/>
		
			<line style="fill:none;stroke:#000000;stroke-linecap:round;stroke-linejoin:round;stroke-miterlimit:10;" x1="433.866" y1="302.501" x2="433.866" y2="304.075"/>
		
			<line style="fill:none;stroke:#000000;stroke-linecap:round;stroke-linejoin:round;stroke-miterlimit:10;" x1="433.341" y1="319.289" x2="433.341" y2="336.086"/>
		
			<line style="fill:none;stroke:#000000;stroke-linecap:round;stroke-linejoin:round;stroke-miterlimit:10;" x1="438.063" y1="387.493" x2="445.483" y2="387.493"/>
		
			<line style="fill:none;stroke:#000000;stroke-linecap:round;stroke-linejoin:round;stroke-miterlimit:10;" x1="450.13" y1="389.067" x2="455.901" y2="389.067"/>
		
			<line style="fill:none;stroke:#000000;stroke-linecap:round;stroke-linejoin:round;stroke-miterlimit:10;" x1="497.873" y1="389.067" x2="512.048" y2="389.067"/>
		
			<line style="fill:none;stroke:#000000;stroke-linecap:round;stroke-linejoin:round;stroke-miterlimit:10;" x1="302.704" y1="257.381" x2="302.704" y2="268.935"/>
		
			<line style="fill:none;stroke:#000000;stroke-linecap:round;stroke-linejoin:round;stroke-miterlimit:10;" x1="302.18" y1="275.219" x2="302.18" y2="278.892"/>
	</g>
	<g>
		<path d="M474.924,301.909c-0.209,7.233,1.252,17.51,9.326,14.597c3.915-1.412,5.521-5.999,6.431-10.06
			c1.523-6.794,2.489-13.712,2.887-20.663c0.187-3.269,1.128-6.465,1.774-9.666c0.546-2.702,1.091-5.5,0.489-8.189
			c-0.602-2.69-2.679-5.255-5.424-5.508c-2.236-0.206-4.383,1.164-5.72,2.969c-1.336,1.805-2.013,4.001-2.667,6.15
			c-2.544,8.361-5.093,16.746-6.634,25.349C475.174,298.079,474.983,299.873,474.924,301.909z"/>
		<path d="M467.837,306.899c0.184,2.618,0.552,5.205,1.297,7.733c1.086,3.687,3.742,7.631,7.585,7.562
			c2.568-0.046,4.795-1.993,5.934-4.296c1.307-2.64,1.282-5.068,1.159-7.869c-0.153-3.489,0.427-6.955,0.523-10.464
			c0.214-7.825-0.735-15.641-2.166-23.322c-0.753-4.042-2.127-8.565-4.267-12.102c-1.592-2.63-4.028-4.895-7.021-5.595
			c-0.701-0.164-1.441-0.239-2.139-0.063c-1.238,0.311-2.155,1.352-2.827,2.437c-2.468,3.982-2.617,9-1.868,13.625
			c0.748,4.625,2.307,9.091,3.009,13.723C467.986,294.402,467.404,300.736,467.837,306.899z"/>
		<path style="fill:none;stroke:#853894;stroke-linecap:round;stroke-linejoin:round;stroke-miterlimit:10;" d="M483.091,316.755
			c0.244-9.346,0.488-18.691,0.732-28.037c0.114-4.36-1.785-6.998-4.839-9.926"/>
		<g>
			<g>
				<path style="fill:#697AD1;" d="M489.5,133.788c4.759,0.77,9.608,1.808,13.914,4.058c4.269,2.23,5.533,5.075,8.173,8.736
					c6.177,8.566,9.161,18.198,10.693,28.584c0.496,3.36,0.789,7.091-1.177,9.86c-1.734,2.442-4.796,3.503-7.686,4.29
					c-14.678,3.999-30.033,4.625-45.234,5.228c-10.759,0.427-21.639,0.846-32.198-1.261c-3.128-0.624-6.452-1.623-8.363-4.176
					c-1.507-2.013-1.863-4.658-1.881-7.172c-0.073-10.096,4.631-19.477,10.633-27.307c6.018-7.85,13.513-14.88,22.547-19.101
					C468.291,131.149,479.465,132.165,489.5,133.788z"/>
				<path style="fill:#697AD1;" d="M484.211,277.499c3.738,1.774,7.561,3.367,11.453,4.771
					c11.964-25.73,22.117-52.302,30.357-79.454c4.596-15.146,5.178-40.003-15.385-43.29c-14.535-2.324-20.233,14.286-22.629,25.029
					c-6.231,27.943-13.485,55.34-21.193,82.952C472.341,271.285,478.164,274.629,484.211,277.499z"/>
				<path style="fill:#697AD1;" d="M492.301,275.619c0.601-0.723,0.635-2.02,0.248-4.639c-3.857-26.098-7.648-52.205-11.472-78.307
					c-1.206-8.234-2.001-15.643-6.883-22.47c-6.208-8.682-14.79-9.402-24.911-6.681c-1.381,0.371-2.786,0.803-3.911,1.686
					c-1.174,0.922-1.942,2.26-2.598,3.601c-3.589,7.34-4.22,14.922-2.999,22.884c4.849,31.602,13.088,61.628,23.016,92.277
					c4.858-2.331,7.949-2.864,13.131-4.207c3.706-0.96,7.426-1.902,11.178-2.664C489.912,276.529,491.549,276.522,492.301,275.619z"
					/>
				<path style="fill:none;stroke:#000000;stroke-linecap:round;stroke-linejoin:round;stroke-miterlimit:10;" d="M445.694,165.123
					c6.423-4.129,15.022-4.624,21.876-1.258c6.854,3.366,10.309,8.865,11.458,16.414c4.664,30.64,9.103,61.314,13.317,92.02
					c0.11,0.805,0.219,0.983-0.344,1.569c-0.563,0.585-1.355,0.88-2.118,1.156c-3.334,1.209-9.616,4.072-12.95,5.281"/>
			</g>
			<g>
				<g>
					<path style="fill:#EB9D83;" d="M488.521,48.926c1.335,0.794,2.65,1.712,3.503,3.011c1.651,2.513,1.219,5.824,0.498,8.743
						c-0.346,1.401-0.744,2.789-1.194,4.16c-1.045,3.187-2.646,6.578-5.739,7.876c-3.398,1.426-7.505-0.362-9.704-3.318
						c-3.065-4.12-4.404-12.492-2.293-17.35C476.065,46.359,483.94,46.2,488.521,48.926z"/>
					<path d="M488.321,55.214c1.336,0.15,2.618,0.766,3.206,2.057c0.597,1.31,0.379,2.983,1.331,4.064
						c1.524-1.771,1.213-5.703,0.711-7.844c-0.624-2.661-2.119-5.165-4.372-6.754c-2.652-1.871-6.125-2.358-9.249-1.597
						c-1.548,0.377-3.003,1.063-4.267,2.034c-1.161,0.891-2.028,2.381-2.762,3.654c-0.572,0.992-0.784,2.148-0.904,3.286
						c-0.256,2.451-0.12,4.942,0.403,7.35c0.337,1.552,0.905-0.233,0.976-0.739c0.168-1.199,0.432-2.363,0.514-3.578
						c0.058-0.858,0.154-1.869,0.897-2.302c0.504-0.293,1.134-0.203,1.708-0.104c1.819,0.314,3.688,0.802,5.538,0.848
						c1.796,0.045,3.569-0.338,5.36-0.407C487.711,55.169,488.018,55.18,488.321,55.214z"/>
					<circle style="fill:#EB9D83;" cx="492.158" cy="61.122" r="2.379"/>
					<path style="fill:#EB9D83;" d="M476.053,61.46c0,1.421-1.152,2.574-2.574,2.574c-1.421,0-2.573-1.152-2.573-2.574
						c0-1.421,1.152-2.574,2.573-2.574C474.901,58.886,476.053,60.039,476.053,61.46z"/>
					<path d="M477.333,43.968c-0.736-1.951-0.281-4.287,1.095-5.854c1.376-1.567,3.603-2.318,5.656-1.957
						c0.83,0.146,1.623,0.458,2.386,0.816c0.643,0.301,1.281,0.644,1.786,1.143c1.064,1.052,1.393,2.717,1.016,4.165
						c-0.378,1.448-1.387,2.678-2.614,3.535c-1.335,0.933-3.498,2.059-5.176,1.683C479.641,47.087,478.002,45.741,477.333,43.968z"
						/>
					<g>
						<g>
							<path style="fill:none;stroke:#000000;stroke-linecap:round;stroke-linejoin:round;stroke-miterlimit:10;" d="
								M481.701,61.883c0,2.132-1.728,3.86-3.861,3.86c-2.132,0-3.86-1.728-3.86-3.86s1.728-3.861,3.86-3.861
								C479.973,58.023,481.701,59.751,481.701,61.883z"/>
							<path d="M478.484,61.561c0,0.355-0.288,0.644-0.644,0.644c-0.355,0-0.643-0.288-0.643-0.644c0-0.355,0.288-0.643,0.643-0.643
								C478.196,60.918,478.484,61.206,478.484,61.561z"/>
						</g>
						<g>
							<path style="fill:none;stroke:#000000;stroke-linecap:round;stroke-linejoin:round;stroke-miterlimit:10;" d="
								M491.245,61.883c0,2.132-1.728,3.86-3.861,3.86s-3.86-1.728-3.86-3.86s1.728-3.861,3.86-3.861S491.245,59.751,491.245,61.883
								z"/>
							<path d="M488.028,61.561c0,0.355-0.288,0.644-0.643,0.644c-0.355,0-0.643-0.288-0.643-0.644c0-0.355,0.288-0.643,0.643-0.643
								C487.74,60.918,488.028,61.206,488.028,61.561z"/>
						</g>
						
							<line style="fill:none;stroke:#000000;stroke-linecap:round;stroke-linejoin:round;stroke-miterlimit:10;" x1="481.701" y1="61.883" x2="483.524" y2="61.883"/>
					</g>
				</g>
				<g>
					<path d="M467.791,79.987c-12.639,0.204-21.502,5.704-28.633,15.757c-8.066,11.372-14.905,23.614-20.353,36.448
						c-1.126,2.653-2.197,5.682-1.066,8.333c1.423,3.336,5.532,4.413,9.095,5.092c10.173,1.938,20.319,4.017,30.435,6.238
						c9.332,2.049,18.396,1.868,27.928,1.934c18.073,0.126,37.271-3.529,53.815-10.885c1.255-0.558,2.547-1.176,3.396-2.255
						c0.857-1.088,1.155-2.517,1.23-3.9c0.216-3.967-1.174-7.832-2.672-11.512c-3.703-9.102-8.191-17.884-13.399-26.217
						c-4.458-7.134-8.398-13.554-16.613-16.883c-3.314-1.343-7.079-2.223-10.664-2.331c-2.709-0.082-5.157,0.778-7.922,0.596
						C484.184,79.865,475.99,79.855,467.791,79.987z"/>
					<g>
						<path style="fill:#F2E9DF;" d="M505.973,61.686c0.438-0.194,0.857-0.426,1.242-0.712c-0.057,0.329-0.074,0.665-0.053,0.998
							c0.201-0.086,0.402-0.172,0.603-0.258c-0.093,0.04,0.041,0.542,0.125,0.589c0.134,0.075,0.514-0.191,0.672-0.223
							c-0.077,0.219-0.047,0.473,0.078,0.668c0.165-0.07,0.331-0.14,0.496-0.21c-0.329,0.139,0.58,2.016,0.687,2.296
							c0.321,0.844,0.313,1.949,0.284,2.838c-0.063,1.899-0.59,3.771-1.406,5.481c-1.215,2.546-3.036,4.754-4.969,6.81
							c-2.941,3.128-6.555,5.111-10.672,6.254c-8.618,2.394-18.271,2.794-26.126-1.486c-2.416-1.316-4.638-3.087-6.126-5.401
							c-1.567-2.437-2.21-5.299-2.524-8.144c-0.207-1.243-0.153-2.52-0.29-3.769c-0.119-1.086-0.344-2.179-0.476-3.278
							c-0.035-0.294-0.605-0.224-0.498-0.221c-0.027-0.281,0.192-1.457,0.227-1.738c0.15-0.014,0.702,0.107,0.794,0.227
							c0.009-0.289-0.009-0.807,0-1.096c1.837,0.412,3.582,1.261,5.365,1.814c3.226,0.999,6.485,2.013,9.846,2.34
							c2.03,0.198,4.097,0.276,6.037,0.905c2.075,0.673,4.431,2.29,4.706,4.639c-0.339-2.902,2.593-4.583,4.9-5.49
							c3.253-1.279,6.637-1.565,10.058-2.119c1.678-0.271,3.348-0.599,4.991-1.036C504.63,62.181,505.323,61.974,505.973,61.686z"/>
						<path style="fill:#3B8AD4;" d="M485.52,111.842l25.117-7.27c0.172-0.05,0.29-0.207,0.29-0.386V62.822
							c0-0.267-0.257-0.46-0.513-0.386l-24.893,7.205V111.842z"/>
						<path style="fill:#222221;" d="M481.464,69.392c-0.624,0.735,1.973,0.903,2.23,0.903c0.332,0,2.68-0.131,2.487-0.826
							c-0.028-0.099-0.107-0.175-0.188-0.239c-0.669-0.528-1.597-0.542-2.449-0.504c-0.714,0.032-1.488,0.109-2.013,0.595
							C481.507,69.346,481.484,69.369,481.464,69.392z"/>
						<path style="fill:#3F74B0;" d="M481.597,111.842l-25.117-7.27c-0.172-0.05-0.29-0.207-0.29-0.386V62.822
							c0-0.267,0.257-0.46,0.513-0.386l24.893,7.205V111.842z"/>
						<path style="fill:#222D57;" d="M485.081,69.876c-0.757,0.285-1.595,0.239-2.368,0.061c-0.201-0.046-0.398-0.109-0.591-0.183
							c-0.213-0.082-0.46-0.196-0.669-0.354c-0.056,0.12-0.089,0.253-0.089,0.395c0,0,0,41.54,0,41.541
							c0,0.626,1.008,1.022,1.505,1.122c0.767,0.153,1.911,0.183,2.622-0.184c0.655-0.338,0.755-0.866,0.755-1.498
							c0-1.06,0-2.12,0-3.18c0-1.769,0-3.539,0-5.308c0-2.216,0-4.433,0-6.65c0-2.402,0-4.803,0-7.205c0-2.325,0-4.649,0-6.973
							c0-1.985,0-3.97,0-5.955c0-1.383,0-2.767,0-4.151c0-0.52,0-1.039,0-1.559c0-0.107-0.018-0.21-0.051-0.306
							c-0.038-0.109-0.166-0.158-0.259-0.09C485.673,69.594,485.389,69.761,485.081,69.876z"/>
						<path style="opacity:0.57;fill:#223365;" d="M476.676,96.819l-15.536-4.231c-0.106-0.029-0.179-0.108-0.179-0.194V72.49
							c0-0.129,0.159-0.214,0.318-0.171l15.398,4.193V96.819z"/>
					</g>
					<g>
						<path style="fill:#EB9D83;" d="M442.486,117.816c1.222,0.733,2.479,1.474,3.879,1.737c0.96,0.181,1.815,0.65,2.816,0.368
							c1.298-0.366,2.319-1.39,3.035-2.532c0.716-1.142,1.181-2.42,1.766-3.635c0.915-1.902,2.134-3.671,2.773-5.683
							c0.663-2.085,0.654-4.311,0.334-6.457c-0.287-1.92-1.003-3.748-0.783-5.712c0.094-0.841,0.273-1.194,0.054-2.038
							c-0.424-1.634-1.052-3.21-1.886-4.678c-0.29-0.51-0.659-1.18-1.145-1.532c-0.506-0.367-1.237-0.47-1.8-0.782
							c-0.394-0.219-2.121,1.915-2.326,2.232c-0.89,1.379-1.126,2.776-1.161,4.397c-0.061,2.767-0.122,5.533-0.183,8.3
							c-0.013,0.58-0.027,1.169-0.199,1.722c-0.18,0.578-0.524,1.09-0.875,1.583c-1.23,1.724-2.61,3.335-4.041,4.896
							c-0.812,0.885-1.655,1.776-2.155,2.868c-0.5,1.092-0.599,2.449,0.066,3.449c0.431,0.649,1.122,1.071,1.791,1.472
							C442.459,117.8,442.472,117.808,442.486,117.816z"/>
						<path style="fill:#EB9D83;" d="M465.184,95.218c-1.649,0.041-3.086-1.133-4.746-1.153c-3.392-0.042-6.655,1.275-8.418,4.282
							c-0.553,0.943,0.097,2.073,1.139,2.25c1.193,0.203,1.785-1.17,2.5-1.885c0.282-0.282,0.617-0.505,0.956-0.715
							c0.721-0.449,1.481-0.858,2.308-1.055c1.253-0.299,2.45,0.119,3.622,0.525c1.006,0.348,1.93,0.432,2.979,0.265
							C466.959,97.503,466.604,95.183,465.184,95.218z"/>
						<path style="fill:#EB9D83;" d="M467.553,93.628c0.072-0.315,0.028-0.629-0.221-0.848c-0.392-0.344-1.186-0.409-1.676-0.581
							c-0.612-0.215-1.133-0.583-1.686-0.925c-1.317-0.814-2.527-1.863-4.18-1.782c-1.556,0.076-3.1,0.924-4.478,1.588
							c-1.551,0.747-3.018,1.609-4.377,2.666c-1.732,1.347,0.481,4.004,2.294,2.974c1.346-0.765,2.639-1.618,3.999-2.362
							c0.416-0.228,0.826-0.468,1.249-0.684c0.298-0.152,0.569-0.4,0.88-0.506c0.805-0.275,1.787,0.17,2.51,0.49
							c0.539,0.239,1.078,0.477,1.617,0.715c0.539,0.239,1.086,0.48,1.668,0.578c0.582,0.098,1.212,0.04,1.705-0.283
							C467.152,94.471,467.456,94.049,467.553,93.628z"/>
						<path style="fill:#EB9D83;" d="M468.373,90.559c-0.053-0.408-0.298-0.8-0.691-1.01c-0.299-0.16-0.632-0.24-0.955-0.345
							c-0.385-0.126-0.654-0.345-0.991-0.545c-0.373-0.221-0.808-0.344-1.199-0.533c-1.458-0.703-3.062-1.784-4.722-1.859
							c-1.676-0.076-3.313,0.974-4.735,1.735c-1.556,0.833-3.222,1.713-4.549,2.886c-1.162,1.027,0.317,2.697,1.585,2.054
							c1.495-0.758,2.868-1.772,4.356-2.558c0.765-0.404,1.63-0.965,2.494-1.123c0.816-0.15,1.454,0.288,2.17,0.633
							c1.455,0.701,2.909,1.539,4.46,2.005c0.729,0.219,1.719,0.225,2.345-0.264C468.295,91.362,468.424,90.953,468.373,90.559z"/>
						<path style="fill:#EB9D83;" d="M466.084,85.983c-0.084-0.267-0.289-0.497-0.529-0.65c-0.529-0.337-1.23-0.493-1.812-0.733
							c-0.691-0.286-1.347-0.646-2.001-1.007c-1.48-0.815-2.939-1.493-4.622-0.819c-2.948,1.181-5.335,3.839-7.661,5.933
							c0.557,1.007,1.044,2.052,1.566,3.079c0.215-0.321,0.451-0.616,0.762-0.834c0.986-0.689,1.796-1.636,2.718-2.41
							c1.12-0.94,2.381-2.137,3.696-2.79c1.136-0.564,2.884,0.865,3.962,1.28c1.146,0.441,3.174,1.175,3.853-0.331
							c0.067-0.15,0.112-0.312,0.109-0.476C466.124,86.143,466.109,86.062,466.084,85.983z"/>
					</g>
					<g>
						<path style="fill:#EB9D83;" d="M522.496,119.921c-0.36,0.172-0.728,0.336-1.048,0.56c-1.027,0.721-1.869,1.301-3.131,1.651
							c-0.954,0.265-1.959,0.346-2.943,0.238c-1.185-0.131-2.392-0.574-3.153-1.491c-0.449-0.542-0.714-1.21-0.959-1.869
							c-1.085-2.915-1.943-5.916-2.562-8.964c-0.163-0.803-0.31-1.618-0.257-2.436c0.092-1.418,0.772-2.684,1.143-4.033
							c0.287-1.04,0.055-2.368,0.511-3.331c0.194-0.41,0.44-0.821,0.441-1.274c0.001-0.358-0.153-0.696-0.235-1.046
							c-0.281-1.2,0.385-2.539,0.913-3.577c0.255-0.502,0.646-1.005,0.829-1.533c0.23-0.663,0.335-1.104,0.832-1.663
							c0.905-1.015,2.042-1.1,3.124-0.312c0.484,0.353,0.908,0.758,1.392,1.1c0.982,0.694,1.244,2.083,1.254,3.192
							c0.025,2.534-0.28,5.071-0.905,7.527c-0.29,1.139-0.651,2.306-0.473,3.467c0.197,1.281,1.021,2.364,1.817,3.387
							c0.936,1.202,1.873,2.404,2.809,3.607c1.029,1.321,2.101,2.749,2.224,4.419c0.025,0.345,0.008,0.699-0.113,1.023
							C523.737,119.291,523.13,119.619,522.496,119.921z"/>
						<path style="fill:#EB9D83;" d="M501.403,98.762c1.649,0.041,3.086-1.133,4.746-1.153c3.392-0.042,6.655,1.275,8.418,4.282
							c0.553,0.943-0.097,2.073-1.139,2.25c-1.193,0.202-1.785-1.17-2.5-1.885c-0.282-0.282-0.617-0.505-0.956-0.715
							c-0.721-0.449-1.481-0.858-2.308-1.055c-1.253-0.299-2.45,0.119-3.622,0.525c-1.006,0.348-1.93,0.432-2.979,0.265
							C499.628,101.046,499.983,98.726,501.403,98.762z"/>
						<path style="fill:#EB9D83;" d="M499.059,97.237c-0.072-0.314-0.028-0.628,0.221-0.847c0.391-0.343,1.184-0.409,1.674-0.581
							c0.612-0.215,1.132-0.582,1.684-0.924c1.315-0.813,2.523-1.861,4.175-1.78c1.554,0.076,3.095,0.923,4.471,1.585
							c1.549,0.746,3.014,1.607,4.371,2.663c1.729,1.346-0.48,3.999-2.291,2.969c-1.344-0.764-2.636-1.616-3.993-2.359
							c-0.416-0.228-0.825-0.467-1.247-0.683c-0.297-0.152-0.568-0.399-0.879-0.505c-0.804-0.274-1.784,0.169-2.507,0.489
							c-0.538,0.238-1.076,0.476-1.614,0.714c-0.539,0.238-1.085,0.479-1.665,0.577c-0.581,0.098-1.21,0.04-1.703-0.283
							C499.459,98.079,499.155,97.658,499.059,97.237z"/>
						<path style="fill:#EB9D83;" d="M498.214,94.103c0.053-0.408,0.298-0.8,0.691-1.01c0.299-0.16,0.632-0.24,0.955-0.345
							c0.385-0.126,0.654-0.345,0.991-0.545c0.373-0.221,0.808-0.345,1.199-0.533c1.458-0.703,3.062-1.784,4.722-1.859
							c1.676-0.076,3.313,0.974,4.735,1.735c1.556,0.833,3.222,1.713,4.549,2.886c1.162,1.027-0.317,2.697-1.585,2.054
							c-1.495-0.758-2.868-1.772-4.356-2.558c-0.765-0.404-1.63-0.965-2.494-1.123c-0.816-0.15-1.454,0.287-2.17,0.633
							c-1.454,0.701-2.909,1.539-4.46,2.005c-0.729,0.219-1.719,0.225-2.345-0.264C498.292,94.905,498.163,94.497,498.214,94.103z"
							/>
						<path style="fill:#EB9D83;" d="M500.502,89.527c0.085-0.267,0.289-0.497,0.529-0.65c0.529-0.337,1.23-0.493,1.812-0.733
							c0.691-0.286,1.347-0.646,2.001-1.007c1.142-0.629,2.398-1.334,3.751-1.206c0.804,0.076,1.549,0.453,2.221,0.9
							c1.575,1.047,4.394,3.153,5.951,4.71c0.412,0.412-0.928,0.149-0.904,0.731c0.075,1.794-1.217,1.824-2.371,0.96
							c-0.372-0.278-0.733-0.589-1.028-0.947c-0.276-0.334-0.623-0.509-0.972-0.765c-0.834-0.61-1.533-1.378-2.318-2.046
							c-0.163-0.139-0.333-0.275-0.534-0.349c-0.39-0.145-0.876,0.072-1.257,0.172c-0.468,0.123-0.944,0.24-1.378,0.462
							c-0.52,0.267-1.026,0.633-1.584,0.819c-1.146,0.441-3.174,1.175-3.853-0.331c-0.068-0.15-0.112-0.312-0.109-0.476
							C500.463,89.687,500.477,89.605,500.502,89.527z"/>
					</g>
				</g>
				<path d="M453.186,116.381c1.403,0.818,2.855,1.776,3.494,3.268c1.142,2.67-0.775,5.586-2.588,7.854
					c-5.638,7.056-11.425,14.247-19.066,19.061c-3.871,2.438-8.84,4.211-12.936,2.175c-3.911-1.944-5.605-6.886-4.951-11.204
					c0.654-4.318,3.177-8.111,5.886-11.538c4.016-5.08,8.673-10.222,13.931-14.054C441.483,108.643,448.831,113.841,453.186,116.381
					z"/>
				<path d="M509.159,122.083c0.033,1.368,0.648,2.647,1.269,3.867c3.736,7.343,8.131,14.351,13.115,20.911
					c2.834,3.73,6.848,7.698,11.44,6.771c1.87-0.378,3.493-1.555,4.808-2.939c3.772-3.97,5.321-9.925,3.962-15.23
					c-0.917-3.579-3.013-6.723-5.073-9.789c-3.011-4.481-8.549-17.084-15.33-16.029c-2.823,0.439-5.674,3.581-8.016,5.075
					C512.658,116.426,509.071,118.406,509.159,122.083z"/>
				<path style="fill:none;stroke:#B1C785;stroke-linecap:round;stroke-linejoin:round;stroke-miterlimit:10;" d="M454.089,116.688
					c0.419,0.927-0.11,1.985-0.629,2.859c-5.343,9.001-11.141,17.732-17.366,26.147"/>
				<path style="fill:none;stroke:#B1C785;stroke-linecap:round;stroke-linejoin:round;stroke-miterlimit:10;" d="M441.815,110.554
					c-0.18-0.687-1.07-0.972-1.747-0.756c-0.677,0.216-1.18,0.772-1.649,1.306c-4.521,5.145-9.043,10.29-13.564,15.435"/>
				<path style="fill:none;stroke:#B1C785;stroke-linecap:round;stroke-linejoin:round;stroke-miterlimit:10;" d="M518.897,112.306
					c0.859-0.965,1.802-1.888,2.944-2.492c0.461-0.244,1-0.42,1.502-0.275c0.705,0.203,1.5,0.928,2.087,1.356
					c4.401,3.212,8.53,6.854,11.871,11.157"/>
				<path style="fill:none;stroke:#B1C785;stroke-linecap:round;stroke-linejoin:round;stroke-miterlimit:10;" d="M511.154,117.922
					c-0.576,0.296-1.529,0.861-1.637,1.571c-0.089,0.591,0.396,1.42,0.638,1.928c4.177,8.766,8.69,17.372,13.525,25.793"/>
			</g>
			<path style="fill:none;stroke:#000000;stroke-linecap:round;stroke-linejoin:round;stroke-miterlimit:10;" d="M440.453,193.441
				c-0.812-4.821-0.872-9.768-0.177-14.607"/>
			<path style="fill:none;stroke:#000000;stroke-linecap:round;stroke-linejoin:round;stroke-miterlimit:10;" d="M491.148,174.774
				c-2.358,5.99-4.258,12.158-6.096,18.324"/>
			<path style="fill:none;stroke:#000000;stroke-linecap:round;stroke-linejoin:round;stroke-miterlimit:10;" d="M519.512,163.759
				c-9.791-6.245-22.798-1.91-27.294,8.429"/>
		</g>
	</g>
	<g>
		<g>
			<path style="fill:#697AD1;" d="M342.664,377.437c-12.784-0.193-25.573-0.291-38.305-1.39c-5.599-0.483-11.226-1.16-16.822-0.64
				c-7.914,0.736-17.829,4.616-21.391,12.173c-4.6,9.76-1.672,16.46,6.048,22.892c7.178,5.98,15.787,9.967,24.218,13.832
				c6.568,3.01,13.14,6.01,19.703,9.032c4.235,1.95,8.06,5.557,12.619,6.489c12.484,2.553,26.644-2.813,37.482-8.529
				c11.413-6.02,25.25-13.616,29.668-26.612c2.062-6.066,1.5-13.277-2.579-18.218c-4.922-5.962-13.401-7.316-21.109-7.915
				C362.374,377.79,352.52,377.586,342.664,377.437z"/>
		</g>
		<g>
			<path d="M325.279,253.691c0.678-0.685,1.498-1.2,2.44-1.378c1.492-0.28,2.988,0.324,4.412,0.852
				c2.065,0.764,4.181,1.388,6.33,1.866c1.884,0.42,4.206,0.379,5.929,1.166c3.145,1.436,5.269,4.6,6.176,7.851
				c0.701,2.512,0.777,5.148,0.577,7.735c-0.181,2.338-0.44,4.36-2.143,6.121c-0.848,0.876-1.916,1.509-3.016,2.037
				c-4.785,2.295-10.441,2.712-15.511,1.145c-1.415-0.438-2.416-0.648-3.171-2.052c-1.529-2.844-1.785-6.192-1.749-9.421
				c0.013-1.167,0.06-2.333,0.141-3.497c0.072-1.027,0.355-1.849-0.361-2.678c-1.199-1.389-2.246-3.063-2.236-4.898
				c0.006-1.05,0.362-2.073,0.852-3.003C324.301,254.87,324.747,254.229,325.279,253.691z"/>
		</g>
		<path style="fill:#EB9D83;" d="M320.323,323.488c0.372-1.663,0.635-3.38,0.241-5.027c-0.69-2.888-4.826-7.308-7.764-7.846
			c-1.822-0.333-3.693,0.219-5.387,0.969c-8.973,3.973-12.538,12.097-18.222,19.34c-5.872,7.483-10.411,15.334-14.109,24.221
			c-1.777,4.271-3.387,8.71-3.579,13.332c-0.468,11.24,8.826,17.759,18.519,11.171c10.179-6.918,16.269-18.277,21.908-29.216
			c4.49-8.711,6.055-17.05,8.259-26.367C320.235,323.874,320.279,323.682,320.323,323.488z"/>
		<g>
			<path style="fill:#EB9D83;" d="M385.289,373.509c0.155,0.403,0.311,0.806,0.467,1.209c0.492,1.268,1.01,2.564,1.928,3.567
				c2.188,2.389,7.349,4.43,10.474,3.562c2.25-0.625,4.184-2.043,6.06-3.434c3.613-2.68,7.412-5.618,8.894-9.866
				c2.179-6.245-1.341-12.906-4.739-18.581c-3.447-5.757-6.895-11.514-10.342-17.271c-2.575-4.301-5.297-8.756-9.519-11.457
				c-6.462-4.135-17.309-1.178-17.17,7.774c0.02,1.301,0.355,2.574,0.693,3.83C375.743,346.614,380.169,360.195,385.289,373.509z"/>
		</g>
		<g>
			<path style="fill:#853894;" d="M312.164,351.864c-1.169,10.394-1.528,20.759-1.937,31.211c0.72,0.102,1.439,0.209,2.159,0.31
				c10.896,1.522,21.822,2.868,32.795,3.691c10.342,0.776,20.723,1.067,31.088,0.662c0-0.096-0.003-0.197-0.002-0.291
				c0.073-6.453-0.542-12.887-1.108-19.307c-0.445-5.043,0.863-12.166-2.019-16.4c10.952-4.613,21.829-9.417,32.743-14.119
				c-6.587-12.565-14.431-25.25-26.656-32.45c-13.023-7.671-29.397-8.977-44.16-8.927c-14.392,0.049-28.153,3.956-38.473,14.426
				c-9.199,9.332-15.158,21.326-20.411,33.331c1.924,1.258,4.134,0.395,6.223,0.568c3.396,0.282,6.926,1.407,10.27,2.084
				c1.651,0.334,19.659,3.738,19.631,3.975C312.258,351.041,312.211,351.453,312.164,351.864z"/>
		</g>
		<g>
			<path style="fill:#EB9D83;" d="M329.05,303.28c0.151,0.228,0.317,0.451,0.501,0.67c1.889,2.248,4.919,3.391,7.852,3.264
				c2.933-0.127,5.745-1.441,7.956-3.373c1.195-1.044,2.262-2.323,2.666-3.858c0.301-1.141,0.216-2.344,0.129-3.52
				c-0.301-4.084-0.653-8.165-0.805-12.258c-0.244-6.585,0.655-13.691-2.572-19.756c-1.953-3.671-5.734-6.396-9.46-5.606
				c-4.091,0.867-6.766,5.59-7.42,10.234c-0.654,4.644,0.203,9.365,0.503,14.055c0.148,2.312,0.256,4.627,0.156,6.943
				C328.372,294.334,326.528,299.466,329.05,303.28z"/>
		</g>
		<g>
			<path style="fill:#697AD1;" d="M423.089,375.646c-0.406-1.01-0.918-2.025-1.544-3.043c-2.207-3.586-4.567-7.323-8.236-9.391
				c-4.001-2.255-9.053-2.118-13.317-0.411c-6.858,2.746-12.373,9.275-17.729,14.165c-2.297,2.097-4.807,3.628-6.98,5.952
				c-4.599,4.921-9.322,9.726-14.163,14.409c-9.681,9.368-19.831,18.25-30.402,26.6c-0.528,0.418-1.058,0.834-1.589,1.249
				c-0.784,0.613-1.646,1.375-1.618,2.369c0.021,0.763,0.57,1.394,1.089,1.953c3.572,3.855,7.144,7.71,10.716,11.566
				c1.658,1.789,3.393,3.633,5.658,4.536c4.6,1.835,12.34-4.87,16.169-7.357c10.964-7.12,22.622-13.119,33.426-20.492
				c5.531-3.775,10.281-8.182,15.387-12.453C418.87,397.845,427.668,387.032,423.089,375.646z"/>
		</g>
		<g>
			<path d="M323.093,451.208c-3.545,1.518-7.283,2.392-11.013,2.084c-6.449-0.533-14.285-6.26-11.259-13.44
				c3.092-7.336,15.542-7.09,21.829-9.065c4.572-1.436,9.505-4.196,14.449-3.364c5.09,0.856,5.71,5.832,3.516,9.995
				c-1.23,2.334-3.204,4.18-5.223,5.878C331.895,446.236,327.654,449.255,323.093,451.208z"/>
		</g>
		<g>
			<path d="M373.389,427.037c-3.86-0.376-7.831,0.022-11.345-1.033c-3.763-1.13-6.025-5.609-10.135-6.072
				c-4.541-0.511-8.055,5.014-9.965,8.755c-1.709,3.348-2.62,7.495-0.835,10.803c2.363,4.378,8.116,5.325,13.07,5.771
				c3.323,0.3,6.646,0.599,9.969,0.899c0.889,0.08,1.828,0.178,2.548,0.706c0.589,0.432,0.954,1.098,1.3,1.742
				c2.542,4.729,5.085,9.457,7.627,14.186c2.06,3.831,4.848,7.903,9.29,9.199c1.642,0.479,3.693,0.021,4.505-1.485
				c0.579-1.074,0.409-2.381,0.214-3.586c-1.933-11.947-4.771-23.747-8.482-35.267c-0.287-0.891-0.598-1.813-1.243-2.492
				c-0.678-0.714-1.642-1.071-2.581-1.369C376.043,427.389,374.723,427.167,373.389,427.037z"/>
		</g>
		<g>
			<path style="fill:#697AD1;" d="M365.218,430.797c0.743-3.113,1.486-6.226,2.229-9.338c-15.164-6.76-30.469-13.602-43.779-23.529
				c-10.049-7.495-19.567-16.755-31.049-22.018c-3.587-1.644-7.386-2.997-11.328-3.172c-17.72-0.786-22.204,22.164-15.798,34.922
				c2.606,5.191,6.802,9.474,11.585,12.769c7.565,5.213,16.452,7.902,24.896,11.279c18.344,7.336,37.086,13.488,55.534,20.462
				c0.741,0.28,1.647,0.539,2.266,0.043c0.394-0.316,0.534-0.844,0.651-1.335C362.023,444.186,363.62,437.492,365.218,430.797z"/>
		</g>
		<g>
			<g>
				<path style="fill:#FDFFD0;" d="M341.93,326.734c0.065,0.016,0.131,0.029,0.199,0.038c0.921,0.121,1.731-0.523,2.397-1.121
					c1.808-1.622,3.537-2.665,5.668-3.869c4.823-2.725,9.97-5.539,15.629-5.543c2.264-0.002,4.687,0.548,6.159,2.131
					c0.154,0.166,0.297,0.342,0.408,0.535c0.362,0.628,0.364,1.374,0.347,2.086c-0.039,1.676-0.394,15.572-1.909,15.917
					c-0.697,0.159-28.523,6.5-28.523,6.5s-32.334-14.22-32.334-14.22c0.08,0.035-0.852-3.967-0.926-4.368
					c-0.448-2.413-0.426-4.848,0.228-7.23c0.101-0.368,0.229-0.753,0.535-1.007c0.355-0.295,0.868-0.349,1.345-0.38
					c10.661-0.706,21.576,2.875,29.347,9.629C340.924,326.199,341.377,326.594,341.93,326.734z"/>
			</g>
			<g>
				<polygon style="fill:#B1C785;" points="344.007,327.608 374.639,319.708 375.578,369.607 345.546,375.481 				"/>
			</g>
			<g>
				<path style="fill:#12002C;" d="M345.546,326.753c-1.538-0.725-2.07-0.868-3.24-0.725c-0.964,0.118-3.404,0-3.797,1.202v47.784
					c-0.253,0.591-0.163,1.323,0.519,1.654c1.336,0.647,3.165,0.91,4.576,0.345c0.682-0.273,1.32-0.836,1.573-1.531h0.369V326.753z"
					/>
			</g>
			<g>
				<path style="fill:#B1C785;" d="M306.568,318.128l2.031,48.205l29.91,9.148v-42.662c0-1.322,0.465-3.828,0.036-5.136
					C329.053,324.494,306.568,318.128,306.568,318.128z"/>
			</g>
		</g>
		<g>
			<path d="M324.968,262.72c0.664,1.223,1.788,2.216,3.143,2.49c1.196,0.242,2.424-0.08,3.611-0.363
				c3.292-0.783,6.557-1.619,9.974-1.506c1.157,0.038,2.468,0.201,3.045,1.319c0.666,1.293,0.837,2.777,1.054,4.194
				c0.015,0.097,0.034,0.203,0.108,0.268c0.08,0.071,0.199,0.072,0.306,0.068c0.484-0.019,1.003-0.077,1.367-0.397
				c0.218-0.191,0.357-0.456,0.468-0.724c0.489-1.178,0.278-2.552,0.122-3.797c-0.175-1.389-0.645-2.728-1.478-3.862
				c-1.198-1.63-2.902-2.827-4.702-3.752c-0.988-0.508-2.019-0.944-3.098-1.21c-1.888-0.464-3.865-0.393-5.785-0.697
				c-1.826-0.288-3.726-0.91-5.471-0.299c-3.177,1.111-4.089,4.829-2.937,7.686C324.774,262.338,324.865,262.531,324.968,262.72z"/>
		</g>
		<g>
			<path style="fill:#EB9D83;" d="M350.084,272.408c0.072,1.942-1.507,3.955-3.534,3.955c-2.874,0-4.806-4.185-2.609-6.196
				c0.852-0.78,2.062-1.162,3.202-0.975c1.139,0.187,2.177,0.952,2.658,2.001C349.978,271.582,350.069,271.993,350.084,272.408z"/>
		</g>
		<g>
			<path style="fill:#EB9D83;" d="M330.448,272.409c0,2.184-1.567,3.955-3.501,3.955c-1.933,0-3.5-1.77-3.5-3.955
				c0-2.184,1.567-3.955,3.5-3.955C328.881,268.454,330.448,270.225,330.448,272.409z"/>
		</g>
		<g>
			<defs>
				<path id="SVGID_00000165940905218715575810000002429812343140201637_" d="M326.887,304.768c0.071,2.159,0.527,4.215,1.731,5.931
					c2.588,3.687,7.732,6.452,11.859,5.455c5.492-1.327,8.525-7.387,8.07-13.298c-0.677-8.79-0.883-17.232-1.196-26.036
					c-0.152-4.279-0.622-8.702-2.575-12.373c-1.953-3.671-5.734-6.396-9.46-5.606c-4.091,0.867-6.766,5.59-7.42,10.234
					c-0.654,4.644,0.203,9.365,0.503,14.055c0.137,2.138,0.158,4.283,0.063,6.423c-0.091,2.055-0.193,3.999-0.832,5.986
					c-0.16,0.497-0.342,0.987-0.47,1.493c-0.135,0.533-0.208,1.079-0.267,1.626c-0.117,1.084-0.179,2.173-0.187,3.264
					C326.701,302.892,326.856,303.805,326.887,304.768z"/>
			</defs>
			<clipPath id="SVGID_00000078025396112715651950000005859962670581028027_">
				<use xlink:href="#SVGID_00000165940905218715575810000002429812343140201637_"  style="overflow:visible;"/>
			</clipPath>
			<g style="clip-path:url(#SVGID_00000078025396112715651950000005859962670581028027_);">
				<path d="M332.373,285.523c1.652,0.49,3.572,0.52,5.102,0.466c0.45-0.016,0.99-0.005,1.229,0.377
					c0.155,0.248,0.118,0.572,0.015,0.845c-0.362,0.956-1.402,1.49-2.409,1.666c-1.007,0.175-2.044,0.081-3.055,0.229
					c-1.537,0.225-2.601,0.897-3.562,2.043c-0.455,0.543-0.966,1.08-1.632,1.322c-2.003,0.728-2.017-1.753-1.9-3.068
					c0.086-0.967,0.272-1.924,0.477-2.872c0.102-0.47,0.277-0.832,0.43-1.272c0.196-0.56,0.131-1.351,0.623-1.764
					c0.386-0.323,0.981-0.243,1.415,0.011c0.434,0.254,0.767,0.648,1.157,0.965C330.859,284.952,331.586,285.29,332.373,285.523z"/>
			</g>
		</g>
		<path style="fill:none;stroke:#000000;stroke-linecap:round;stroke-linejoin:round;stroke-miterlimit:10;" d="M348.463,271.304
			c-1.153-0.335-2.507,0.347-2.924,1.472"/>
		<path style="fill:none;stroke:#000000;stroke-linecap:round;stroke-linejoin:round;stroke-miterlimit:10;" d="M326.103,270.886
			c0.563-0.13,1.183,0.016,1.629,0.384c0.561,0.463,0.803,1.198,1.02,1.892"/>
		<path style="fill:none;stroke:#000000;stroke-linecap:round;stroke-linejoin:round;stroke-miterlimit:10;" d="M333.813,277.797
			c0.932,0.883,2.222,1.377,3.506,1.343c1.284-0.034,2.545-0.596,3.429-1.527"/>
		<path style="fill:#EB9D83;" d="M324.103,370.042c8.645,2.156,18.099,6.058,27.125,4.466c-3.707,5.389-10.498,8.485-16.997,7.751
			c-1.212-0.137-2.433-0.396-3.641-0.226c-1.186,0.167-2.271,0.736-3.341,1.276c-10.37,5.239-21.662,8.763-33.282,9.358
			c-3.597,0.184-7.273,0.222-10.716-0.837c-12.542-3.858-13.799-18.377-10.827-29.076c0.252-0.908,0.561-1.853,1.258-2.487
			c1.021-0.929,2.562-0.931,3.935-0.79c2.455,0.251,4.872,0.782,7.281,1.318C298.005,363.711,311.075,366.794,324.103,370.042z"/>
		<path style="fill:#EB9D83;" d="M412.209,382.239c-3.532,2.593-8.495,3.136-12.997,2.817c-11.979-0.85-27.173-5.588-37.136-12.288
			c-3.968-2.669-8.961-5.835-9.467-11.08c-0.945-9.815,13.689-5.977,19.18-5.612c13.093,0.87,25.772,2.116,38.842,1.319
			c0.706-0.043,1.491-0.061,2.026,0.402c0.315,0.273,0.488,0.672,0.65,1.057c1.472,3.484,2.958,7.022,3.441,10.773
			c0.483,3.751-0.155,7.809-2.553,10.734C413.606,381.081,412.938,381.704,412.209,382.239z"/>
		<path style="fill:#EB9D83;" d="M363.79,359.951c-0.04-1.546-0.315-2.999-0.776-4.062c-1.961-4.525-6.288-7.221-8.476-11.621
			c-0.379-0.762-0.837-1.579-1.633-1.881c-2.134-0.81-1.849,2.435-1.533,3.506c0.344,1.166,1.465,2.696,1.353,3.938
			c-0.105,1.167-1.488,1.22-2.466,1.057c-4.5-0.75-8.568-3.069-12.907-4.477c-0.701-0.228-1.582-0.39-2.083,0.152
			c-1.14,1.233,0.481,2.402,1.439,2.877c1.713,0.849,3.465,1.621,5.247,2.313c1.405,0.545,2.914,0.614,3.983,1.792
			c-0.216,0.134-0.426,0.113-0.679,0.057c-3.852-0.847-7.304-2.957-11.058-4.168c-0.775-0.25-1.687-0.443-2.354,0.026
			c-0.434,0.305-0.666,0.874-0.57,1.396c0.153,0.829,1.148,1.279,1.835,1.611c3.597,1.739,7.369,2.776,11.16,3.963
			c0.254,0.08,0.52,0.166,0.702,0.36c0.182,0.194,0.24,0.531,0.052,0.719c0.022-0.022-2.137-0.486-2.351-0.53
			c-0.987-0.201-1.988-0.741-2.932-1.095c-1.952-0.732-3.913-1.442-5.881-2.128c-0.712-0.248-1.462-0.497-2.204-0.369
			c-1.119,0.192-1.97,1.569-1.016,2.451c1.198,1.108,3.244,1.566,4.76,2.049c0.594,0.189,1.027,0.536,1.602,0.72
			c1.096,0.35,2.191,0.699,3.287,1.049c0.954,0.305,1.784,0.715,2.725,0.993c0.383,0.113,0.722,0.633,0.408,0.88
			c-0.142,0.112-0.343,0.094-0.522,0.069c-2.534-0.356-5.019-1.054-7.368-2.071c-0.621-0.269-1.259-0.566-1.936-0.553
			s-1.402,0.446-1.491,1.117c-0.21,1.595,2.829,2.693,3.937,3.165c0.993,0.424,2.066,0.558,3.049,0.952
			c2.111,0.846,4.313,1.495,6.402,2.457c2.301,1.059,4.58,1.784,7.096,2.13c2.361,0.324,5.114,0.669,7.347-0.301
			c0.189-0.082,0.333-0.188,0.451-0.305C362.902,366.917,363.875,363.226,363.79,359.951z"/>
		<path style="fill:none;stroke:#000000;stroke-linecap:round;stroke-linejoin:round;stroke-miterlimit:10;" d="M304.45,365.307
			c-4.248-1.634-8.849-2.343-13.393-2.065"/>
		<path style="fill:none;stroke:#000000;stroke-linecap:round;stroke-linejoin:round;stroke-miterlimit:10;" d="M379.198,356.432
			c6.391-0.23,12.799,0.027,19.15,0.768"/>
		<path style="fill:none;stroke:#000000;stroke-linecap:round;stroke-linejoin:round;stroke-miterlimit:10;" d="M274.452,377.659
			c-0.316,1.878,0.327,3.892,1.672,5.241"/>
		<path style="fill:none;stroke:#000000;stroke-linecap:round;stroke-linejoin:round;stroke-miterlimit:10;" d="M412.971,373.108
			c0.89,2.199,0.04,4.967-1.932,6.287"/>
		<path style="fill:none;stroke:#000000;stroke-linecap:round;stroke-linejoin:round;stroke-miterlimit:10;" d="M331.806,382.567
			c-0.88-0.764-1.993-1.254-3.151-1.386"/>
		<path style="fill:#EB9D83;" d="M329.813,367.036c1.813-0.46,3.446-1.435,5.062-2.376c0.641-0.373,1.369-0.757,2.087-0.574
			c0.971,0.247,1.416,1.49,1.104,2.442c-0.312,0.952-1.157,1.63-2.033,2.118c-0.875,0.487-1.829,0.847-2.624,1.458
			c-0.795,0.61-1.429,1.563-1.305,2.557c0.063,0.507,0.317,0.99,0.283,1.499c-0.072,1.086-2.189,1.133-2.975,1.189
			c-2.673,0.192-5.992,0.055-8.409-1.2c-1.137-0.59-2.245-1.826-1.552-3.209c0.354-0.707,1.276-1.043,1.886-1.489
			c1.042-0.761,1.967-1.361,3.255-1.645C326.307,367.428,328.098,367.469,329.813,367.036z"/>
		<path style="fill:none;stroke:#000000;stroke-linecap:round;stroke-linejoin:round;stroke-miterlimit:10;" d="M316.464,393.646
			c7.701,3.379,14.998,7.68,21.683,12.782c4.749,3.624,9.316,7.71,14.722,10.353c1.195,0.585,15.305,3.682,15.253,4.01
			c-0.284,1.84-1.057,4.358-1.341,6.198"/>
		<path style="fill:none;stroke:#000000;stroke-linecap:round;stroke-linejoin:round;stroke-miterlimit:10;" d="M372.552,385.367
			c-6.865,8.132-15.133,17.567-22.985,24.751c-1.154,1.056-2.385,1.634-3.772,2.356"/>
		<path style="fill:none;stroke:#853894;stroke-miterlimit:10;" d="M371.36,449.39c-1.146,1.001-2.084,2.24-2.734,3.615
			c-0.239,0.504-0.441,1.087-0.243,1.608c0.318,0.839,1.439,1.007,2.327,0.872c1.175-0.178,2.305-0.651,3.257-1.361
			c-1.387,0.77-2.4,2.183-2.682,3.744c-0.117,0.649-0.027,1.468,0.573,1.742c0.272,0.124,0.585,0.101,0.881,0.061
			c1.096-0.15,2.165-0.501,3.136-1.031"/>
	</g>
	<g>
		<path d="M94.905,391.638c2.031-0.481,4.174-0.675,6.249-0.938c2.514-0.319,5.011-0.767,7.478-1.342
			c0.777-0.181,1.581-0.39,2.193-0.902c2.975-2.49,0.083-10.09-0.099-13.236c-0.294-5.079-0.024-10.191,0.802-15.211
			c0.518-3.149,1.502-6.986,4.245-8.973c2.943-2.133,6.217-0.652,9.376,0.746c1.909,0.845,3.784,1.947,5.002,3.643
			c1.796,2.499,1.863,5.803,1.861,8.881c-0.003,6.181,0.095,12.146-0.352,18.41c-0.427,5.124-0.235,10.213-0.052,15.353
			c0.023,0.665,0.044,1.351-0.198,1.971c-0.68,1.743-2.945,2.109-4.814,2.188c-13.086,0.556-26.175-0.082-39.25-0.182
			c-0.328-0.003-0.674-0.011-0.953-0.182c-0.591-0.362-0.582-1.217-0.434-1.895c0.574-2.619,2.198-4.993,4.432-6.477
			C91.767,392.577,93.301,392.018,94.905,391.638z"/>
		<path d="M84.122,407.532c-9.959,0.086-19.078-0.806-19.012-4.529c0.027-1.55,1.152-2.843,2.276-3.911
			c6.914-6.574,16.397-10.374,25.938-10.393c0.405-2.914,0.81-5.829,1.215-8.744c0.794-5.718,1.868-13.289,6.402-17.357
			c2.182-1.957,5.383-2.974,8.133-1.96c3.414,1.259,5.124,5.101,5.738,8.688c0.837,4.897,0.318,9.916-0.323,14.842
			c-0.829,6.371-1.856,12.715-2.884,19.057c-0.138,0.853-0.317,1.781-0.978,2.338c-0.603,0.509-1.453,0.574-2.241,0.614
			C105.368,406.332,94.306,407.444,84.122,407.532z"/>
		<path style="fill:#EB9D83;" d="M183.23,316.047c-3.392-5.157-7.441-9.695-13.675-11.664c-2.574-0.813-5.507-0.99-7.868,0.319
			c-3.794,2.104-4.767,7.405-3.315,11.493c1.421,4.002,2.978,6.823,6.895,8.517c3.793,1.641,7.938,2.384,11.545,4.469
			c1.668,0.964,3.177,2.189,4.871,3.106c1.694,0.917,3.668,1.519,5.546,1.093c1.878-0.426,3.55-2.131,3.43-4.054
			c-0.067-1.079-0.653-2.047-1.223-2.966C187.365,323.018,185.437,319.401,183.23,316.047z"/>
		<path d="M134.381,349.847c-1.939-12.981-4.627-25.805-9.184-38.087c5.375,5.432,9.701,11.893,12.709,18.917
			c2.986,6.97,4.295,13.683,9.538,19.592c5.224,5.888,9.734,12.517,15.758,17.747c5.901,5.123,13.132,9.029,20.918,9.696
			c4.851,0.416,9.746-0.433,14.385-1.911c4.024-1.282,8-3.11,10.91-6.17c8.744-9.197-1.144-19.606-7.158-27.232
			c-11.677-14.806-23.361-29.621-35.838-43.759c-3.75-4.249-7.591-8.455-12.01-12.002c-6.652-5.34-14.565-9.101-22.907-10.886
			c-4.495-0.962-9.205-1.351-13.671-0.263c-4.309,1.05-8.206,3.436-11.535,6.368c-12.095,10.653-16.47,27.803-16.385,43.921
			c0.049,9.324,1.371,18.573,2.75,27.776c0.692,4.614,1.409,9.225,1.99,13.855c0.452,3.599,0.353,8.412,3.201,11.144
			c2.649,2.541,6.773,2.634,10.154,2.522c5.137-0.17,10.259-0.77,15.296-1.79c1.321-0.267,14.318-3.108,14.21-4.084
			C136.582,366.753,135.639,358.267,134.381,349.847z"/>
		<g>
			<path d="M110.061,361.488c-0.299,0.359-0.587,0.724-0.862,1.095c-2.642,3.558-3.973,7.894-5.986,11.842
				c-0.958,1.878-2.231,3.806-4.226,4.485c-6.301,2.146-4.999-8.719-1.029-10.434c1.939-0.836,3.503-0.85,4.927-2.451
				c1.407-1.582,2.198-4.126,3.423-5.907c1.702-2.475,3.652-4.665,5.02-7.366c1.826-3.605,3.025-7.514,4.261-11.351
				c1.057-3.281,0.798-6.797,3.504-9.309c0.468-0.435,1.029-0.836,1.668-0.857c1.083-0.035,1.872,0.996,2.373,1.956
				c2.127,4.071,2.654,8.775,4.248,13.083c2.536,6.855,6.846,14.027,5.674,21.649c-1.325-4.147-5.829-6.333-8.337-9.891
				c-1.182-1.677-1.905-3.646-3.122-5.298c-0.188-0.255-0.41-0.517-0.718-0.594c-0.448-0.112-0.879,0.206-1.231,0.505
				C116.458,355.354,112.792,358.207,110.061,361.488z"/>
		</g>
		<path style="fill:#697AD1;" d="M208.984,301.904c4.104-8.811,8.289-17.628,13.953-25.559c2.331-3.265,4.965-6.417,8.371-8.537
			c1.39-0.865,2.963-1.561,4.599-1.505c4.73,0.163,3.915,6.409,5.373,9.637c3.992,8.839,8.978,17.345,9.928,27.193
			c1.25,12.963-2.165,25.889-5.952,38.349c-1.634,5.375-2.101,10.583-5.329,15.233c-3.601,5.187-7.302,10.303-11.102,15.346
			c-1.258,1.67-2.781,3.477-4.866,3.639c-1.181,0.092-2.325-0.378-3.416-0.838c-10.78-4.544-21.73-9.19-30.748-16.642
			c-2.61-2.157-5.197-4.854-5.464-8.229c-0.417-5.278,3.214-10.421,6.018-14.54c6.475-9.512,11.981-19.305,16.853-29.727
			C207.798,304.455,208.391,303.18,208.984,301.904z"/>
		<g>
			<path style="fill:#853894;" d="M174.061,250.636l-11.204,10.732c-0.094,0.09-0.14,0.22-0.123,0.349l1.487,11.445
				c0.025,0.191,0.178,0.338,0.37,0.355l10.634,0.957c0.246,0.022,0.456-0.177,0.446-0.424l-0.917-23.134
				C174.74,250.563,174.316,250.391,174.061,250.636z"/>
			<path style="fill:#FFFFFF;" d="M191.515,264.075c-0.089-0.309-0.339-0.542-0.592-0.742c-1.388-1.099-3.11-1.686-4.829-2.112
				c-1.452-0.359-2.929-0.613-4.417-0.763c-0.833-0.084-1.672-0.088-2.508-0.093c-0.402-0.002-0.804-0.003-1.206-0.014
				c-0.306-0.009-0.899,0.176-1.128-0.08c-0.266-0.297-0.177-1.443-0.21-1.839c-0.105-1.279-0.164-2.562-0.176-3.846
				c-0.011-1.167,0.004-2.387-0.526-3.426c-0.635,0.643-1.25,1.306-1.845,1.986c-0.499,0.57-1.055,1.007-1.603,1.529
				c-0.859,0.818-1.742,1.61-2.6,2.429c-1.616,1.54-3.962,3.505-5.488,5.135c-0.439,0.47-0.223,0.655-0.076,1.257
				c0.068,0.28,0.51,0.38,0.548,0.666c0.097,0.744,0.193,1.487,0.29,2.231c0.23,1.77,0.46,3.539,0.69,5.309
				c0.132,1.016,0.264,2.033,0.396,3.049c4.172-1.664,8.344-3.329,12.517-4.993c2.694-1.075,5.387-2.149,8.081-3.224
				C187.542,266.251,191.791,265.038,191.515,264.075z"/>
			<polygon style="fill:#853894;" points="165.462,262.994 194.08,263.88 201.709,318.977 173.08,317.384 			"/>
			<path d="M163.225,261.285c1.088,1.182,2.412,1.805,4.017,1.761c0.155-0.004,0.291,0.104,0.309,0.259l6.085,53.904
				c0.025,0.221-0.191,0.392-0.4,0.316l-4.852-1.752c-0.109-0.039-0.185-0.137-0.197-0.252l-5.479-54.009
				C162.677,261.223,163.029,261.072,163.225,261.285z"/>
			<path style="fill:none;stroke:#000000;stroke-linecap:round;stroke-linejoin:round;stroke-miterlimit:10;" d="M176.964,259.761
				c-3.503-0.033-7.012,0.606-10.28,1.871"/>
		</g>
		<path style="fill:#EB9D83;" d="M194.199,305.929c-0.084-0.16-0.167-0.321-0.249-0.483c-1.312-2.579-2.137-5.461-3.892-7.793
			c-0.984-1.309-2.175-2.445-3.36-3.575c-0.674-0.736-1.529-1.262-2.231-1.934c-0.773-0.739-1.313-1.833-1.907-2.72
			c-0.175-0.262-0.357-0.531-0.616-0.711c-0.505-0.351-1.269-0.258-1.675,0.204c-1.14,1.298,0.897,3.461,1.66,4.378
			c0.535,0.643,1.65,1.279,1.98,2.027c0.089,0.202,0.063,0.474-0.12,0.6c-0.278,0.191-0.637-0.07-0.87-0.313
			c-1.7-1.77-3.378-3.56-5.134-5.274c-1.388-1.354-2.738-2.749-4.217-4.005c-0.521-0.442-1.219-0.891-1.838-0.604
			c-1.412,0.655-0.434,2.228,0.22,2.973c1.169,1.331,2.398,2.609,3.682,3.831c1.012,0.962,2.281,1.553,2.782,2.939
			c-0.233,0.039-0.404-0.053-0.602-0.19c-3.003-2.083-5.218-5.107-8.008-7.467c-0.576-0.488-1.29-0.974-2.026-0.807
			c-0.48,0.109-0.879,0.514-0.98,0.995c-0.161,0.764,0.534,1.501,1.005,2.027c2.47,2.758,5.337,4.975,8.169,7.328
			c0.19,0.158,0.387,0.325,0.475,0.556c0.088,0.23,0.019,0.54-0.209,0.634c0.026-0.011-1.66-1.169-1.828-1.282
			c-0.775-0.52-1.443-1.335-2.128-1.971c-1.415-1.315-2.845-2.614-4.29-3.896c-0.561-0.498-1.19-1.346-1.986-0.48
			c-0.448,0.487-0.449,1.261-0.18,1.865c0.269,0.604,0.758,1.078,1.236,1.536c2.237,2.145,4.474,4.291,6.712,6.436
			c-0.113,0.328-0.609,0.155-0.873-0.07c-1.78-1.514-3.56-3.029-5.34-4.544c-0.614-0.522-1.554-1.048-2.14-0.495
			c-0.311,0.294-0.347,0.793-0.201,1.195c0.146,0.402,0.44,0.73,0.727,1.046c0.32,0,1.396,1.54,1.641,1.811
			c0.646,0.714,1.293,1.427,1.939,2.14c1.293,1.427,2.586,2.854,3.879,4.28c1.135,1.253,2.192,2.464,3.535,3.491
			c1.38,1.056,2.79,2.082,4.022,3.314c2.342,2.341,4.691,4.687,7.487,6.525c1.048,0.689,2.194,1.315,3.445,1.401
			c1.208,0.082,2.386-0.348,3.518-0.779c1.267-0.483,2.547-0.986,3.636-1.795c0.58-0.431,1.122-0.985,1.291-1.688
			c0.289-1.206-0.578-2.349-1.352-3.318C197.16,310.982,195.555,308.52,194.199,305.929z"/>
		<path style="fill:#697AD1;" d="M223.133,338.759c0.662-7.889,1.332-15.788,2.536-23.617c1.249-8.123,3.684-15.595,5.88-23.454
			c1.999-7.154,6.069-24.072,15.764-24.43c0.964-0.035,1.88,0.384,2.754,0.794c3.68,1.728,7.424,3.498,10.414,6.253
			c7.832,7.214,6.144,22.054,4.655,31.54c-1.931,12.295-4.969,24.53-10.098,35.905c-3.354,7.439-12.089,27.375-22.448,24.592
			c-2.894-0.777-5.098-3.229-6.35-5.952C223.317,354.031,222.557,345.632,223.133,338.759z"/>
		<path style="fill:#B1C785;" d="M111.543,283.582c-5.295,6.186-7.872,14.914-9.49,22.831c-1.349,0-5.445,30.435-5.883,33.389
			c-1.645,11.077-3.954,22.202-5.818,33.295c-0.079,0.471-0.149,0.993,0.108,1.396c0.268,0.421,0.8,0.571,1.285,0.687
			c10.767,2.582,21.701,4.47,32.711,5.648c1.005,0.107,2.056,0.203,2.994-0.172c2.274-0.911,2.481-5.787,3.02-7.827
			c1.443-5.463,2.878-10.929,4.307-16.396c2.64-10.103,4.899-20.083,6.901-30.36c2.953,7.752,7.183,14.944,11.446,22.06
			c9.852,16.445,16.664,32.222,34.622,41.288c13.964,7.049,30.733,1.64,39.235-10.809c2.221-3.252,4.261-6.624,6.235-10.03
			c1.554-2.681,4.271-5.076,5.021-8.089c-4.011-0.457-7.828,0.189-11.706-1.258c-4.571-1.706-8.595-4.691-12.104-8.009
			c-13.745-13.001-24.591-28.613-36.829-42.956c-12.556-14.715-33.084-38.499-55.222-31.842
			C117.847,277.791,114.321,280.337,111.543,283.582z"/>
		<path style="fill:#697AD1;" d="M246.837,353.093c0.185-5.167-2.226-10.157-5.587-14.086c-5.557-6.495-12.998-10.839-20.219-15.214
			c-3.598-2.18-7.201-4.375-10.554-6.925c-4.168-3.169-7.637-7.286-11.691-10.647c-0.223-0.185-0.48-0.381-0.768-0.349
			c-0.243,0.026-0.435,0.208-0.608,0.381c-3.104,3.092-6.806,5.193-10.028,8.166c-3.594,2.856-6.509,4.192-3.988,8.63
			c3.246,5.715,8.449,9.626,12.386,14.76c7.833,10.212,17.09,19.486,28.098,26.154c2.267,1.373,4.678,2.658,7.31,2.964
			C238.733,367.804,246.577,360.354,246.837,353.093z"/>
		<g>
			<path style="fill:#EB9D83;" d="M235.571,259.095c0.138,0.102,0.25,0.232,0.314,0.391c0.169,0.421,0.031,1.235,0.004,1.7
				c-0.035,0.612-0.141,1.223-0.258,1.824c-0.215,1.113-0.528,2.207-0.717,3.325c-0.331,1.96-1.136,4.093-0.943,6.056
				c0.852,0.675,1.791,1.246,2.789,1.687c4.179,1.842,9.065,1.933,13.474,0.959c1.22-0.27,2.456-0.649,3.659-1.126
				c0.686-5.219,1.107-10.406,1.699-15.595c0.675-5.923,0.764-12.439-0.341-18.326c-0.231-1.23-0.523-2.469-1.139-3.558
				c-0.524-0.926-1.266-1.713-2.068-2.412c-4.59-3.996-11.498-5.105-17.109-2.748c-0.972,0.408-1.929,0.931-2.598,1.745
				c-0.72,0.875-1.041,2.005-1.306,3.106c-1.46,6.066-1.774,12.406-0.919,18.586c0.294,2.127,1.783,3.78,3.99,4.035
				c0.338,0.039,0.683,0.042,1.01,0.134C235.274,258.921,235.435,258.994,235.571,259.095z"/>
			<path d="M257.229,256.614c0.813-4.938,1.942-10.062,0.974-15.106c-0.36-1.878-1.297-3.596-2.337-5.201
				c-1.982-3.057-4.622-5.986-8.151-6.888c-1.758-0.449-3.613-0.36-5.385-0.751c-1.966-0.434-3.76-1.444-5.7-1.98
				c-1.941-0.536-4.249-0.499-5.698,0.9c-1.105,1.067-1.466,2.697-1.494,4.233c-0.015,0.835,0.057,1.691,0.402,2.452
				c0.934,2.06,3.075,2.363,4.942,3.12c1.633,0.662,2.427,1.818,3.61,3.048c0.909,0.946,2.33,1.369,3.349,2.201
				c3.507,2.866,2.323,6.942,2.947,10.8c0.044,0.27,0.093,0.553,0.262,0.768c0.155,0.197,0.389,0.31,0.611,0.426
				c2.59,1.364,4.382,4.171,7.112,5.273c1.331,0.537,2.99,0.371,3.835-0.95C256.952,258.266,257.095,257.427,257.229,256.614z"/>
			<path style="fill:#EB9D83;" d="M245.664,244.937c1.803,1.024,2.786,3.344,2.186,5.329c-0.6,1.985-2.777,3.383-4.818,3.02
				c-1.974-0.35-3.516-2.286-3.484-4.29C239.595,246.074,242.914,243.375,245.664,244.937z"/>
			<path style="fill:none;stroke:#000000;stroke-linecap:round;stroke-linejoin:round;stroke-miterlimit:10;" d="M245.36,246.849
				c-0.88-0.487-2.392-0.011-3.091,0.606c-0.71,0.626-1.09,1.605-0.99,2.546"/>
			<path style="fill:none;stroke:#000000;stroke-linecap:round;stroke-linejoin:round;stroke-miterlimit:10;" d="M230.928,249.859
				c1.038,1.057,2.585,1.59,4.054,1.398"/>
			<g>
				<defs>
					<path id="SVGID_00000060029951775178680460000004403112905927945609_" d="M235.571,259.095c0.138,0.102,0.25,0.232,0.314,0.391
						c0.169,0.421,0.031,1.235,0.004,1.7c-0.035,0.612-0.141,1.223-0.258,1.824c-0.215,1.113-0.528,2.207-0.717,3.325
						c-0.331,1.96-1.136,4.093-0.943,6.056c0.852,0.675,1.791,1.246,2.789,1.687c4.179,1.842,9.065,1.933,13.474,0.959
						c1.22-0.27,2.456-0.649,3.659-1.126c0.686-5.219,1.107-10.406,1.699-15.595c0.675-5.923,0.764-12.439-0.341-18.326
						c-0.231-1.23-0.523-2.469-1.139-3.558c-0.524-0.926-1.266-1.713-2.068-2.412c-4.59-3.996-11.498-5.105-17.109-2.748
						c-0.972,0.408-1.929,0.931-2.598,1.745c-0.72,0.875-1.041,2.005-1.306,3.106c-1.46,6.066-1.774,12.406-0.919,18.586
						c0.294,2.127,1.783,3.78,3.99,4.035c0.338,0.039,0.683,0.042,1.01,0.134C235.274,258.921,235.435,258.994,235.571,259.095z"/>
				</defs>
				<clipPath id="SVGID_00000020366579878296928220000017663701680701916806_">
					<use xlink:href="#SVGID_00000060029951775178680460000004403112905927945609_"  style="overflow:visible;"/>
				</clipPath>
				<path style="clip-path:url(#SVGID_00000020366579878296928220000017663701680701916806_);" d="M237.012,261.588
					c-0.165,0.161-0.329,0.323-0.503,0.471c-0.56,0.475-1.238,0.81-1.956,0.965c-0.409,0.088-0.858,0.113-1.224-0.088
					c-0.37-0.203-0.594-0.612-0.666-1.029c-0.224-1.303,0.799-2.22,1.95-2.634c1.02-0.367,2.044-0.735,3.102-0.969
					c0.765-0.169,1.573-0.278,2.224-0.714c0.102-0.069,0.229-0.148,0.339-0.093c0.075,0.038,0.11,0.125,0.13,0.207
					c0.256,1.054-0.488,2.299-1.441,2.725c-0.301,0.135-0.627,0.207-0.924,0.351C237.647,260.974,237.328,261.279,237.012,261.588z"
					/>
			</g>
		</g>
		<path style="fill:#697AD1;" d="M244.271,265.455c3.865,0.816,9.239,3.235,12.279,6.155c7.528,7.232,5.777,15.986,5.968,25.63
			c0.222,11.175-2.183,22.272-5.636,32.846c-0.808,2.475-1.717,4.963-3.256,7.063c-5.041,6.878-11.442,3.136-16.486-1.557
			c-5.72-5.322-11.44-10.645-17.16-15.967c-4.803-4.469-4.815-10.964-5.879-17.324c-1.176-7.027,1.508-14.123,4.834-20.423
			c2.632-4.984,5.801-9.85,10.333-13.201C233.835,265.302,239.2,264.384,244.271,265.455z"/>
		<path style="fill:none;stroke:#000000;stroke-linecap:round;stroke-linejoin:round;stroke-miterlimit:10;" d="M239.894,358.081
			c-1.289,2.182-4.162,3.281-6.578,2.517"/>
		<path style="fill:none;stroke:#000000;stroke-linecap:round;stroke-linejoin:round;stroke-miterlimit:10;" d="M238.837,278.946
			c-0.662,2.219-1.249,4.459-1.785,6.712c-3.153,13.241-4.495,26.918-8.814,39.875c-0.79,2.368-1.218,4.711-1.544,7.202
			c-2.981-3.105-6.848-5.261-9.977-8.249c-4.291-4.098-8.017-8.744-11.697-13.384"/>
		<path style="fill:none;stroke:#000000;stroke-linecap:round;stroke-linejoin:round;stroke-miterlimit:10;" d="M226.795,331.877
			c1.674,4.01,3.27,8.053,4.785,12.125"/>
		<path style="fill:none;stroke:#E86F7B;stroke-linecap:round;stroke-linejoin:round;stroke-miterlimit:10;" d="M76.452,390.088
			c0.019,1.275,0.222,2.546,0.6,3.764c0.275,0.886,1.01,1.925,1.883,1.611c0.52-0.187,0.757-0.776,0.91-1.307
			c0.517-1.799,0.753-3.679,0.696-5.55c0.545,1.731,1.368,3.374,2.428,4.848c0.27,0.376,0.617,0.774,1.079,0.793
			c0.783,0.031,1.136-0.964,1.198-1.745c0.125-1.58,0.041-3.176-0.25-4.734c0.495,1.85,1.454,3.573,2.765,4.969"/>
		<path style="fill:none;stroke:#E86F7B;stroke-linecap:round;stroke-linejoin:round;stroke-miterlimit:10;" d="M111.588,401.026
			c1.467-6.897,2.547-13.876,3.231-20.894"/>
		<path style="fill:none;stroke:#000000;stroke-linecap:round;stroke-linejoin:round;stroke-miterlimit:10;" d="M141.861,329.236
			c-0.133-7.313-0.641-14.62-1.519-21.881"/>
		<path style="fill:none;stroke:#000000;stroke-linecap:round;stroke-linejoin:round;stroke-miterlimit:10;" d="M204.26,386.104
			c-4.019,1.566-8.882,0.695-12.108-2.169"/>
		<path style="fill:none;stroke:#000000;stroke-linecap:round;stroke-linejoin:round;stroke-miterlimit:10;" d="M187.158,380.284
			c-1.615-0.957-2.972-2.344-3.892-3.981"/>
		<path style="fill:none;stroke:#000000;stroke-linecap:round;stroke-linejoin:round;stroke-miterlimit:10;" d="M98.022,350.917
			c-0.174,2.659-0.63,5.3-1.36,7.864"/>
		<path style="fill:none;stroke:#000000;stroke-linecap:round;stroke-linejoin:round;stroke-miterlimit:10;" d="M101.114,361.39
			c-0.865,1.025-1.564,2.189-2.063,3.434"/>
	</g>
	<g>
		<ellipse cx="624.078" cy="424.418" rx="44.139" ry="10.641"/>
		<g>
			<path style="fill:#61BA89;" d="M614.077,306.482c-0.195-3.575-1.666-6.946-3.221-10.171
				c-5.266-10.916-19.596-10.489-29.873-8.833c-2.444,0.394-4.646,1.036-6.737,1.826c0.081,0.017,0.166,0.028,0.247,0.046
				c2.453,0.526,4.907,1.456,6.878,3.038c0.614,0.493,0.029,1.311-0.573,1.383c-2.735,0.329-5.308-0.5-7.839-1.491
				c-0.701-0.176-1.371-0.428-1.992-0.793c-0.296-0.119-0.592-0.238-0.888-0.353c-2.859,1.435-5.616,3.121-8.582,4.892
				c-6.326,3.777-12.473,8.096-17.181,13.83c0.941-0.084,1.882-0.134,2.811-0.109c2.846,0.078,5.932,0.745,7.715,3.154
				c0.273,0.369,0.043,0.886-0.291,1.108c-2.263,1.507-5.214,1.347-7.782,0.958c-1.759-0.266-3.476-0.715-5.184-1.201
				c-4.733,7.977-9.028,21.596,2.064,23.88c5.979,1.231,12.087,2,18.188,2.112c0.027-0.722,0.076-1.441,0.155-2.148
				c0.312-2.791,1.013-6.109,3.328-7.963c0.47-0.376,1.164-0.271,1.354,0.358c0.927,3.073,0.64,6.35,0.156,9.474
				c-0.012,0.075-0.028,0.148-0.039,0.223c3.69-0.159,7.364-0.578,10.99-1.313c1.21-0.245,2.413-0.534,3.608-0.851
				c0.033-0.691,0.089-1.38,0.174-2.064c0.302-2.438,0.971-5.619,3.411-6.814c0.446-0.218,1.066-0.059,1.19,0.484
				c0.503,2.208,0.611,4.488,0.46,6.746c7.913-2.894,15.196-7.466,20.78-13.74C611.279,317.8,614.395,312.301,614.077,306.482z
				 M597.548,321.46c-0.321,0.456-1.11,0.591-1.399,0c-0.543-1.111-0.782-2.272-0.796-3.436c-0.217-1.207,0.045-2.483,0.653-3.562
				c0.127-0.333,0.27-0.662,0.43-0.986c0.151-0.307,0.52-0.424,0.852-0.373c0.312-0.044,0.639,0.094,0.833,0.373
				C599.755,315.827,599.105,319.244,597.548,321.46z"/>
			<path style="fill:#61BA89;" d="M689.384,224.973c-0.952-0.919-2.253-1.366-3.508-1.785c-8.768-2.932-18.342-6.043-27.761-5.894
				c-0.404,2.614-1.151,5.124-2.963,6.998c-0.5,0.517-1.471,0.285-1.638-0.432c-0.484-2.07-0.161-4.222,0.414-6.272
				c-2.23,0.286-4.444,0.773-6.626,1.538c-5.292,1.856-10.964,4.56-15.793,8.148c0.535,2.829,0.375,5.819,0.141,8.65
				c-0.076,0.921-1.316,1.394-1.827,0.495c-1.123-1.979-1.46-4.307-1.458-6.558c-2.158,1.97-4.052,4.151-5.512,6.564
				c-3.498,5.78-4.676,13.284-1.72,19.358c6.038,12.407,22.526,9.586,33.082,5.911c7.477-2.603,14.748-6.402,20.83-11.549
				c-0.367-0.088-0.741-0.159-1.103-0.258c-2.974-0.809-7.007-2.349-7.277-5.938c-0.042-0.551,0.482-0.954,0.98-0.98
				c4.108-0.214,8.069,1.203,11.571,3.279c4.206-4.207,9.695-9.649,11.361-15.205C691.199,228.965,690.945,226.48,689.384,224.973z"
				/>
			<path style="fill:#61BA89;" d="M685.011,330.066c-0.411-0.044-0.821-0.097-1.227-0.173c-1.828-0.341-3.762-1.17-4.661-2.901
				c-0.36-0.693,0.095-1.413,0.846-1.475c1.509-0.124,3.032,0.074,4.518,0.466c-1.591-10.823-5.043-21.371-10.198-31.02
				c-0.366-0.684-0.744-1.366-1.133-2.042c-0.362,0.012-0.719,0.018-1.069,0.018c-3.155,0-6.89-0.382-9.435-2.436
				c-0.464-0.375-0.34-1.292,0.198-1.54c2.08-0.956,4.346-1.453,6.632-1.606c-2.181-2.855-4.708-5.399-7.762-7.277
				c-5.598-3.442-13.251-4.196-18.597-0.374c-5.286,3.78-7.893,11.98-7.691,18.298c0.195,6.049,4.177,12.786,7.13,17.937
				c0.451,0.786,0.923,1.589,1.405,2.398c1.186-1.979,2.8-3.858,5.072-4.539c0.534-0.16,1.036,0.193,1.206,0.685
				c0.766,2.222-0.259,4.835-1.317,6.781c-0.443,0.815-0.977,1.654-1.591,2.434c4.269,6.417,9.476,12.789,15.598,16.935
				c0.687-1.253,1.501-2.422,2.583-3.366c0.576-0.503,1.765-0.223,1.674,0.693c-0.157,1.579-0.643,3.057-1.262,4.489
				c0.031,0.016,0.061,0.036,0.093,0.053c3.811,1.99,11.043,5.425,15.175,2.843c0.487-0.304,0.931-0.693,1.322-1.177
				C685.542,340.42,685.472,334.641,685.011,330.066z"/>
			<path style="fill:#61BA89;" d="M611.469,218.124c-0.702,1.547-1.458,3.069-2.309,4.537c-0.55,0.948-2.15,0.31-1.792-0.755
				c0.819-2.436,1.844-4.798,2.972-7.106c-0.644-1.736-1.288-3.237-1.845-4.363c-3.754-7.595-9.237-14.245-15.453-20.001
				c-1.311-1.214-2.763-2.402-4.302-3.412c-0.418,1.885-0.855,3.763-1.65,5.543c-0.302,0.676-1.368,0.603-1.693,0
				c-0.783-1.453-0.393-3.197,0.138-4.668c0.27-0.747,0.59-1.471,0.931-2.186c-1.51-0.735-3.078-1.237-4.67-1.348
				c-1.053-0.073-2.115,0.021-3.176,0.325c-0.456,0.131-0.916,0.308-1.254,0.641c-0.507,0.5-0.65,1.252-0.754,1.956
				c-0.709,4.803-0.755,9.678-0.664,14.532c0.056,2.994,0.181,6.008,0.481,8.994c0.074,0.018,0.148,0.035,0.222,0.054
				c1.292,0.332,2.553,0.76,3.781,1.281c0.393,0.167,0.555,0.726,0.451,1.107c-0.113,0.413-0.516,0.723-0.945,0.72
				c-1.089-0.008-2.144-0.193-3.179-0.465c0.456,3.183,1.16,6.314,2.3,9.323c0.706,1.861,1.578,3.656,2.581,5.376
				c3.419-0.613,7.192-0.54,9.971,1.424c0.586,0.414,0.677,1.298,0,1.693c-1.961,1.145-4.497,1.451-6.789,1.517
				c0.483,0.604,0.977,1.198,1.495,1.772c5.05,5.592,12.458,9.854,19.881,8.56C616.214,241.427,614.48,227.836,611.469,218.124z"/>
			<path style="fill:none;stroke:#000000;stroke-width:2;stroke-linecap:round;stroke-linejoin:round;stroke-miterlimit:10;" d="
				M577.284,311.849l22.782-10.03c12.582-5.539,26.645,3.913,26.267,17.655l-2.422,88.101"/>
			<path style="fill:none;stroke:#000000;stroke-width:2;stroke-linecap:round;stroke-linejoin:round;stroke-miterlimit:10;" d="
				M623.106,286.656c0.362-5.065,0.813-10.123,1.353-15.172c1.239-11.594,6.232-20.416,15.989-27.231
				c8.049-5.622,17.474-8.87,26.763-12.05"/>
			<path style="fill:none;stroke:#000000;stroke-width:2;stroke-linecap:round;stroke-linejoin:round;stroke-miterlimit:10;" d="
				M594.76,215.767c5.054,9.738,9.779,19.645,14.165,29.701c3.939,9.03,8.858,16.646,11.28,26.449
				c4.506,18.231,5.33,31.034,6.165,49.707"/>
			<path style="fill:none;stroke:#000000;stroke-width:2;stroke-linecap:round;stroke-linejoin:round;stroke-miterlimit:10;" d="
				M668.961,320.175c-6.042-9.57-11.618-19.434-16.704-29.544c-1.735-3.449-3.612-7.457-6.378-10.205
				c-1.849-1.837-4.446-3.11-7.026-2.739c-2.595,0.374-4.695,2.301-6.295,4.378c-3.955,5.134-5.843,11.518-7.652,17.741"/>
			<path style="fill:#E86F7B;" d="M624.078,426.579L624.078,426.579c-13.023,0-23.9-9.923-25.092-22.891l-2.701-29.376h55.586
				l-2.701,29.376C647.978,416.655,637.1,426.579,624.078,426.579z"/>
			<path d="M651.553,374.519c0,3.243-12.394,5.872-27.683,5.872c-15.289,0-27.683-2.629-27.683-5.872
				c0-3.243,12.394-5.872,27.683-5.872C639.159,368.647,651.553,371.276,651.553,374.519z"/>
			<path style="fill:none;stroke:#000000;stroke-linecap:round;stroke-linejoin:round;stroke-miterlimit:10;" d="M646.026,390.291
				c0.133,5.046-0.353,10.108-1.444,15.037"/>
			<path style="fill:none;stroke:#000000;stroke-linecap:round;stroke-linejoin:round;stroke-miterlimit:10;" d="M642.503,411.278
				c-0.234,1.301-0.851,2.53-1.754,3.495"/>
		</g>
	</g>
	<g>
		
			<line style="fill:none;stroke:#000000;stroke-linecap:round;stroke-linejoin:round;stroke-miterlimit:10;" x1="585.646" y1="142.631" x2="567.529" y2="160.748"/>
		
			<line style="fill:none;stroke:#000000;stroke-linecap:round;stroke-linejoin:round;stroke-miterlimit:10;" x1="584.072" y1="154.435" x2="576.586" y2="161.922"/>
		
			<line style="fill:none;stroke:#000000;stroke-linecap:round;stroke-linejoin:round;stroke-miterlimit:10;" x1="218.919" y1="416.496" x2="207.901" y2="427.513"/>
		
			<line style="fill:none;stroke:#000000;stroke-linecap:round;stroke-linejoin:round;stroke-miterlimit:10;" x1="521.639" y1="404.429" x2="511.008" y2="415.06"/>
		<g>
			<g>
				
					<line style="fill:none;stroke:#000000;stroke-linecap:round;stroke-linejoin:round;stroke-miterlimit:10;" x1="243.708" y1="161.812" x2="253.811" y2="151.709"/>
				
					<line style="fill:none;stroke:#000000;stroke-linecap:round;stroke-linejoin:round;stroke-miterlimit:10;" x1="251.518" y1="162.927" x2="268.891" y2="145.554"/>
			</g>
			<path style="fill:none;stroke:#000000;stroke-linecap:round;stroke-linejoin:round;stroke-miterlimit:10;" d="M267.317,132.4
				c0,1.521-1.233,2.754-2.754,2.754c-1.521,0-2.755-1.233-2.755-2.754s1.233-2.754,2.755-2.754
				C266.084,129.646,267.317,130.879,267.317,132.4z"/>
		</g>
		<path style="fill:none;stroke:#000000;stroke-linecap:round;stroke-linejoin:round;stroke-miterlimit:10;" d="M674.941,366.245
			c0,2.608-2.114,4.722-4.722,4.722s-4.722-2.114-4.722-4.722c0-2.608,2.114-4.722,4.722-4.722S674.941,363.637,674.941,366.245z"/>
		
			<circle style="fill:none;stroke:#000000;stroke-linecap:round;stroke-linejoin:round;stroke-miterlimit:10;" cx="504.982" cy="409.807" r="1.967"/>
		<path style="fill:none;stroke:#000000;stroke-linecap:round;stroke-linejoin:round;stroke-miterlimit:10;" d="M240.167,406.265
			c0,3.477-2.819,6.296-6.296,6.296c-3.477,0-6.296-2.819-6.296-6.296c0-3.477,2.819-6.296,6.296-6.296
			C237.348,399.97,240.167,402.788,240.167,406.265z"/>
		<path style="fill:none;stroke:#000000;stroke-linecap:round;stroke-linejoin:round;stroke-miterlimit:10;" d="M196.096,421.218
			c0,1.304-1.057,2.361-2.361,2.361c-1.304,0-2.361-1.057-2.361-2.361c0-1.304,1.057-2.361,2.361-2.361
			C195.039,418.857,196.096,419.914,196.096,421.218z"/>
		<path style="fill:none;stroke:#000000;stroke-linecap:round;stroke-linejoin:round;stroke-miterlimit:10;" d="M619.486,192.21
			c0,1.087-0.881,1.967-1.967,1.967s-1.967-0.881-1.967-1.967c0-1.087,0.881-1.967,1.967-1.967S619.486,191.123,619.486,192.21z"/>
		<path style="fill:none;stroke:#000000;stroke-linecap:round;stroke-linejoin:round;stroke-miterlimit:10;" d="M71.808,298.522
			c-1.661,0-3.008-1.347-3.008-3.008c0-1.661,1.347-3.008,3.008-3.008"/>
		<path style="fill:none;stroke:#000000;stroke-linecap:round;stroke-linejoin:round;stroke-miterlimit:10;" d="M628.929,185.127
			c2.608,0,4.722,2.114,4.722,4.722c0,2.608-2.114,4.722-4.722,4.722"/>
		<g>
			<polyline style="fill:none;stroke:#000000;stroke-linecap:round;stroke-linejoin:round;stroke-miterlimit:10;" points="
				421.956,421.415 428.938,429.415 435.92,421.415 442.901,429.415 449.885,421.415 456.865,429.415 463.85,421.415 
				470.841,429.415 477.831,421.415 			"/>
		</g>
		<g>
			<polyline style="fill:none;stroke:#000000;stroke-linecap:round;stroke-linejoin:round;stroke-miterlimit:10;" points="
				275.58,107.152 281.677,115.152 287.773,107.152 293.87,115.152 299.968,107.152 306.063,115.152 312.163,107.152 
				318.268,115.152 324.372,107.152 			"/>
		</g>
	</g>
</g>
</svg>
