<?xml version="1.0" encoding="utf-8"?>
<!-- Generator: Adobe Illustrator 27.5.0, SVG Export Plug-In . SVG Version: 6.00 Build 0)  -->
<svg version="1.1" xmlns="http://www.w3.org/2000/svg" xmlns:xlink="http://www.w3.org/1999/xlink" x="0px" y="0px"
	 viewBox="0 0 500 500" style="enable-background:new 0 0 500 500;" xml:space="preserve">
<g id="BACKGROUND">
	<rect style="fill:#FFFFFF;" width="500" height="500"/>
</g>
<g id="OBJECTS">
	<g>
		<path style="fill:#FADDD4;" d="M162.396,117.941c-2.31,2.703-4.922,5.174-7.658,7.367c-8.906,7.141-19.319,12.192-28.364,19.155
			c-16.937,13.038-35.16,34.681-57.338,15.563c-5.232-4.51-8.097-11.185-9.884-17.857c-12.548-46.852,36.793-87.41,81.454-77.934
			c15.797,3.352,30.952,16.28,30.767,32.428C171.283,104.572,167.608,111.844,162.396,117.941z"/>
		<path style="fill:#FADDD4;" d="M203.34,453.14c30.771,2.123,61.802,0.5,92.17-4.908c23.689-4.218,47.271-10.835,67.988-23.074
			c51.641-30.507,75.497-86.136,86.96-141.978c7.592-36.986,13.171-78.807,7.512-116.419c-4.281-28.452-15.46-56.191-34.195-78.028
			c-32.021-37.325-86.111-54.107-133.636-41.462c-27.326,7.27-51.673,23.208-72.838,41.96
			c-21.165,18.751-39.528,40.394-58.613,61.258c-22.028,24.081-45.235,47.375-63.214,74.612
			c-7.645,11.581-13.818,24.12-18.43,37.205C59.47,312.164,64.244,372.39,98.884,413.997c22.428,26.939,49.01,32.737,82.813,37.025
			C188.889,451.935,196.107,452.641,203.34,453.14z"/>
		<g>
			<path style="fill:#9DD1C9;stroke:#000000;stroke-width:0.5;stroke-miterlimit:10;" d="M197.923,139.509
				c-2.8-5.606-8.806-7.567-14.753-7.776c-0.798-7.25-6.94-13.381-14.085-14.846s-14.844,1.44-19.804,6.788
				c-1.99,2.146-3.618,4.748-4.038,7.644c-2.091-1.685-5.114-2.125-7.599-1.106c-3.537,1.451-4.891,4.991-4.21,8.58
				c-3.406,0.07-6.882,2.579-8.531,5.486c-3.435,6.056-0.159,13.518,6.19,15.779c5.493,1.956,12.056,0.558,16.969-2.317
				c2.105,4.72,7.306,7.72,12.408,8.269c4.078,0.438,8.428-0.438,11.589-3.162c1.921-1.656,3.285-4.07,3.735-6.605
				c0.009,0.004,0.018,0.008,0.027,0.012c2.396,1.055,5.037,1.504,7.644,1.637c2.731,0.14,5.768,0.041,8.347-0.91
				c6.608-2.437,9.111-10.689,6.384-16.886C198.111,139.896,198.019,139.7,197.923,139.509z"/>
			<path style="fill:none;stroke:#000000;stroke-width:0.5;stroke-miterlimit:10;" d="M150.749,152.548
				c-0.279,5.376,4.459,10.494,9.84,10.63"/>
			<path style="fill:none;stroke:#000000;stroke-width:0.5;stroke-miterlimit:10;" d="M135.976,142.086
				c-2.468,0.155-4.974,0.979-6.731,2.718c-1.757,1.74-2.611,4.494-1.704,6.794"/>
			<path style="fill:none;stroke:#000000;stroke-width:0.5;stroke-miterlimit:10;" d="M153.25,124.936
				c-3.339,2.284-5.429,6.291-5.389,10.337"/>
		</g>
		<g>
			<g>
				<path style="fill:#9DD1C9;stroke:#000000;stroke-width:0.5;stroke-miterlimit:10;" d="M119.443,111.226
					c-1.172-0.719-2.575-1.131-4.156-1.145c0.003-0.06,0.008-0.12,0.009-0.179c0.027-1.411-0.366-2.736-1.016-3.981
					c-1.21-2.317-3.587-4.007-6.121-4.573c-2.506-0.56-5.055-0.082-7.249,1.195c-1.227-2.059-3.197-3.695-5.479-4.463
					c-6.494-2.187-14.682,2.435-14.595,9.676c-0.005-0.378-3.358-0.469-3.711-0.458c-1.419,0.046-2.83,0.335-4.152,0.851
					c-2.549,0.996-4.349,2.83-5.685,5.239c-2.586,4.664-1.034,11.258,4.308,13.16c3.922,1.396,8.607,0.399,12.116-1.654
					c1.503,3.37,5.216,5.512,8.859,5.904c2.912,0.313,6.017-0.313,8.274-2.257c0.332-0.286,0.638-0.605,0.918-0.949
					c0.619,0.617,1.538,1.108,2.061,1.356c1.513,0.718,3.178,1.045,4.847,1.124c3.123,0.149,6.516-0.392,9.279-1.903
					c2.896-1.583,4.824-4.471,5.292-7.722C123.805,116.537,122.305,112.981,119.443,111.226z"/>
				<path style="fill:#9DD1C9;stroke:#000000;stroke-width:0.5;stroke-miterlimit:10;" d="M91.06,99.991
					c-3.178,0.126-6.16,2.399-7.124,5.43"/>
				<path style="fill:#9DD1C9;stroke:#000000;stroke-width:0.5;stroke-miterlimit:10;" d="M76.682,110.28
					c-2.8,0.217-5.388,2.189-6.34,4.831"/>
				<path style="fill:#9DD1C9;stroke:#000000;stroke-width:0.5;stroke-miterlimit:10;" d="M110.305,104.306
					c-1.652-0.767-3.607-0.855-5.321-0.24"/>
			</g>
		</g>
		<g>
			<path style="fill:#F65E59;stroke:#000000;stroke-width:0.5;stroke-miterlimit:10;" d="M97.776,261.416
				c0-10.842-14.755-19.631-32.955-19.631s-32.955,8.789-32.955,19.631c0,10.12,12.858,18.45,29.374,19.513
				c0.331,2.015,0.914,3.98,1.901,5.836c2.428,4.569,7.896,8.292,13.676,7.701c-4.552-1.721-7.208-6.033-7.789-10.295
				c-0.149-1.092-0.184-2.186-0.136-3.279C85.17,279.697,97.776,271.436,97.776,261.416z"/>
			<path style="fill:none;stroke:#000000;stroke-width:0.5;stroke-miterlimit:10;" d="M41.156,263.281
				c3.825,3.994,11.236,3.562,14.571-0.849c0.726-0.961,1.281-2.111,1.26-3.315c-0.021-1.204-0.734-2.445-1.88-2.815
				c-1.435-0.463-3.043,0.634-3.509,2.068c-0.466,1.434-0.008,3.031,0.798,4.306c1.959,3.099,6.071,4.65,9.589,3.616
				c3.517-1.034,6.137-4.564,6.107-8.23c-0.004-0.481-0.059-0.99-0.347-1.375c-0.477-0.638-1.476-0.702-2.161-0.296
				c-0.686,0.406-1.095,1.16-1.318,1.925c-1.139,3.916,2.514,8.218,6.593,8.276c4.078,0.058,7.683-3.511,8.296-7.543
				c0.124-0.814,0.134-1.693-0.274-2.409c-0.408-0.715-1.352-1.175-2.09-0.811c-0.302,0.149-0.533,0.41-0.735,0.679
				c-1.776,2.367-1.734,5.931,0.096,8.256c1.83,2.326,5.284,3.203,8.003,2.033"/>
		</g>
		<g>
			<g>
				<path d="M353.718,418.587H212.831c-4.496,0-8.14-3.644-8.14-8.14V97.445c0-4.496,3.644-8.14,8.14-8.14h140.886
					c4.496,0,8.14,3.644,8.14,8.14v313.003C361.858,414.943,358.213,418.587,353.718,418.587z"/>
				<path style="fill:#FFFFFF;stroke:#222221;stroke-width:0.5;stroke-miterlimit:10;" d="M344.663,418.587H203.777
					c-4.496,0-8.14-3.644-8.14-8.14V97.445c0-4.496,3.644-8.14,8.14-8.14h140.886c4.496,0,8.14,3.644,8.14,8.14v313.003
					C352.803,414.943,349.159,418.587,344.663,418.587z"/>
				
					<rect x="195.637" y="107.178" style="fill:#7696EA;stroke:#000000;stroke-width:0.5;stroke-miterlimit:10;" width="157.166" height="293.535"/>
				<path style="fill:#7696EA;stroke:#000000;stroke-width:0.5;stroke-miterlimit:10;" d="M359.902,178.466h-0.113
					c-2.191,0-3.968-1.777-3.968-3.968v-22.844c0-2.191,1.776-3.968,3.968-3.968h0.113c2.191,0,3.968,1.776,3.968,3.968v22.844
					C363.87,176.69,362.094,178.466,359.902,178.466z"/>
				<path style="fill:#7696EA;stroke:#000000;stroke-width:0.5;stroke-miterlimit:10;" d="M359.902,211.164h-0.113
					c-2.191,0-3.968-1.777-3.968-3.968v-22.844c0-2.191,1.776-3.968,3.968-3.968h0.113c2.191,0,3.968,1.777,3.968,3.968v22.844
					C363.87,209.387,362.094,211.164,359.902,211.164z"/>
				<path style="fill:#9DD1C9;stroke:#000000;stroke-width:0.5;stroke-miterlimit:10;" d="M359.902,375.121h-0.113
					c-2.191,0-3.968-1.776-3.968-3.968v-18.82c0-2.191,1.776-3.968,3.968-3.968h0.113c2.191,0,3.968,1.777,3.968,3.968v18.82
					C363.87,373.345,362.094,375.121,359.902,375.121z"/>
			</g>
			<g>
				
					<rect x="204.155" y="146.946" style="fill:#7696EA;stroke:#000000;stroke-width:0.5;stroke-miterlimit:10;" width="41.725" height="36.219"/>
				
					<rect x="253.466" y="146.946" style="fill:#7696EA;stroke:#000000;stroke-width:0.5;stroke-miterlimit:10;" width="41.725" height="36.219"/>
				
					<rect x="302.778" y="146.946" style="fill:#FFFFFF;stroke:#222221;stroke-width:0.5;stroke-miterlimit:10;" width="41.725" height="36.219"/>
				
					<rect x="203.4" y="190.71" style="fill:#FFFFFF;stroke:#222221;stroke-width:0.5;stroke-miterlimit:10;" width="41.725" height="36.219"/>
				
					<rect x="252.712" y="190.71" style="fill:#7696EA;stroke:#000000;stroke-width:0.5;stroke-miterlimit:10;" width="41.725" height="36.219"/>
				
					<rect x="302.023" y="190.71" style="fill:#F65E59;stroke:#000000;stroke-width:0.5;stroke-miterlimit:10;" width="41.725" height="36.219"/>
				
					<rect x="202.646" y="234.475" style="fill:#7696EA;stroke:#000000;stroke-width:0.5;stroke-miterlimit:10;" width="41.725" height="36.219"/>
				
					<rect x="251.957" y="234.475" style="fill:#7696EA;stroke:#000000;stroke-width:0.5;stroke-miterlimit:10;" width="33.242" height="36.219"/>
				
					<rect x="291.957" y="234.475" style="fill:#7696EA;stroke:#000000;stroke-width:0.5;stroke-miterlimit:10;" width="51.037" height="36.219"/>
				<g>
					<g>
						
							<rect x="202.646" y="279.475" style="fill:#FFFFFF;stroke:#222221;stroke-width:0.5;stroke-miterlimit:10;" width="84.282" height="64.132"/>
						<g>
							<defs>
								<rect id="SVGID_1_" x="202.646" y="279.475" width="84.282" height="64.132"/>
							</defs>
							<clipPath id="SVGID_00000159437393553575304450000003830947090630848922_">
								<use xlink:href="#SVGID_1_"  style="overflow:visible;"/>
							</clipPath>
							
								<path style="clip-path:url(#SVGID_00000159437393553575304450000003830947090630848922_);fill:#F65E59;stroke:#000000;stroke-width:0.5;stroke-miterlimit:10;" d="
								M177.407,338.189c8.202-7.95,16.589-16.033,26.856-21.038c10.267-5.005,22.919-6.508,32.97-1.081
								c10.937,5.905,16.436,18.373,20.135,30.239c1.299,4.166-3.244,6.44-6.632,9.191c-3.388,2.751-7.464,4.51-11.563,6.007
								c-9.104,3.325-18.782,5.54-28.449,4.843c-9.667-0.698-19.355-4.553-25.771-11.818"/>
							
								<path style="clip-path:url(#SVGID_00000159437393553575304450000003830947090630848922_);fill:#FFFFFF;stroke:#222221;stroke-width:0.5;stroke-miterlimit:10;" d="
								M300.193,347.378c-1.558-3.39-3.116-6.779-4.674-10.169c-4.23-9.202-9.329-19.245-18.804-22.821
								c-5.661-2.136-12.08-1.514-17.754,0.587c-5.674,2.101-10.724,5.58-15.579,9.19c-13.357,9.934-25.762,21.15-36.987,33.442"/>
						</g>
						<path style="fill:#F65E59;stroke:#000000;stroke-width:0.5;stroke-miterlimit:10;" d="M261.517,299.973
							c0,2.994-2.427,5.421-5.421,5.421c-2.994,0-5.421-2.427-5.421-5.421c0-2.994,2.427-5.421,5.421-5.421
							C259.09,294.552,261.517,296.979,261.517,299.973z"/>
					</g>
					
						<rect x="202.646" y="279.475" style="fill:none;stroke:#222221;stroke-width:0.5;stroke-miterlimit:10;" width="84.282" height="64.132"/>
				</g>
			</g>
			<path style="fill:#7696EA;stroke:#000000;stroke-width:0.5;stroke-miterlimit:10;" d="M340.742,133.364H209.323v-13.582h131.419
				c1.244,0,2.252,1.008,2.252,2.252v9.078C342.994,132.356,341.986,133.364,340.742,133.364z"/>
			<path style="fill:#FFFFFF;stroke:#222221;stroke-width:0.5;stroke-miterlimit:10;" d="M229.535,133.364h-23.402
				c-1.092,0-1.978-0.885-1.978-1.977v-9.627c0-1.092,0.885-1.978,1.978-1.978h23.402V133.364z"/>
			<g>
				<path style="fill:#FFFFFF;stroke:#222221;stroke-width:0.5;stroke-miterlimit:10;" d="M218.492,125.692
					c0,2.153-1.745,3.899-3.899,3.899c-2.153,0-3.899-1.745-3.899-3.899s1.745-3.899,3.899-3.899
					C216.746,121.794,218.492,123.539,218.492,125.692z"/>
				
					<line style="fill:#FFFFFF;stroke:#222221;stroke-width:0.5;stroke-miterlimit:10;" x1="220.755" y1="131.1" x2="217.485" y2="128.333"/>
			</g>
			<g>
				
					<line style="fill:none;stroke:#000000;stroke-width:0.5;stroke-miterlimit:10;" x1="295.702" y1="290.7" x2="338.292" y2="290.7"/>
				
					<line style="fill:none;stroke:#000000;stroke-width:0.5;stroke-miterlimit:10;" x1="295.702" y1="297.568" x2="338.292" y2="297.568"/>
				
					<line style="fill:none;stroke:#000000;stroke-width:0.5;stroke-miterlimit:10;" x1="295.702" y1="304.435" x2="338.292" y2="304.435"/>
				
					<line style="fill:none;stroke:#000000;stroke-width:0.5;stroke-miterlimit:10;" x1="295.702" y1="311.302" x2="332.484" y2="311.302"/>
				
					<line style="fill:none;stroke:#000000;stroke-width:0.5;stroke-miterlimit:10;" x1="295.702" y1="318.169" x2="338.292" y2="318.169"/>
				
					<line style="fill:none;stroke:#000000;stroke-width:0.5;stroke-miterlimit:10;" x1="295.702" y1="325.037" x2="330.225" y2="325.037"/>
			</g>
		</g>
		<g>
			<g>
				<g>
					<g>
						<path style="fill:#9DD1C9;stroke:#000000;stroke-width:0.5;stroke-miterlimit:10;" d="M462.025,201.983
							c-0.072-0.499-0.199-0.987-0.391-1.445c-0.418-0.996-1.058-1.656-1.903-2.208c-3.856-2.518-8.042-1.952-11.923,0.025
							c-1.799,0.917-3.686,1.439-5.468,2.504c-2.081,1.244-4.046,2.727-5.868,4.402c-5.462,5.021-9.867,11.989-11.174,19.852
							c-0.063,0.378-0.118,0.758-0.166,1.139c0.173-1.377,2.557-3.505,3.44-4.396c1.352-1.366,2.853-2.549,4.459-3.513
							c3.528-2.117,7.332-3.129,11.319-3.495c3.864-0.355,7.767-0.418,11.371-2.242c3.28-1.66,6.123-5.007,6.364-9.016
							C462.117,203.056,462.101,202.513,462.025,201.983z"/>
					</g>
					<path style="fill:none;stroke:#000000;stroke-width:0.5;stroke-miterlimit:10;" d="M445.049,207.52
						c-25.457,10.793-18.334,23.281-26.159,42.992"/>
				</g>
				<g>
					<path style="fill:#9DD1C9;stroke:#000000;stroke-width:0.5;stroke-miterlimit:10;" d="M428.505,169.479
						c-1.792-2.146-4.399-3.501-7.044-3.828c-6.552-0.812-13.242,4.678-14.498,11.897c-0.292,1.676-0.321,3.394-0.35,5.101
						c-0.339,20.29-0.966,42.584,6.7,61.456c1.421-4.335,2.457-9.485,4.635-13.411c1.929-3.477,4.18-6.604,5.748-10.422
						c3.388-7.788,5.402-16.236,6.454-24.792c0.841-6.841,2.499-16.499,0.065-23.061
						C429.809,171.322,429.222,170.337,428.505,169.479z M417.997,179.585c0.75,5.364-5.198,0.507-4.485-3.012
						C415.104,174.002,417.76,176.104,417.997,179.585z"/>
					
						<line style="fill:none;stroke:#1C0C03;stroke-width:0.5;stroke-miterlimit:10;" x1="418.718" y1="194.202" x2="411.599" y2="258.473"/>
				</g>
				<g>
					<path style="fill:#9DD1C9;stroke:#000000;stroke-width:0.5;stroke-miterlimit:10;" d="M404.982,217.637
						c-1.613-6.323-5.79-11.479-11.843-12.383c-2.136-0.319-4.31-0.372-6.407-0.925c-2.029-0.535-4.026-1.538-6.102-1.328
						c-1.908,0.194-3.673,1.456-4.762,3.214c-1.767,2.852-1.899,6.604-0.233,9.494c0.841,1.459,2.211,2.429,3.602,3.205
						c2.168,1.21,4.496,2.062,6.886,2.519c3.68,0.704,8.174,0.189,11.644,1.855c3.21,1.541,5.58,6.649,6.507,10.161
						c0.367,1.391,0.754,2.392,0.639,4.578c-0.189-1.191,0.466-3.371,0.574-4.641c0.143-1.674,0.269-3.352,0.334-5.032
						c0.124-3.181,0.056-6.407-0.568-9.526C405.173,218.427,405.082,218.03,404.982,217.637z"/>
				</g>
				<path style="fill:none;stroke:#1C0C03;stroke-width:0.5;stroke-miterlimit:10;" d="M404.485,249.392
					c-0.02-3.963,0.89-16.475,0.244-20.373c-0.609-3.675-1.527-7.377-3.452-10.437c-1.924-3.059-5.013-5.403-8.364-5.422"/>
			</g>
			<path style="fill:#F65E59;stroke:#000000;stroke-width:0.5;stroke-miterlimit:10;" d="M398.743,247.721h26.464l-1.54,11.885
				c-0.835,6.446-5.788,11.229-11.627,11.229l0,0c-5.786,0-10.711-4.7-11.606-11.076L398.743,247.721z"/>
		</g>
		<g>
			<g>
				<polyline style="fill:none;stroke:#222221;stroke-width:0.5;stroke-miterlimit:10;" points="391.537,419.131 391.537,270.835 
					443.982,270.835 443.982,419.131 				"/>
				
					<line style="fill:none;stroke:#222221;stroke-width:0.5;stroke-miterlimit:10;" x1="387.993" y1="295.02" x2="448.234" y2="295.02"/>
				
					<line style="fill:none;stroke:#222221;stroke-width:0.5;stroke-miterlimit:10;" x1="387.993" y1="319.143" x2="448.234" y2="319.143"/>
				
					<line style="fill:none;stroke:#222221;stroke-width:0.5;stroke-miterlimit:10;" x1="387.993" y1="343.265" x2="448.234" y2="343.265"/>
				
					<line style="fill:none;stroke:#222221;stroke-width:0.5;stroke-miterlimit:10;" x1="387.993" y1="367.387" x2="448.234" y2="367.387"/>
				
					<line style="fill:none;stroke:#222221;stroke-width:0.5;stroke-miterlimit:10;" x1="387.993" y1="391.51" x2="448.234" y2="391.51"/>
			</g>
		</g>
		<g>
			<path style="fill:none;stroke:#1B0B4D;stroke-width:7;stroke-miterlimit:10;" d="M274.783,342.921"/>
			<path style="fill:none;stroke:#1B0B4D;stroke-width:7;stroke-miterlimit:10;" d="M330.398,387.535"/>
			<path d="M299.358,449.878c0.187,0.106,0.379,0.201,0.57,0.294h28.783c3.59-2.106,1.996-9.229,1.822-12.618
				c-0.208-4.032-0.372-9.8-5.309-10.464c-1.347-0.181-2.843-0.044-3.854,0.863c-1.178,1.057-1.36,2.807-1.464,4.386l-0.317,4.85
				c-0.048,0.729-0.095,1.458-0.143,2.187c-3.96,0.742-7.927,1.485-11.803,2.584c-3.652,1.035-7.637,2.79-8.891,6.373
				c-0.1,0.288-0.181,0.606-0.075,0.892C298.788,449.526,299.078,449.719,299.358,449.878z"/>
			<path d="M433.942,449.317c-0.015-0.143-0.032-0.288-0.049-0.434c-0.015-0.13-0.035-0.271-0.128-0.363
				c-0.099-0.097-0.25-0.112-0.388-0.121c-2.249-0.143-4.497-0.286-6.746-0.429c-1.467-0.093-3.149-0.306-3.956-1.534
				c-0.378-0.575-0.489-1.283-0.546-1.969c-0.208-2.509,0.032-7.887,3.059-8.923c0.508-0.174,1.064-0.038,1.583,0.099
				c5.869,1.545,11.739,3.091,17.608,4.636c0.766,0.202,1.576,0.429,2.115,1.01c1.046,1.127,0.583,2.925,0.059,4.37
				c-1.691,4.659-2.915,11.566-7.253,14.608c-1.631,1.144-12.271,4.883-11.594,0.264c0.169-1.154,1.024-2.087,1.944-2.803
				c0.921-0.716,1.956-1.302,2.743-2.163C434.167,453.627,434.195,451.681,433.942,449.317z"/>
			<path style="fill:#FFFFFF;stroke:#222221;stroke-width:0.5;stroke-miterlimit:10;" d="M299.263,348.556
				c-2.093,0.33-4.083,0.455-6.441,0.119c-2.338-0.334-4.771-0.671-7.023,0.043c-2.252,0.714-4.252,2.819-4.016,5.17
				c0.079,0.78,0.393,1.522,0.808,2.188c3.192,5.119,11.938,5.002,16.539,2.145c0.768-0.477,1.473-1.054,2.268-1.484
				c1.505-0.812,3.251-1.053,4.825-1.722c1.574-0.669,3.087-2.02,3.078-3.73c-0.008-1.465-1.187-2.733-2.563-3.235
				c-1.376-0.502-2.902-0.374-4.337-0.081C301.297,348.191,300.268,348.397,299.263,348.556z"/>
			<path style="fill:#F65E59;stroke:#000000;stroke-width:0.5;stroke-miterlimit:10;" d="M402.908,376.904
				c-1.421-2.955-6.124-4.712-9.014-5.726c-10.391-3.646-21.451-5.057-32.376-6.289c-4.669-0.526-9.346-1.014-14.041-1.24
				c-4.132-0.199-8.353-0.57-12.476-0.452c-1.792,0.051-3.584,0.102-5.376,0.153c-1.295,0.037-2.602,0.076-3.856,0.399
				c-1.935,0.499-3.444,0.637-4.905,2.194c-3.364,3.584-5.313,8.313-6.267,13.135c-0.118,0.597-0.222,1.196-0.313,1.797
				c-0.024,9.285,0.033,18.56,0.794,27.851c0.718,8.774,1.634,17.53,2.555,26.286c3.763,0.104,7.525,0.207,11.286,0.338
				c1.244-0.011,2.488-0.02,3.732-0.026c4.443-14.094,5.207-29.183,5.675-44.015c12.938,2.982,26.674,5.367,39.973,6.477
				c9.79,0.817,21.855,0.198,24.827-11.319c0.377-1.46,0.533-2.97,0.58-4.478C403.761,380.257,403.66,378.466,402.908,376.904z"/>
			<path style="fill:#FFFFFF;stroke:#222221;stroke-width:0.5;stroke-miterlimit:10;" d="M344.455,285.392
				c-0.558,0.169-1.097,0.391-1.604,0.687c-2.419,1.413-3.655,4.286-3.933,7.073c-0.24,2.404,0.12,4.865,1.038,7.099
				c0.532,1.294,1.274,2.542,2.378,3.402c1.627,1.266,3.794,1.528,5.844,1.744c0.986,0.104,1.607,5.463,1.81,6.333
				c0.579,2.488,1.214,4.93,1.589,7.463c3.34,0.403,6.882,0.776,9.935-0.638c-1.1-9.043-2.904-18-5.389-26.765
				c-1.081-3.814-3.862-7.252-8.074-6.954C346.84,284.921,345.606,285.043,344.455,285.392z"/>
			<path style="fill:#DEA600;stroke:#000000;stroke-width:0.5;stroke-miterlimit:10;" d="M355.964,319.056
				c-1.992-0.569-4.167-0.405-5.903,0.713c-2.427,1.562-3.539,4.462-4.905,7.004c-1.661,3.092-3.671,6.022-6.064,8.589
				c-11.412,12.245-32.241,11.714-39.904,10.609c0.329,5.397,0.156,10.825-0.516,16.19c-0.028,0.225,18.781,3.551,20.777,3.444
				c8.151-0.439,15.856-3.592,22.375-8.431c6.114-4.538,11.618-10.803,16.178-16.879c2.092-2.788,3.83-5.944,4.358-9.39
				c0.528-3.446-0.299-7.219-2.742-9.705C358.621,320.186,357.335,319.447,355.964,319.056z"/>
			<g>
				<path style="fill:#F65E59;stroke:#000000;stroke-width:0.5;stroke-miterlimit:10;" d="M373.681,382.479
					c-0.445,2.149-1.178,4.249-1.936,6.315c-4.018,10.955-8.916,21.785-10.201,33.382c-2.007,18.128,17.025,24.55,31.581,26.134
					c8.22,0.895,16.134,1.469,24.319,2.954c3.814,0.692,8.328,1.209,12.453,1.675c1.444-5.756,2.759-11.546,4.05-17.339
					c0.179-0.802-38.736-12.674-42.559-14.044c9.091-12.884,19.841-28.152,19.841-44.754c0.077-3.375-0.535-6.736-1.46-9.982
					c-1.184-4.151-3.02-8.281-5.248-12.061c-0.899-1.526-1.882-3-2.901-4.447c-9.752,6.899-21.229,10.929-32.25,15.492
					c0.197,0.348,0.402,0.692,0.586,1.048c2.047,3.962,4.404,8.056,4.13,12.667C374.027,380.518,373.884,381.503,373.681,382.479z"
					/>
				<g>
					<defs>
						<path id="SVGID_00000102502446915014828880000001959893938215091615_" d="M373.681,382.479
							c-0.445,2.149-1.178,4.249-1.936,6.315c-4.018,10.955-8.916,21.785-10.201,33.382c-2.007,18.128,17.025,24.55,31.581,26.134
							c8.22,0.895,16.134,1.469,24.319,2.954c3.814,0.692,8.328,1.209,12.453,1.675c1.444-5.756,2.759-11.546,4.05-17.339
							c0.179-0.802-38.736-12.674-42.559-14.044c9.091-12.884,19.841-28.152,19.841-44.754c0.077-3.375-0.535-6.736-1.46-9.982
							c-1.184-4.151-3.02-8.281-5.248-12.061c-0.899-1.526-1.882-3-2.901-4.447c-9.752,6.899-21.229,10.929-32.25,15.492
							c0.197,0.348,0.402,0.692,0.586,1.048c2.047,3.962,4.404,8.056,4.13,12.667C374.027,380.518,373.884,381.503,373.681,382.479z
							"/>
					</defs>
					<clipPath id="SVGID_00000015343578516411400390000000389194754038972604_">
						<use xlink:href="#SVGID_00000102502446915014828880000001959893938215091615_"  style="overflow:visible;"/>
					</clipPath>
					<path style="clip-path:url(#SVGID_00000015343578516411400390000000389194754038972604_);fill:#050504;" d="M365.915,423.493
						c0.639,0.347,1.144,0.899,1.573,1.486c1.189,1.625,1.892,3.649,1.725,5.656c-0.168,2.007-1.273,3.965-3.028,4.951
						c-1.755,0.987-4.135,0.861-5.644-0.472c-0.793-0.7-1.307-1.657-1.772-2.607C356.53,427.944,359.785,420.167,365.915,423.493z"
						/>
				</g>
			</g>
			
				<line style="fill:none;stroke:#000000;stroke-width:7;stroke-miterlimit:10;" x1="328.342" y1="386.694" x2="274.783" y2="342.921"/>
			<path style="fill:#FFFFFF;stroke:#222221;stroke-width:0.5;stroke-miterlimit:10;" d="M312.475,362.261
				c0.071-0.986-0.173-1.993-0.622-2.878c-0.254-0.5-0.588-0.983-1.069-1.27c-0.542-0.323-1.201-0.362-1.832-0.389
				c-2.402-0.104-4.805-0.168-7.209-0.189c-2.148-0.019-3.828-0.434-5.492-1.914c-0.865-0.77-1.24-1.826-2.064-2.613
				c-0.978-0.934-2.06-1.758-3.22-2.452c-0.701-0.42-1.507-0.804-2.307-0.637c-0.328,0.069-0.671,0.276-0.725,0.607
				c-0.035,0.217,0.064,0.433,0.174,0.624c0.555,0.959,1.447,1.668,2.186,2.493c0.435,0.486,1.79,2.288,1.072,2.928
				c-0.697,0.621-2.401-0.541-2.9-0.917c-2.378-1.793-4.926-3.363-7.597-4.681c-0.302-0.149-0.661-0.295-0.96-0.14
				c-0.331,0.172-0.397,0.618-0.356,0.988c0.122,1.109,0.803,2.066,1.192,3.111c0.698,1.874,0.542,4.115,1.422,5.923
				c0.785,1.614,3.34,2.554,4.929,3.053c1.955,0.614,3.999,0.881,6.02,1.22c2.109,0.354,4.207,0.785,6.332,1.033
				c2.111,0.247,4.107-0.046,6.196,0.001c2.526,0.057,6.058-0.181,6.738-3.259C312.428,362.692,312.459,362.477,312.475,362.261z"/>
			<path style="fill:#DEA600;stroke:#000000;stroke-width:0.5;stroke-miterlimit:10;" d="M392.126,331.75
				c-4.649-5.458-9.741-10.538-15.218-15.165c-7.602-6.422-21.512-12.014-29.294-2.348c-2.762,3.431-3.915,7.846-4.998,12.116
				c-0.819,3.232-1.639,6.464-2.458,9.697c-1.618,6.382-4.271,10.163-10.199,13.139c-2.03,1.02-3.973,1.88-6.22,2.554
				c-7.059,2.117-14.322,3.083-21.659,3.61c0.034,4.127,0.046,8.254-0.08,12.378c12.209,0.175,23.616,2.158,34.967-3.207
				c7.773-3.674,16.677-9.841,20.82-17.554c3.188,8.74,7.089,17.219,11.652,25.327c14.021-2.605,27.328-8.063,40.517-13.486
				C405.16,349.101,399.148,339.994,392.126,331.75z"/>
			<g>
				<g>
					<g>
						<path d="M336.974,285.584c-0.583,0.526-1.11,1.115-1.564,1.756c-0.573,0.809-1.047,1.801-0.816,2.765
							c0.378,1.578,2.393,2.154,3.992,1.881c1.93-0.33,5.282-2.548,6.452,0.02c0.295,0.646,0.294,1.399,0.601,2.04
							c1.06,2.21,4.9,1.792,5.896,4.032c0.321,0.723,0.243,1.55,0.292,2.34c0.18,2.948,2.495,2.219,4.633,2.668
							c1.543,0.324,2.644,0.982,2.678,2.596c0.056,2.663-0.895,5.237-0.897,7.918c-0.002,3.042,0.657,6.099,2.099,8.79
							c1.895,3.536,5.095,6.176,8.898,7.412c4.03,1.31,7.788,3.834,12.239,2.595c1.605-0.447,3.061-1.325,4.37-2.356
							c1.978-1.559,3.694-3.547,4.516-5.928c0.19-0.552,0.329-1.117,0.42-1.688c0.439-2.77-0.251-5.707-1.629-8.179
							c-0.732-1.314-1.672-2.545-2.921-3.382c-1.759-1.179-3.994-1.477-6.098-1.239c-0.897,0.101-1.792,0.294-2.694,0.251
							c-0.902-0.043-1.845-0.364-2.384-1.088c-1.047-1.407-0.108-3.41-0.379-5.143c-0.212-1.352-1.21-2.51-2.448-3.092
							c-1.238-0.582-2.683-0.632-4.017-0.327c-1.593,0.365-3.325,1.236-4.785,0.17c-1.709-1.248-1.412-3.135-1.084-4.934
							c0.651-3.571,0.149-7.446-1.9-10.443c-3.08-4.505-9.393-7.101-14.423-4.245c-0.911,0.517-1.737,1.181-2.676,1.646
							c-1.016,0.502-2.134,0.756-3.186,1.177C338.99,284.063,337.908,284.742,336.974,285.584z"/>
					</g>
				</g>
			</g>
			<path d="M349.602,308.253c0.043,0.144,0.071,0.285,0.109,0.429c0.769-1.327,1.486-2.686,2.206-4.044
				c0.036-0.184,0.067-0.368,0.085-0.55c-1.029,0.453-2.83,0.94-3.924,1.118c0.924,0.547,1.291,1.625,1.476,2.636
				C349.579,307.978,349.583,308.116,349.602,308.253z"/>
			
				<circle style="opacity:0.57;fill:#9DD1C9;stroke:#000000;stroke-width:3;stroke-miterlimit:10;" cx="246.568" cy="315.021" r="39.871"/>
			<path style="fill:none;stroke:#000000;stroke-width:0.5;stroke-miterlimit:10;" d="M357.463,347.679
				c1.116-2.656,1.642-5.557,1.53-8.435"/>
			<path style="fill:#FFFFFF;stroke:#222221;stroke-width:0.5;stroke-miterlimit:10;" d="M347.573,296.302
				c-0.416-1.221,0.144-2.259,1.169-2.907c0.443-0.28,0.962-0.467,1.484-0.428c2.451,0.181,3.904,3.139,2.694,5.169
				c-0.469,0.787-1.285,1.383-2.195,1.49"/>
			<path style="fill:#FFFFFF;stroke:#222221;stroke-width:0.5;stroke-miterlimit:10;" d="M350.314,294.385
				c-0.595,0.209-1.088,0.69-1.311,1.28c-0.223,0.59-0.172,1.277,0.136,1.828"/>
			<circle style="fill:none;stroke:#000000;stroke-width:3;stroke-miterlimit:10;" cx="246.568" cy="315.021" r="39.871"/>
			<path style="fill:none;stroke:#000000;stroke-width:0.5;stroke-miterlimit:10;" d="M387.754,372.592
				c0.583,2.706,2.241,5.164,4.531,6.718c2.29,1.554,5.188,2.186,7.917,1.728"/>
			<path style="fill:none;stroke:#000000;stroke-width:0.5;stroke-miterlimit:10;" d="M338.285,391.403
				c-1.346-1.685-2.506-3.519-3.45-5.458"/>
			<path style="fill:none;stroke:#000000;stroke-width:0.5;stroke-miterlimit:10;" d="M391.25,421.777
				c-1.785,0.72-3.772,0.93-5.668,0.598"/>
			
				<ellipse transform="matrix(0.9926 -0.1212 0.1212 0.9926 -36.3617 32.2052)" style="fill:none;stroke:#000000;stroke-width:0.5;stroke-miterlimit:10;" cx="246.568" cy="315.021" rx="33.72" ry="33.72"/>
		</g>
		<g>
			<circle style="fill:#9DD1C9;stroke:#000000;stroke-width:0.5;stroke-miterlimit:10;" cx="416.496" cy="83.897" r="39.163"/>
			<circle style="fill:#FFFFFF;stroke:#222221;stroke-width:0.5;stroke-miterlimit:10;" cx="416.496" cy="83.897" r="32.657"/>
			
				<line style="fill:none;stroke:#111314;stroke-width:0.5;stroke-miterlimit:10;" x1="436.126" y1="64.033" x2="396.983" y2="103.176"/>
			
				<line style="fill:none;stroke:#111314;stroke-width:0.5;stroke-miterlimit:10;" x1="396.983" y1="64.033" x2="436.127" y2="103.176"/>
			
				<line style="fill:none;stroke:#111314;stroke-width:0.5;stroke-miterlimit:10;" x1="416.555" y1="55.926" x2="416.555" y2="111.283"/>
			
				<line style="fill:none;stroke:#111314;stroke-width:0.5;stroke-miterlimit:10;" x1="388.876" y1="83.605" x2="444.233" y2="83.605"/>
			<g>
				<polygon style="fill:#F65E59;stroke:#000000;stroke-width:0.5;stroke-miterlimit:10;" points="440.895,74.381 416.214,79.441 
					419.461,87.871 				"/>
				<polygon style="fill:#7696EA;stroke:#000000;stroke-width:0.5;stroke-miterlimit:10;" points="394.131,93.951 415.963,79.541 
					419.461,87.871 				"/>
				<path style="fill:#111314;" d="M418.633,88.918c-2.686,1.073-5.733-0.236-6.805-2.922c-1.072-2.686,0.236-5.733,2.922-6.805
					c2.686-1.073,5.733,0.236,6.805,2.922C422.628,84.799,421.319,87.845,418.633,88.918z"/>
			</g>
		</g>
		<g>
			<path style="fill:#F65E59;stroke:#000000;stroke-width:0.5;stroke-miterlimit:10;" d="M242.472,85.107
				c0-14.758,21.905-26.723,44.208-26.723c22.303,0,43.252,11.964,43.252,26.723c0,13.777-18.625,25.115-38.863,26.563
				c-0.405,2.743-1.121,5.418-2.329,7.944c-2.976,6.22-9.676,11.287-16.759,10.483c5.578-2.343,8.832-8.212,9.545-14.015
				c0.183-1.487,0.225-2.976,0.167-4.463C261.744,109.993,242.472,98.747,242.472,85.107z"/>
			<path style="fill:none;stroke:#000000;stroke-width:0.5;stroke-miterlimit:10;" d="M318.75,92.001
				c-3.704,2.492-9.039,2.608-12.862,0.28c-3.823-2.328-5.891-6.951-4.987-11.148c0.144-0.668,0.425-1.401,1.087-1.679
				c1.267-0.532,2.39,0.991,2.726,2.257c1.104,4.157,0.058,9.383-4.055,11.227c-4.299,1.927-9.571-1.028-11.764-5.003
				c-1.148-2.081-1.929-4.805-1.517-7.163c0.154-0.884,0.711-1.816,1.629-1.982c0.634-0.115,1.294,0.178,1.734,0.631
				c0.44,0.453,0.69,1.046,0.867,1.641c1.109,3.729-0.61,9.229-4.196,11.28c-6.903,3.948-13.276-3.717-13.526-9.786
				c-0.028-0.685,0.008-1.397,0.329-2.009c0.32-0.613,0.987-1.102,1.699-1.046c1.056,0.083,1.639,1.21,1.877,2.2
				c0.895,3.721,0.209,10.46-4.437,11.665c-3.832,0.993-7.014-1.756-8.466-4.928c-0.67-1.464-1.24-3.381-0.97-4.997
				c0.33-1.973,2.496-2.927,2.929-0.377c0.408,2.401-0.251,6.086-1.941,7.939c-1.801,1.974-4.645,3.268-7.387,2.497"/>
		</g>
		<g>
			<g>
				<path style="fill:#9DD1C9;stroke:#000000;stroke-width:0.5;stroke-miterlimit:10;" d="M253.281,373.224
					c-0.354-0.536-0.771-1.036-1.253-1.488c-4.084-3.829-10.613-2.741-15.945-1.034c-11.929,3.818-25.413,10.647-32.381,21.423
					c-7.663,11.852-11.739,25.963-15.659,39.385c-0.541,1.853-2.197,5.642-2.105,8.32c1.908-0.098,3.827-0.161,5.736-0.069
					c1.197-1.608,2.269-3.466,2.967-4.434c8.165-11.308,18.212-21.378,30.111-28.739c10.552-6.527,22.568-9.411,28.638-21.412
					C255.274,381.455,255.517,376.606,253.281,373.224z"/>
				<path style="fill:#DEA600;stroke:#000000;stroke-width:0.5;stroke-miterlimit:10;" d="M181.716,439.746h2.134
					c-0.004-0.03-0.002-0.062-0.006-0.092c-0.092-0.682-0.289-1.339-0.394-2.081c-0.188-1.326-0.385-2.63-0.701-3.944
					c-0.689-2.863-1.598-5.667-2.435-8.488c-1.338-4.512-2.863-8.999-5.15-13.129c-2.33-4.207-5.539-8.049-9.743-10.386
					c-10.094-5.611-28.324-2.363-33.23,9.053c-1.618,3.765-1.28,8.54,1.557,11.498c1.362,1.42,3.181,2.334,5.065,2.901
					c2.553,0.768,5.284,0.938,7.913,0.492c6.413-1.09,13.815-3.016,20.429-1.268c0.666,0.176,1.318,0.406,1.949,0.682
					c3.407,1.492,6.059,4.267,8.307,7.155C179.247,434.495,181.04,436.871,181.716,439.746z"/>
				<path style="fill:#F65E59;stroke:#000000;stroke-width:0.5;stroke-miterlimit:10;" d="M179.154,413.371
					c1.109,4.261,1.868,8.613,2.535,12.968c0.331,2.159,2.368,9.849,2.223,13.592h0.225c0.502-0.028,1.607-0.09,1.802-0.101
					c1.89-3.412,1.435-7.285,2.19-11.143c2.93-14.979,7.997-31.402,4.355-46.599c-2.105-8.786-6.838-17.245-14.381-22.218
					c-7.543-4.973-18.113-5.785-25.513-0.602c-1.407,0.985-2.704,2.192-3.498,3.714c-1.963,3.766-0.408,8.419,1.85,12.016
					c1.931,3.076,4.363,5.837,7.17,8.141c2.933,2.408,6.265,4.314,9.079,6.86c3.327,3.01,5.767,6.737,7.65,10.77
					C176.726,404.802,178.053,409.141,179.154,413.371z"/>
				<path style="fill:none;stroke:#222221;stroke-width:0.5;stroke-miterlimit:10;" d="M188.902,439.071
					c9.068-18.102,18.259-38.098,35.714-49.555c4.787-3.143,9.875-5.792,14.951-8.43"/>
				<path style="fill:none;stroke:#222221;stroke-width:0.5;stroke-miterlimit:10;" d="M182.85,439.436
					c-4.519-10.462-8.869-19.267-18.526-23.812c-6.249-2.84-13.066-2.272-19.105-1.693"/>
				<path style="fill:none;stroke:#222221;stroke-width:0.5;stroke-miterlimit:10;" d="M170.711,375.79
					c18.608,15.406,14.063,41.538,14.415,63.295"/>
			</g>
			
				<line style="fill:none;stroke:#222221;stroke-width:0.5;stroke-miterlimit:10;" x1="170.484" y1="439.854" x2="211.994" y2="439.854"/>
		</g>
		<g>
			<g>
				<path d="M134.925,183.866c-1.407-1.951-3.417-3.426-5.583-3.785c-3.705-0.614-7.963,0.428-10.041,3.556
					c-0.838,1.261-1.404,2.897-2.812,3.451c-0.68,0.267-1.436,0.219-2.166,0.254c-3.197,0.154-6.245,2.125-7.697,4.978
					c-0.895,1.758-0.866,3.433-1.247,5.249c-0.398,1.899-1.951,3.483-3.435,4.619c-1.793,1.372-3.841,2.422-5.458,3.998
					c-2.453,2.39-3.707,5.858-3.749,9.283c-0.035,2.812,0.605,7.306,2.738,9.369c2.009,1.944,5.285,3.332,7.943,4.024
					c2.813,0.732,6.062,0.92,8.749-0.369c2.684-1.287,5.678-2.487,7.895-4.578c5.893-5.558,7.5-14.575,7.998-22.281
					c0.081-1.256,3.31-3.513,4.2-4.335c1.355-1.251,2.822-2.513,3.765-4.123C137.695,190.32,136.91,186.619,134.925,183.866z"/>
				<path style="fill:#FFFFFF;stroke:#222221;stroke-width:0.5;stroke-miterlimit:10;" d="M158.324,382.26
					c-2.125,20.686-5.17,41.251-8.222,62.129c-5.094-0.256-6.9-4.574-7.717-9.897c-3.026-19.719-3.624-43.407-5.712-63.345
					c-1.271-12.137-10.078-80.54,9.526-79.548c7.183,0.363,11.523,8.155,13.104,15.172c1.677,7.445,1.857,15.137,1.883,22.769
					C161.247,347.371,160.112,364.858,158.324,382.26z"/>
				<path style="fill:#FFFFFF;stroke:#222221;stroke-width:0.5;stroke-miterlimit:10;" d="M110.804,386.725
					c4.723-14.083,9.154-28.264,13.288-42.532c2.097-7.237,4.753-19.372,6.556-26.69c1.325-5.375,2.206-6.935,1.764-12.468
					c-0.257-3.218-1.161-6.505-3.288-8.933c-3.187-3.639-8.728-4.654-13.334-3.177c-4.606,1.477-8.298,5.097-10.737,9.274
					c-2.44,4.177-3.757,8.905-4.844,13.618c-3.538,15.344-3.223,30.669-5.366,46.116c-2.194,15.82-5.767,31.403-8.344,47.158
					c-1.318,8.059-1.75,18.22-2.96,26.296c-0.382,2.548-0.553,3.508,2.831,4.355c3.142,0.787,4.096,0.925,5.226-1.307
					C99.639,422.556,105.146,403.599,110.804,386.725z"/>
				<path style="fill:#DEA600;stroke:#000000;stroke-width:0.5;stroke-miterlimit:10;" d="M109.588,322.533
					c8.218,0.509,16.463,0.91,24.694,1.04c7.148,0.113,14.313-0.107,21.419-0.981c3.218-0.396,6.401-0.952,9.547-1.652
					c-0.513-3.118-1.187-6.201-1.329-7.329c-1.372-10.903-3.089-21.757-5.148-32.537c-0.986-5.162-2.056-10.328-3.799-15.259
					c-1.372-3.882-3.239-7.71-6.247-10.35c-2.481-2.177-6.011-3.55-9.769-4.153c-5.286-0.848-11.021-0.172-14.919,1.93
					c-4.49,2.422-8.025,6.472-10.96,10.82c-11.158,16.529-14.453,37.194-18.842,57.151
					C99.34,321.794,104.462,322.216,109.588,322.533z"/>
				<g>
					<defs>
						<path id="SVGID_00000166651232782430773950000010076457655703872946_" d="M109.588,322.533
							c8.218,0.509,16.463,0.91,24.694,1.04c7.148,0.113,14.313-0.107,21.419-0.981c3.218-0.396,6.401-0.952,9.547-1.652
							c-0.513-3.118-1.187-6.201-1.329-7.329c-1.372-10.903-3.089-21.757-5.148-32.537c-0.986-5.162-2.056-10.328-3.799-15.259
							c-1.372-3.882-3.239-7.71-6.247-10.35c-2.481-2.177-6.011-3.55-9.769-4.153c-5.286-0.848-11.021-0.172-14.919,1.93
							c-4.49,2.422-8.025,6.472-10.96,10.82c-11.158,16.529-14.453,37.194-18.842,57.151
							C99.34,321.794,104.462,322.216,109.588,322.533z"/>
					</defs>
					<clipPath id="SVGID_00000129173714882713687110000003232205220060201862_">
						<use xlink:href="#SVGID_00000166651232782430773950000010076457655703872946_"  style="overflow:visible;"/>
					</clipPath>
					<g style="clip-path:url(#SVGID_00000129173714882713687110000003232205220060201862_);">
						<path style="fill:#050504;" d="M141.467,299.288c0.734,1.516,2.809,1.667,4.487,1.512c2.875-0.266,5.726-0.799,8.503-1.592
							c3.696-1.055,9.86-3.228,10.861-7.534c0.781-3.358-1.35-4.742-4.316-4.821C156.635,286.736,138.572,293.313,141.467,299.288z"
							/>
						<path style="fill:#050504;" d="M109.428,288.953c0.882-0.616,1.81-1.165,2.851-1.404c1.381-0.317,3.024,0.057,3.781,1.254
							c1.153,1.823-0.278,4.144-1.694,5.77c-2.007,2.304-4.113,4.523-6.308,6.649c-0.921,0.892-1.882,1.783-3.051,2.308
							c-2.319,1.04-6.808,2.292-8.968,0.617c-5.477-4.248,10.071-12.755,12.538-14.578
							C108.857,289.362,109.14,289.154,109.428,288.953z"/>
						<path style="fill:#050504;" d="M126.428,278.463c-0.275,0.925-0.549,1.85-0.824,2.774c-0.66,2.22-1.323,4.458-1.522,6.765
							c-0.103,1.189-0.073,2.428,0.416,3.517c0.488,1.089,1.52,1.999,2.712,2.052c2.046,0.091,3.341-2.102,4.16-3.978
							c2.037-4.666,5.605-12.192,2.758-17.252c-2.243-3.985-5.235-2.175-6.362,1.618
							C127.32,275.461,126.874,276.962,126.428,278.463z"/>
						<path style="fill:#050504;" d="M128.081,305.42c1.937-0.356,4.154-0.511,5.657,0.761c0.342,0.289,0.64,0.666,0.704,1.109
							c0.046,0.321-0.035,0.648-0.149,0.951c-0.822,2.178-3.175,3.301-5.317,4.213c-2.493,1.061-18.279,7.302-17.784,1.003
							C111.55,308.885,124.666,306.048,128.081,305.42z"/>
						<path style="fill:#050504;" d="M148.778,311.16c0.339-0.647,0.781-1.319,1.477-1.539c0.908-0.287,1.867,0.315,2.484,1.04
							c1.509,1.773,1.836,4.283,1.628,6.602c-0.208,2.319-0.88,4.577-1.108,6.894c-0.22,2.233,0.17,7.623-2.762,8.547
							c-2.474,0.78-3.231-1.629-3.715-3.688C145.531,323.702,146.251,315.989,148.778,311.16z"/>
						<path style="fill:#050504;" d="M142.643,276.886c0.124,1.207,0.649,2.542,1.797,2.938c1.054,0.363,2.191-0.213,3.098-0.861
							c3.526-2.52,14.065-16.612,8.75-20.357C151.031,254.901,142.187,272.456,142.643,276.886z"/>
						<path style="fill:#050504;" d="M101.098,270.742c3.986-0.697,8.056-0.918,12.094-0.658c1.249,0.081,2.532,0.218,3.637,0.805
							c1.105,0.587,2.002,1.728,1.948,2.978c-0.052,1.199-0.962,2.226-2.034,2.765c-1.072,0.539-2.294,0.681-3.487,0.816
							c-4.332,0.487-8.79,0.965-12.994-0.191c-0.795-0.219-1.601-0.51-2.194-1.082C95.439,273.642,98.726,271.157,101.098,270.742z"
							/>
					</g>
				</g>
				<path style="fill:#FFFFFF;stroke:#222221;stroke-width:0.5;stroke-miterlimit:10;" d="M172.167,234.243
					c-3.663,0.22-7.385,0.095-11.139-0.409c-6.792-0.912-15.004-2.536-17.805-9.82c-1.329-3.455-0.062-8.079,3.107-10.204
					c3.034-2.034,7.066-0.89,10.618-0.035c7.131,1.717,14.708,2.077,22.022,2.112c8.182,0.039,16.77-0.989,24.123-4.808
					c3.272-1.699,6.429-3.619,9.444-5.742c2.686-1.891,5.066-4.244,7.844-5.991c2.051-1.289,4.381-2.133,6.782-2.455
					c1.475-0.198,3.227-0.082,4.085,1.134c1.015,1.438,0.114,3.474-1.135,4.714c-2.296,2.279-5.549,3.278-8.21,5.119
					c-2.02,1.398-3.665,3.257-5.391,5.005C204.539,224.981,188.964,233.235,172.167,234.243z"/>
				<path style="fill:#522E97;" d="M131.697,208.03c-0.013,0.117,0,0.236,0.029,0.35c0.066-0.032,0.134-0.06,0.203-0.087
					L131.697,208.03z"/>
				<path style="fill:#7696EA;stroke:#000000;stroke-width:0.5;stroke-miterlimit:10;" d="M107.989,261.713
					c2.237,0.371,4.45,0.701,6.71,0.904c4.948,0.444,9.857,0.445,14.817,0.491c3.453,0.032,6.904,0.204,10.358,0.189
					c5.487-0.026,11.689-0.326,16.663-2.972c-1.842-8.665-3.684-17.331-5.526-25.996c0.387,0.321,6.22,4.368,6.184,4.524
					c0,0,3.306-25.534,1.562-26.127c-0.821-0.279-1.627-0.622-2.431-0.946c-5.787-2.328-11.962-3.679-18.191-4.006
					c-5.69-0.298-12.333-0.671-17.906,0.594c-10.575,2.401-10.878,12.07-11.197,21.365c-0.115,3.341-0.215,6.682-0.308,10.024
					c-0.131,4.725-0.245,9.45-0.359,14.175C108.353,254.489,108.436,259.421,107.989,261.713z"/>
				<path style="fill:#FFFFFF;stroke:#222221;stroke-width:0.5;stroke-miterlimit:10;" d="M132.543,205.203
					c-0.04-0.352-0.071-0.7-0.088-1.045c-0.027-0.531-0.032-1.095,0.238-1.552c0.288-0.487,0.827-0.754,1.283-1.09
					c1.574-1.158,1.899-3.135,2.11-4.956c0.236-2.039,0.044-4.155-0.507-6.13c-0.604-2.167-1.794-4.308-3.662-5.629
					c-1.556-1.1-3.516-1.446-5.273-0.611c-1.017,0.483-1.852,1.281-2.523,2.173c-0.782,1.04-1.892,2.722-2.029,4.041
					c-0.098,0.947-0.18,1.897-0.243,2.847c-0.36,5.454-0.246,11.26,1.644,16.458c0.869,2.391,2.392,5.453,5.029,6.286
					c1.926,0.608,3.516-0.627,4.188-2.389C133.723,210.946,132.859,207.985,132.543,205.203z"/>
				<path d="M133.808,178.48c-0.669-0.157-1.371-0.197-2.052-0.127c-4.29,0.441-9.666,4.906-12.095,8.356
					c-0.986,1.401-1.968,3.23-1.611,5.009c0.165,0.824,0.586,1.498,1.19,2.073c0.614,0.584,2.561,1.827,3.322,1.328
					c0.396-0.26,0.389-1.292,0.745-1.682c0.571-0.626,1.51-0.652,2.156-1.175c0.952-0.773,0.931-2.266,1.708-3.214
					c0.423-0.516,1.045-0.822,1.654-1.095c2.274-1.019,6.491-1.288,7.986-3.369c0.984-1.369,0.694-3.408-0.441-4.655
					C135.696,179.186,134.787,178.709,133.808,178.48z"/>
				<path style="fill:#FFFFFF;stroke:#222221;stroke-width:0.5;stroke-miterlimit:10;" d="M125.882,193.398
					c-0.108-0.544-0.301-1.08-0.64-1.52c-0.339-0.439-0.835-0.773-1.385-0.841c-0.446-0.055-0.899,0.065-1.304,0.259
					c-1.569,0.751-2.189,2.581-1.415,4.139c0.287,0.579,0.949,1,1.574,1.117c0.493,0.092,0.999,0.051,1.499,0.01"/>
				<path style="fill:#FFFFFF;stroke:#222221;stroke-width:0.5;stroke-miterlimit:10;" d="M134.579,194.944l-4.923,1.567
					C130.124,197.613,133.984,199.504,134.579,194.944z"/>
				<path d="M133.237,201.713c-1.005,0.254-2.021,0.29-3.045,0.244c0.389,0.478,0.694,1.007,1.082,1.473
					c0.437,0.525,0.965,0.929,1.251,1.558c-0.021-0.445-0.045-0.888-0.025-1.334c0.017-0.379,0.06-0.768,0.23-1.107
					c0.238-0.473,0.695-0.796,1.163-1.043c0.016-0.008,0.032-0.018,0.048-0.026C133.71,201.566,133.478,201.652,133.237,201.713z"/>
			</g>
			<g>
				<polygon points="133.182,192.514 143.53,194.081 143.53,189.378 133.182,190.946 				"/>
				<g>
					<path style="fill:#467A7C;" d="M250.767,174.522v0.009c-0.062,0.001-0.124,0.003-0.186,0.004L250.767,174.522z"/>
					<path style="fill:#467A7C;" d="M246.689,207.616l4.078,0.476C249.292,208.063,247.942,207.892,246.689,207.616z"/>
					<path style="fill:#F65E59;stroke:#000000;stroke-width:0.5;stroke-miterlimit:10;" d="M246.689,207.616L142.68,195.472
						c-1.796-0.21-3.15-1.731-3.15-3.54l0,0c0-1.791,1.33-3.304,3.106-3.534l106.042-13.723
						c-9.184,1.096-12.962,9.243-12.962,17.756C235.716,200.253,239.294,205.989,246.689,207.616z"/>
				</g>
				<g>
					<circle style="fill:#9DD1C9;stroke:#000000;stroke-width:3;stroke-miterlimit:10;" cx="251.237" cy="191.307" r="16.006"/>
					<g>
						<path style="fill:#FFFFFF;" d="M250.571,200.204c2.135,0,4.261-0.719,6.061-2.088c2.389-1.817,3.815-4.5,3.912-7.362
							c0.069-2.043-0.536-4.115-1.68-5.822c-0.3-0.448-0.919-0.543-1.333-0.197l-0.051,0.043c-0.36,0.301-0.419,0.821-0.158,1.211
							c0.922,1.38,1.41,3.053,1.354,4.702c-0.078,2.298-1.235,4.462-3.176,5.937c-1.744,1.326-3.854,1.907-5.897,1.645
							c-0.463-0.059-0.9,0.224-1.009,0.678l-0.016,0.066c-0.126,0.525,0.234,1.038,0.77,1.107
							C249.755,200.178,250.163,200.204,250.571,200.204z"/>
					</g>
				</g>
				<g>
					<defs>
						<polygon id="SVGID_00000098913279930300200260000009836310345363270554_" points="134.123,189.378 243.026,175.316 
							243.026,207.298 141.648,195.022 						"/>
					</defs>
					<clipPath id="SVGID_00000131359731702346991590000018443959388299284134_">
						<use xlink:href="#SVGID_00000098913279930300200260000009836310345363270554_"  style="overflow:visible;"/>
					</clipPath>
					<g style="clip-path:url(#SVGID_00000131359731702346991590000018443959388299284134_);">
						<g>
							<path d="M227.72,207.298v-0.941c-8.299,0-15.051-6.752-15.051-15.051c0-8.299,6.752-15.051,15.051-15.051v-0.941
								c-8.818,0-15.992,7.174-15.992,15.992C211.729,200.125,218.902,207.298,227.72,207.298z"/>
						</g>
						<g>
							<path d="M203.733,204.477v-0.941c-6.743,0-12.229-5.486-12.229-12.229c0-6.743,5.486-12.229,12.229-12.229v-0.941
								c-7.262,0-13.17,5.908-13.17,13.169C190.564,198.569,196.471,204.477,203.733,204.477z"/>
						</g>
						<g>
							<path d="M160.462,198.832v-0.941c-3.63,0-6.585-2.954-6.585-6.585c0-3.631,2.954-6.585,6.585-6.585v-0.941
								c-4.149,0-7.525,3.376-7.525,7.525C152.937,195.456,156.313,198.832,160.462,198.832z"/>
						</g>
						<g>
							<path d="M180.687,201.654v-0.941c-5.187,0-9.407-4.22-9.407-9.407c0-5.187,4.22-9.407,9.407-9.407v-0.941
								c-5.706,0-10.348,4.642-10.348,10.347C170.339,197.013,174.981,201.654,180.687,201.654z"/>
						</g>
					</g>
				</g>
			</g>
			<path style="fill:#FFFFFF;stroke:#222221;stroke-width:0.5;stroke-miterlimit:10;" d="M111.021,225.897
				c-0.257-2.356,0.433-4.758,2.52-6.957c4.414-4.651,8.144-2.848,13.005-0.714c2.433,1.068,4.967,2.157,7.624,2.087
				c3.075-0.08,5.938-1.736,8.105-3.919c3.128-3.151,5.327-7.389,7.553-11.203c2.305-3.948,4.611-7.897,6.916-11.846
				c1.823-3.123,3.229-6.908,6.05-9.203c2.425-1.972,7.269-4.471,9.797-1.248c2.009,2.56-0.479,5.56-2.741,7.103
				c-4.398,2.999-5.032,8.424-6.126,13.24c-1.445,6.361-3.229,12.699-6.232,18.521c-6.631,12.856-20.426,21.994-35.137,16.61
				C117.213,236.486,111.612,231.315,111.021,225.897z"/>
			<path style="fill:#7696EA;stroke:#000000;stroke-width:0.5;stroke-miterlimit:10;" d="M118.871,208.694
				c-11.324,2.323-18.669,10.867-16.397,21.021c1.405,6.28,5.532,11.393,10.883,14.732c0.483,0.301,8.699-12.666,9.43-13.92
				c0.478-0.819,7.022-12.772,7.022-12.772s-1.884-0.673-2.827-1.113c-2.42-1.13-4.225-2.918-6.337-4.554"/>
			<path style="fill:#FFFFFF;stroke:#222221;stroke-width:0.5;stroke-miterlimit:10;" d="M123.006,192.758
				c0.491,0.077,1.018,0.173,1.367,0.525c0.422,0.426,0.458,1.089,0.468,1.688"/>
			<path d="M173.739,446.784c-0.487-0.416-1.097-0.639-1.694-0.854c-3.965-1.429-7.986-2.688-11.928-4.185
				c-2.842-1.079-5.933-1.973-7.824-4.537c-0.09-0.121-0.168-0.227-0.24-0.32c-3.351,0.449-6.825,0.476-9.878-0.754
				c-0.215,4.505-0.391,9.033,0.21,13.501c0.023,0.168,0.057,0.355,0.196,0.453c0.109,0.077,0.253,0.077,0.387,0.073
				c0.066-0.002,0.132-0.003,0.197-0.005c2.947-0.069,5.882,0.089,8.833,0.027c3.045-0.065,6.088-0.224,9.134-0.224
				c2.771,0,5.751,0.399,8.461,0.223C170.969,450.093,176.284,448.962,173.739,446.784z"/>
			<path d="M108.753,453.792c-0.559-0.958-1.461-1.66-2.362-2.307c-2.548-1.832-5.267-3.434-7.682-5.438
				c-2.415-2.004-4.557-4.488-5.5-7.482c-0.114-0.361-0.215-0.739-0.451-1.036c-0.082-0.103-0.192-0.189-0.314-0.266
				c-1.794,0.547-3.608,0.054-5.306-0.903c-1.435-0.809-2.83-2.008-4.38-2.694c-0.338,1.029-0.366,2.064-0.533,3.119
				c-0.19,1.206-0.541,2.408-0.846,3.589c-0.158,0.611-2.026,7.062-1.845,7.131c0.248,0.095,0.495,0.19,0.743,0.284
				c5.576,2.119,11.265,4.035,16.944,6.007c2.618,0.909,5.304,2.264,7.922,2.985c0.817,0.225,2.84,0.737,3.591,0.26
				C109.675,456.445,109.18,454.525,108.753,453.792z"/>
		</g>
		<g>
			<path style="fill:#F65E59;stroke:#000000;stroke-width:0.5;stroke-miterlimit:10;" d="M420.251,309.446
				c-0.061,1.752,0.369,3.612,0.893,5.052c0.564,1.551,1.496,3.071,2.973,3.807c1.08,0.538,2.329,0.598,3.535,0.584
				c3.534-0.041,6.729-1.072,7.829-4.719c0.957-3.174,1.172-8.883-2.732-10.159c-1.694-0.554-3.694-0.006-4.87,1.334
				c-1.432-1.265-3.703-1.464-5.333-0.466C420.925,305.868,420.315,307.598,420.251,309.446z"/>
			<path style="fill:none;stroke:#000000;stroke-width:0.5;stroke-miterlimit:10;" d="M427.866,305.456
				c-0.239-2.096,0.11-4.257,0.997-6.171"/>
			
				<ellipse style="fill:#DEA600;stroke:#000000;stroke-width:0.5;stroke-miterlimit:10;" cx="424.048" cy="308.489" rx="2.165" ry="2.605"/>
		</g>
	</g>
</g>
</svg>
